{
.appVersion = "3151";
.formatVersion = 3;
axes = (
{
name = Weight;
tag = wght;
}
);
classes = (
{
automatic = 1;
code = "A Aacute Abreve Abrevedotbelow Acaron Acircumflex Acircumflexdotbelow Adieresis Adieresismacron Adotbelow Agrave Amacron Aogonek Aring Atilde AE AEmacron B Bdotbelow C Cacute Ccaron Ccedilla Ccircumflex Cdotaccent D Eth Dcaron Dcroat Ddotbelow E Eacute Ecaron Ecircumflex Ecircumflexdotbelow Edieresis Edotaccent Edotbelow Egrave Emacron Eogonek Etilde Schwa F G Gbreve Gcaron Gcircumflex Gcommaaccent Gdotaccent Gmacron H Hbar Hcircumflex Hdotbelow I IJ Iacute Icaron Icircumflex Idieresis Idieresisacute Idotaccent Idotbelow Igrave Imacron Iogonek Itilde J Jacute Jcircumflex K Kcaron Kcommaaccent L Lacute Lcaron Lcommaaccent Ldotbelow Lslash M Macute Mdotaccent Mdotbelow N Nacute Ncaron Ncommaaccent Ndotaccent Ndotbelow Ntilde O Oacute Ocaron Ocircumflex Ocircumflexdotbelow Odieresis Odieresismacron Odotbelow Ograve Ohungarumlaut Omacron Oslash Otilde OE P Thorn Q R Racute Rcaron Rcommaaccent S Sacute Saltillo Scaron Scedilla Scircumflex Scommaaccent Sdotbelow Germandbls T Tcaron Tcedilla Tcommaaccent Tdotbelow U Uacute Ubreve Ucaron Ucircumflex Udieresis Udieresisacute Udieresiscaron Udieresisgrave Udieresismacron Udotbelow Ugrave Uhungarumlaut Umacron Uogonek Uring Utilde V W Wacute Wcircumflex Wdieresis Wgrave X Y Yacute Ycircumflex Ydieresis Ydotbelow Ygrave Ymacron Ytilde Z Zacute Zcaron Zdotaccent Zdotbelow Lcommaaccent.loclMAH Ncommaaccent.loclMAH Alpha Beta Gamma Delta Epsilon Zeta Eta Theta Iota Kappa Lambda Mu Nu Xi Omicron Pi Rho Sigma Tau Upsilon Phi Chi Psi Omega Alphatonos Epsilontonos Etatonos Iotatonos Omicrontonos Upsilontonos Omegatonos Iotadieresis Upsilondieresis";
name = Uppercase;
}
);
customParameters = (
{
name = fsType;
value = (
);
},
{
name = "Enforce Compatibility Check";
value = 1;
},
{
name = "gasp Table";
value = {
};
},
{
name = panose;
value = (
2,
11,
10,
4,
4,
2,
0,
0,
2,
3
);
},
{
name = "Use Typo Metrics";

glyphs = (
{
glyphname = A;
kernLeft = A;
kernRight = A;
lastChange = "2023-09-28 12:45:37 +0000";
layers = (
{
anchors = (
{
name = bottom;
pos = (646,0);
},
{
name = ogonek;
pos = (1245,0);
},
{
name = top;
pos = (646,1400);
}
);
layerId = m002;
shapes = (
{
closed = 1;
nodes = (
(130,0,l),
(312,499,l),
(882,499,l),
(1056,0,l),
(1246,0,l),
(757,1400,l),
(548,1400,l),
(35,0,l)
);
},
{
closed = 1;
nodes = (
(604,1295,l),
(852,583,l),
(343,583,l)
);
}
);
width = 1282;
},
{
anchors = (
{
name = bottom;
pos = (651,0);
},
{
name = ogonek;
pos = (1250,0);
},
{
name = top;
pos = (651,1400);
}
);
layerId = "EA527B28-A18D-4603-BC3C-580F40CB1381";
shapes = (
{
closed = 1;
nodes = (
(170,0,l),
(346,484,l),
(857,484,l),
(1031,0,l),
(1291,0,l),
(796,1400,l),
(528,1400,l),
(0,0,l)
);
},
{
closed = 1;
nodes = (
(608,1198,l),
(817,598,l),
(388,598,l)
);
}
);
width = 1291;
},
{
anchors = (
{
name = bottom;
pos = (630,0);
},
{
name = ogonek;
pos = (1229,0);
},
{
name = top;
pos = (630,1400);
}
);
layerId = "19911AB5-6E30-4B50-A0ED-4C0BC5D1DB49";
shapes = (
{
closed = 1;
nodes = (
(110,0,l),
(293,509,l),
(868,509,l),
(1046,0,l),
(1237,0,l),
(748,1400,l),
(526,1400,l),
(13,0,l)
);
},
{
closed = 1;
nodes = (
(588,1313,l),
(848,565,l),
(314,565,l)
);
}
);
width = 1250;
}
);
unicode = 65;
},
{
glyphname = AE;
kernLeft = A;
kernRight = E;
lastChange = "2023-10-02 11:25:59 +0000";
layers = (
{
anchors = (
{
name = bottom;
pos = (767,0);
},
{
name = ogonek;
pos = (1138,0);
},
{
name = top;
pos = (1011,1400);
},
{
name = topleft;
pos = (1080,1399);
}
);
hints = (
{
horizontal = 1;
place = (0, 154);
place = (0, 154);
type = Stem;
},
{
horizontal = 1;
place = (300, 140);
place = (300, 140);
type = Stem;
},
{
horizontal = 1;
place = (623, 154);
place = (623, 154);
type = Stem;
},
{
horizontal = 1;
place = (1400, -154);
place = (1400, -154);
type = Stem;
},
{
place = (729, 154);
place = (729, 154);
type = Stem;
},
{
horizontal = 1;
place = (0, 21);
target = up;
type = BottomGhost;
},
{
horizontal = 1;
place = (432, 154);
place = (432, 154);
type = Stem;
},
{
horizontal = 1;
place = (1399, 215);
place = (1399, 215);
type = Stem;
},
{
horizontal = 1;
place = (0, 140);
place = (0, 140);
type = Stem;
},
{
horizontal = 1;
place = (680, 140);
place = (680, 140);
type = Stem;
},
{
horizontal = 1;
place = (1400, 140);
place = (1400, 140);
type = Stem;
},
{
place = (998, 140);
place = (998, 140);
type = Stem;
}
);
layerId = m002;
shapes = (
{
closed = 1;
nodes = (
(144,-1,l),
(312,499,l),
(888,499,l),
(888,0,l),
(1781,0,l),
(1781,84,l),
(1068,84,l),
(1068,676,l),
(1603,676,l),
(1603,760,l),
(1068,760,l),
(1068,1315,l),
(1723,1315,l),
(1724,1399,l),
(548,1399,l),
(35,0,l)
);
},
{
closed = 1;
nodes = (
(612,1316,l),
(888,1316,l),
(888,583,l),
(343,583,l)
);
}
);
width = 1867;
},
{
anchors = (
{
name = bottom;
pos = (772,0);
},
{
name = ogonek;
pos = (1143,0);
},
{
name = top;
pos = (1016,1400);
},
{
name = topleft;
pos = (1085,1399);
}
);
hints = (
{
horizontal = 1;
place = (0, 154);
place = (0, 154);
type = Stem;
},
{
horizontal = 1;
place = (300, 140);
place = (300, 140);
type = Stem;
},
{
horizontal = 1;
place = (623, 154);
place = (623, 154);
type = Stem;
},
{
horizontal = 1;
place = (1400, -154);
place = (1400, -154);
type = Stem;
},
{
place = (729, 154);
place = (729, 154);
type = Stem;
},
{
horizontal = 1;
place = (0, 21);
target = up;
type = BottomGhost;
},
{
horizontal = 1;
place = (432, 154);
place = (432, 154);
type = Stem;
},
{
horizontal = 1;
place = (1399, 215);
place = (1399, 215);
type = Stem;
},
{
horizontal = 1;
place = (0, 140);
place = (0, 140);
type = Stem;
},
{
horizontal = 1;
place = (680, 140);
place = (680, 140);
type = Stem;
},
{
horizontal = 1;
place = (1400, 140);
place = (1400, 140);
type = Stem;
},
{
place = (998, 140);
place = (998, 140);
type = Stem;
}
);
layerId = "EA527B28-A18D-4603-BC3C-580F40CB1381";
shapes = (
{
closed = 1;
nodes = (
(169,-14,l),
(346,484,l),
(858,484,l),
(858,-15,l),
(1821,-15,l),
(1821,99,l),
(1108,99,l),
(1108,661,l),
(1643,661,l),
(1643,775,l),
(1108,775,l),
(1108,1300,l),
(1763,1300,l),
(1764,1414,l),
(532,1415,l),
(524,1414,l),
(0,-15,l)
);
},
{
closed = 1;
nodes = (
(646,1301,l),
(858,1301,l),
(858,598,l),
(388,598,l)
);
}
);
width = 1872;
},
{
anchors = (
{
name = bottom;
pos = (757,0);
},
{
name = ogonek;
pos = (1128,0);
},
{
name = top;
pos = (1001,1400);
},
{
name = topleft;
pos = (1070,1399);
}
);
hints = (
{
horizontal = 1;
place = (0, 154);
place = (0, 154);
type = Stem;
},
{
horizontal = 1;
place = (300, 140);
place = (300, 140);
type = Stem;
},
{
horizontal = 1;
place = (623, 154);
place = (623, 154);
type = Stem;
},
{
horizontal = 1;
place = (1400, -154);
place = (1400, -154);
type = Stem;
},
{
place = (729, 154);
place = (729, 154);
type = Stem;
},
{
horizontal = 1;
place = (0, 21);
target = up;
type = BottomGhost;
},
{
horizontal = 1;
place = (432, 154);
place = (432, 154);
type = Stem;
},
{
horizontal = 1;
place = (1399, 215);
place = (1399, 215);
type = Stem;
},
{
horizontal = 1;
origin = (0,14);
place = (1, 140);
type = Stem;
},
{
horizontal = 1;
place = (680, 140);
place = (680, 140);
type = Stem;
},
{
horizontal = 1;
place = (1400, 140);
place = (1400, 140);
type = Stem;
},
{
place = (998, 140);
place = (998, 140);
type = Stem;
}
);
layerId = "19911AB5-6E30-4B50-A0ED-4C0BC5D1DB49";
shapes = (
{
closed = 1;
nodes = (
(293,510,l),
(878,510,l),
(878,1,l),
(1790,1,l),
(1790,57,l),
(1062,57,l),
(1062,691,l),
(1608,691,l),
(1608,746,l),
(1062,746,l),
(1062,1343,l),
(1730,1343,l),
(1731,1399,l),
(526,1399,l),
(13,1,l),
(122,1,l)
);
},
{
closed = 1;
nodes = (
(600,1344,l),
(878,1344,l),
(878,566,l),
(314,566,l)
);
}
);
width = 1841;
}
);
metricLeft = A;
metricRight = E;
unicode = 198;
},
{
glyphname = B;
kernLeft = H;
kernRight = B;
lastChange = "2023-09-28 14:17:20 +0000";
layers = (
{
anchors = (
{
name = bottom;
pos = (669,0);
},
{
name = top;
pos = (687,1401);
}
);
hints = (
{
horizontal = 1;
place = (0, 125);
place = (0, 125);
type = Stem;
},
{
horizontal = 1;
place = (702, 123);
place = (702, 123);
type = Stem;
},
{
horizontal = 1;
place = (1360, 125);
place = (1360, 125);
type = Stem;
},
{
place = (120, 140);
place = (120, 140);
type = Stem;
},
{
place = (907, 129);
place = (907, 129);
type = Stem;
},
{
place = (821, 140);
place = (821, 140);
type = Stem;
}
);
layerId = m002;
shapes = (
{
closed = 1;
nodes = (
(734,0,ls),
(961,0,o),
(1148,172,o),
(1148,399,cs),
(1148,546,o),
(1069,688,o),
(955,762,c),
(1016,826,o),
(1070,939,o),
(1070,1054,cs),
(1070,1255,o),
(888,1401,o),
(687,1401,cs),
(208,1401,l),
(208,0,l)
);
},
{
closed = 1;
nodes = (
(388,707,l),
(694,707,ls),
(856,707,o),
(963,542,o),
(963,399,cs),
(963,274,o),
(884,84,o),
(646,84,cs),
(388,84,l)
);
},
{
closed = 1;
nodes = (
(388,1317,l),
(613,1317,ls),
(802,1317,o),
(910,1170,o),
(910,1054,cs),
(910,1005,o),
(893,791,o),
(695,791,cs),
(388,791,l)
);
}
);
width = 1261;
},
{
anchors = (
{
name = bottom;
pos = (647,0);
},
{
name = top;
pos = (665,1401);
}
);
hints = (
{
horizontal = 1;
place = (0, 125);
place = (0, 125);
type = Stem;
},
{
horizontal = 1;
place = (702, 123);
place = (702, 123);
type = Stem;
},
{
horizontal = 1;
place = (1360, 125);
place = (1360, 125);
type = Stem;
},
{
place = (120, 140);
place = (120, 140);
type = Stem;
},
{
place = (907, 129);
place = (907, 129);
type = Stem;
},
{
place = (821, 140);
place = (821, 140);
type = Stem;
}
);
layerId = "EA527B28-A18D-4603-BC3C-580F40CB1381";
shapes = (
{
closed = 1;
nodes = (
(710,0,ls),
(951,0,o),
(1149,177,o),
(1149,405,cs),
(1149,544,o),
(1079,677,o),
(961,761,c),
(1040,849,o),
(1073,957,o),
(1073,1046,cs),
(1073,1248,o),
(880,1400,o),
(665,1400,cs),
(161,1400,l),
(161,0,l)
);
},
{
closed = 1;
nodes = (
(406,692,l),
(671,692,ls),
(805,692,o),
(900,546,o),
(900,405,cs),
(900,282,o),
(829,112,o),
(624,112,cs),
(406,112,l)
);
},
{
closed = 1;
nodes = (
(406,1288,l),
(591,1288,ls),
(754,1288,o),
(848,1160,o),
(848,1046,cs),
(848,998,o),
(833,803,o),
(671,803,cs),
(406,803,l)
);
}
);
width = 1223;
},
{
anchors = (
{
name = bottom;
pos = (604,0);
},
{
name = top;
pos = (622,1401);
}
);
hints = (
{
horizontal = 1;
place = (0, 125);
place = (0, 125);
type = Stem;
},
{
horizontal = 1;
place = (702, 123);
place = (702, 123);
type = Stem;
},
{
horizontal = 1;
place = (1360, 125);
place = (1360, 125);
type = Stem;
},
{
place = (120, 140);
place = (120, 140);
type = Stem;
},
{
place = (907, 129);
place = (907, 129);
type = Stem;
},
{
place = (821, 140);
place = (821, 140);
type = Stem;
}
);
layerId = "19911AB5-6E30-4B50-A0ED-4C0BC5D1DB49";
shapes = (
{
closed = 1;
nodes = (
(670,0,ls),
(906,0,o),
(1093,172,o),
(1093,392,cs),
(1093,540,o),
(1012,682,o),
(881,759,c),
(955,828,o),
(1014,941,o),
(1014,1061,cs),
(1014,1254,o),
(832,1400,o),
(622,1400,cs),
(133,1400,l),
(133,0,l)
);
},
{
closed = 1;
nodes = (
(317,722,l),
(629,722,ls),
(792,722,o),
(904,547,o),
(904,392,cs),
(904,258,o),
(823,56,o),
(580,56,cs),
(317,56,l)
);
},
{
closed = 1;
nodes = (
(317,1344,l),
(547,1344,ls),
(738,1344,o),
(850,1191,o),
(850,1061,cs),
(850,1010,o),
(832,777,o),
(630,777,cs),
(317,777,l)
);
}
);
width = 1149;
}
);
unicode = 66;
},
{
glyphname = C;
kernLeft = O;
kernRight = C;
lastChange = "2023-09-28 12:47:03 +0000";
layers = (
{
anchors = (
{
name = bottom;
pos = (789,-28);
},
{
name = top;
pos = (789,1445);
}
);
hints = (
{
horizontal = 1;
place = (-26, 140);
place = (-26, 140);
type = Stem;
},
{
horizontal = 1;
place = (1426, 140);
place = (1426, 140);
type = Stem;
},
{
place = (80, 140);
place = (80, 140);
type = Stem;
}
);
layerId = m002;
shapes = (
{
closed = 1;
nodes = (
(1037,-30,o),
(1262,125,o),
(1376,370,c),
(1318,384,l),
(1231,197,o),
(1042,54,o),
(789,54,cs),
(513,54,o),
(302,387,o),
(302,699,cs),
(302,1012,o),
(513,1347,o),
(789,1347,cs),
(1025,1347,o),
(1166,1234,o),
(1230,1126,c),
(1299,1194,l),
(1204,1311,o),
(1037,1431,o),
(789,1431,cs),
(425,1431,o),
(117,1101,o),
(117,699,cs),
(117,298,o),
(425,-30,o),
(789,-30,cs)
);
}
);
width = 1470;
},
{
anchors = (
{
name = bottom;
pos = (773,-28);
},
{
name = top;
pos = (773,1445);
}
);
hints = (
{
horizontal = 1;
place = (-26, 140);
place = (-26, 140);
type = Stem;
},
{
horizontal = 1;
place = (1426, 140);
place = (1426, 140);
type = Stem;
},
{
place = (80, 140);
place = (80, 140);
type = Stem;
}
);
layerId = "EA527B28-A18D-4603-BC3C-580F40CB1381";
shapes = (
{
closed = 1;
nodes = (
(1039,-29,o),
(1275,138,o),
(1384,384,c),
(1265,412,l),
(1181,217,o),
(1009,82,o),
(773,82,cs),
(526,82,o),
(329,393,o),
(329,699,cs),
(329,1007,o),
(526,1319,o),
(773,1319,cs),
(984,1319,o),
(1138,1206,o),
(1216,1093,c),
(1306,1184,l),
(1219,1295,o),
(1040,1431,o),
(773,1431,cs),
(392,1431,o),
(80,1098,o),
(80,699,cs),
(80,302,o),
(393,-29,o),
(773,-29,cs)
);
}
);
width = 1443;
},
{
anchors = (
{
name = bottom;
pos = (730,-28);
},
{
name = top;
pos = (730,1445);
}
);
hints = (
{
horizontal = 1;
place = (-26, 140);
place = (-26, 140);
type = Stem;
},
{
horizontal = 1;
place = (1426, 140);
place = (1426, 140);
type = Stem;
},
{
place = (80, 140);
place = (80, 140);
type = Stem;
}
);
layerId = "19911AB5-6E30-4B50-A0ED-4C0BC5D1DB49";
shapes = (
{
closed = 1;
nodes = (
(980,-30,o),
(1204,120,o),
(1319,350,c),
(1266,362,l),
(1163,147,o),
(963,25,o),
(730,25,cs),
(454,25,o),
(234,370,o),
(234,698,cs),
(234,1025,o),
(454,1372,o),
(730,1372,cs),
(964,1372,o),
(1129,1249,o),
(1202,1147,c),
(1250,1193,l),
(1159,1305,o),
(987,1428,o),
(730,1428,cs),
(356,1428,o),
(47,1097,o),
(47,698,cs),
(47,300,o),
(356,-30,o),
(730,-30,cs)
);
}
);
width = 1356;
}
);
unicode = 67;
},
{
glyphname = D;
kernLeft = H;
kernRight = O;
lastChange = "2023-09-28 12:47:53 +0000";
layers = (
{
anchors = (
{
name = bottom;
pos = (627,0);
},
{
name = top;
pos = (627,1401);
}
);
hints = (
{
horizontal = 1;
place = (0, 140);
place = (0, 140);
type = Stem;
},
{
horizontal = 1;
place = (1400, 140);
place = (1400, 140);
type = Stem;
},
{
place = (120, 140);
place = (120, 140);
type = Stem;
},
{
place = (1143, 140);
place = (1143, 140);
type = Stem;
}
);
layerId = m002;
shapes = (
{
closed = 1;
nodes = (
(627,0,ls),
(990,0,o),
(1259,288,o),
(1259,700,cs),
(1259,1039,o),
(1082,1401,o),
(627,1401,cs),
(208,1401,l),
(208,0,l)
);
},
{
closed = 1;
nodes = (
(388,1317,l),
(627,1317,ls),
(925,1317,o),
(1074,1052,o),
(1074,701,cs),
(1074,374,o),
(903,84,o),
(627,84,cs),
(388,84,l)
);
}
);
width = 1380;
},
{
anchors = (
{
name = bottom;
pos = (605,0);
},
{
name = top;
pos = (605,1401);
}
);
hints = (
{
horizontal = 1;
place = (0, 140);
place = (0, 140);
type = Stem;
},
{
horizontal = 1;
place = (1400, 140);
place = (1400, 140);
type = Stem;
},
{
place = (120, 140);
place = (120, 140);
type = Stem;
},
{
place = (1143, 140);
place = (1143, 140);
type = Stem;
}
);
layerId = "EA527B28-A18D-4603-BC3C-580F40CB1381";
shapes = (
{
closed = 1;
nodes = (
(607,0,ls),
(981,0,o),
(1259,287,o),
(1259,700,cs),
(1259,1033,o),
(1080,1400,o),
(607,1400,cs),
(163,1400,l),
(163,0,l)
);
},
{
closed = 1;
nodes = (
(407,1288,l),
(607,1288,ls),
(872,1288,o),
(1009,1045,o),
(1009,700,cs),
(1009,380,o),
(851,112,o),
(607,112,cs),
(407,112,l)
);
}
);
width = 1341;
},
{
anchors = (
{
name = bottom;
pos = (562,0);
},
{
name = top;
pos = (562,1401);
}
);
hints = (
{
horizontal = 1;
place = (0, 140);
place = (0, 140);
type = Stem;
},
{
horizontal = 1;
place = (1400, 140);
place = (1400, 140);
type = Stem;
},
{
place = (120, 140);
place = (120, 140);
type = Stem;
},
{
place = (1143, 140);
place = (1143, 140);
type = Stem;
}
);
layerId = "19911AB5-6E30-4B50-A0ED-4C0BC5D1DB49";
shapes = (
{
closed = 1;
nodes = (
(560,0,ls),
(935,0,o),
(1206,289,o),
(1206,699,cs),
(1206,1038,o),
(1029,1400,o),
(560,1400,cs),
(133,1400,l),
(133,0,l)
);
},
{
closed = 1;
nodes = (
(317,1344,l),
(560,1344,ls),
(861,1344,o),
(1017,1066,o),
(1017,701,cs),
(1017,359,o),
(838,56,o),
(560,56,cs),
(317,56,l)
);
}
);
width = 1267;
}
);
unicode = 68;
},
{
glyphname = Eth;
kernLeft = H;
kernRight = O;
lastChange = "2023-09-28 12:48:04 +0000";
layers = (
{
hints = (
{
horizontal = 1;
place = (0, 140);
place = (0, 140);
type = Stem;
},
{
horizontal = 1;
origin = (1,3);
target = (0,2);
type = Stem;
},
{
horizontal = 1;
place = (1400, -140);
place = (1400, -140);
type = Stem;
},
{
origin = (1,3);
place = (129, 273);
type = Stem;
},
{
place = (1255, 140);
place = (1255, 140);
type = Stem;
}
);
layerId = m002;
shapes = (
{
closed = 1;
nodes = (
(806,665,l),
(806,749,l),
(188,749,l),
(188,665,l)
);
},
{
pos = (208,0);
ref = D;
}
);
width = 1588;
},
{
hints = (
{
horizontal = 1;
place = (0, 140);
place = (0, 140);
type = Stem;
},
{
horizontal = 1;
origin = (0,0);
target = (0,3);
type = Stem;
},
{
horizontal = 1;
place = (1400, -140);
place = (1400, -140);
type = Stem;
},
{
origin = (0,0);
place = (831, 273);
type = Stem;
},
{
place = (1255, 140);
place = (1255, 140);
type = Stem;
}
);
layerId = "EA527B28-A18D-4603-BC3C-580F40CB1381";
shapes = (
{
closed = 1;
nodes = (
(831,650,l),
(831,764,l),
(143,764,l),
(143,650,l)
);
},
{
pos = (198,0);
ref = D;
}
);
width = 1539;
},
{
hints = (
{
horizontal = 1;
place = (0, 140);
place = (0, 140);
type = Stem;
},
{
horizontal = 1;
origin = (0,0);
target = (0,3);
type = Stem;
},
{
horizontal = 1;
place = (1400, -140);
place = (1400, -140);
type = Stem;
},
{
origin = (0,0);
place = (731, 273);
type = Stem;
},
{
place = (1255, 140);
place = (1255, 140);
type = Stem;
}
);
layerId = "19911AB5-6E30-4B50-A0ED-4C0BC5D1DB49";
shapes = (
{
closed = 1;
nodes = (
(731,680,l),
(731,734,l),
(113,734,l),
(113,680,l)
);
},
{
pos = (133,0);
ref = D;
}
);
width = 1400;
}
);
metricLeft = "=D-20";
metricRight = D;
unicode = 208;
},
{
glyphname = E;
kernLeft = H;
lastChange = "2023-09-28 14:18:10 +0000";
layers = (
{
anchors = (
{
name = bottom;
pos = (703,0);
},
{
name = ogonek;
pos = (1079,0);
},
{
name = top;
pos = (656,1400);
},
{
name = topleft;
pos = (234,1399);
}
);
hints = (
{
horizontal = 1;
place = (0, 140);
place = (0, 140);
type = Stem;
},
{
horizontal = 1;
origin = (0,3);
place = (676, 140);
type = Stem;
},
{
horizontal = 1;
place = (1400, 140);
place = (1400, 140);
type = Stem;
},
{
place = (120, 140);
place = (120, 140);
type = Stem;
}
);
layerId = m002;
shapes = (
{
closed = 1;
nodes = (
(1102,0,l),
(1102,84,l),
(389,84,l),
(389,676,l),
(924,676,l),
(924,760,l),
(389,760,l),
(389,1316,l),
(1045,1316,l),
(1045,1400,l),
(209,1400,l),
(209,0,l)
);
}
);
width = 1188;
},
{
anchors = (
{
name = bottom;
pos = (681,0);
},
{
name = ogonek;
pos = (1057,0);
},
{
name = top;
pos = (634,1400);
},
{
name = topleft;
pos = (212,1399);
}
);
hints = (
{
horizontal = 1;
place = (0, 140);
place = (0, 140);
type = Stem;
},
{
horizontal = 1;
place = (680, 140);
place = (680, 140);
type = Stem;
},
{
horizontal = 1;
place = (1400, 140);
place = (1400, 140);
type = Stem;
},
{
place = (120, 140);
place = (120, 140);
type = Stem;
}
);
layerId = "EA527B28-A18D-4603-BC3C-580F40CB1381";
shapes = (
{
closed = 1;
nodes = (
(1105,0,l),
(1105,112,l),
(406,112,l),
(406,662,l),
(929,662,l),
(929,774,l),
(406,774,l),
(406,1288,l),
(1048,1288,l),
(1048,1400,l),
(162,1400,l),
(162,0,l)
);
}
);
width = 1156;
},
{
anchors = (
{
name = bottom;
pos = (638,0);
},
{
name = ogonek;
pos = (1014,0);
},
{
name = top;
pos = (591,1400);
},
{
name = topleft;
pos = (169,1399);
}
);
hints = (
{
horizontal = 1;
place = (0, 140);
place = (0, 140);
type = Stem;
},
{
horizontal = 1;
place = (680, 140);
place = (680, 140);
type = Stem;
},
{
horizontal = 1;
place = (1400, 140);
place = (1400, 140);
type = Stem;
},
{
place = (120, 140);
place = (120, 140);
type = Stem;
}
);
layerId = "19911AB5-6E30-4B50-A0ED-4C0BC5D1DB49";
shapes = (
{
closed = 1;
nodes = (
(1046,2,l),
(1046,55,l),
(318,55,l),
(318,691,l),
(866,691,l),
(866,746,l),
(318,746,l),
(318,1345,l),
(989,1345,l),
(989,1399,l),
(134,1400,l),
(134,0,l)
);
}
);
width = 1097;
}
);
unicode = 69;
},
{
glyphname = Schwa;
lastChange = "2023-09-26 11:23:27 +0000";
layers = (
{
anchors = (
{
name = bottom;
pos = (587,-62);
},
{
name = bottomleft;
pos = (138.866,-34);
},
{
name = center;
pos = (587,466);
},
{
name = ogonek;
pos = (571,996);
},
{
name = top;
pos = (565,996);
}
);
hints = (
{
horizontal = 1;
place = (992, -84);
place = (992, -84);
type = Stem;
},
{
horizontal = 1;
place = (535, -158);
place = (535, -158);
type = Stem;
},
{
horizontal = 1;
place = (-62, -84);
place = (-62, -84);
type = Stem;
},
{
place = (974, 0);
place = (974, 0);
type = Stem;
},
{
place = (267, -186);
place = (267, -186);
type = Stem;
},
{
horizontal = 1;
origin = (0,9);
target = (1,3);
type = Stem;
},
{
horizontal = 1;
origin = (0,8);
target = (0,16);
type = Stem;
},
{
origin = (0,11);
target = (0,17);
type = Stem;
},
{
origin = (1,3);
target = (0,5);
type = Stem;
}
);
layerId = m002;
shapes = (
{
closed = 1;
nodes = (
(904,-30,o),
(1174,290,o),
(1174,686,cs),
(1174,1079,o),
(938,1359,o),
(614,1399,cs),
(424,1422,o),
(121,1382,o),
(16,1063,c),
(100,1063,l),
(177,1294,o),
(457,1357,o),
(581,1315,cs),
(785,1245,o),
(959,1019,o),
(985,756,c),
(4,755,l),
(4,641,l),
(24,268,o),
(268,-30,o),
(573,-30,cs)
);
},
{
closed = 1;
nodes = (
(320,54,o),
(168,401,o),
(189,641,c),
(988,642,l),
(973,367,o),
(823,54,o),
(573,54,cs)
);
}
);
width = 1176;
},
{
anchors = (
{
name = bottom;
pos = (593,-62);
},
{
name = bottomleft;
pos = (145,-34);
},
{
name = center;
pos = (593,466);
},
{
name = ogonek;
pos = (577,996);
},
{
name = top;
pos = (571,996);
}
);
hints = (
{
horizontal = 1;
place = (992, -84);
place = (992, -84);
type = Stem;
},
{
horizontal = 1;
place = (535, -158);
place = (535, -158);
type = Stem;
},
{
horizontal = 1;
place = (-62, -84);
place = (-62, -84);
type = Stem;
},
{
place = (974, 0);
place = (974, 0);
type = Stem;
},
{
place = (267, -186);
place = (267, -186);
type = Stem;
},
{
horizontal = 1;
origin = (0,9);
target = (1,3);
type = Stem;
},
{
horizontal = 1;
origin = (0,8);
target = (0,16);
type = Stem;
},
{
origin = (0,11);
target = (0,17);
type = Stem;
},
{
origin = (1,3);
target = (0,5);
type = Stem;
}
);
layerId = "EA527B28-A18D-4603-BC3C-580F40CB1381";
shapes = (
{
closed = 1;
nodes = (
(935,-30,o),
(1214,299,o),
(1214,700,cs),
(1214,1097,o),
(972,1384,o),
(624,1426,cs),
(426,1451,o),
(84,1404,o),
(-16,1061,c),
(137,1061,l),
(209,1296,o),
(459,1354,o),
(576,1314,cs),
(758,1251,o),
(923,1041,o),
(954,785,c),
(-24,784,l),
(-24,655,l),
(-4,279,o),
(248,-30,o),
(579,-30,cs)
);
},
{
closed = 1;
nodes = (
(359,84,o),
(216,402,o),
(230,640,c),
(957,641,l),
(939,369,o),
(797,84,o),
(579,84,cs)
);
}
);
width = 1189;
},
{
anchors = (
{
name = bottom;
pos = (641,-62);
},
{
name = bottomleft;
pos = (193,-34);
},
{
name = center;
pos = (641,466);
},
{
name = ogonek;
pos = (625,996);
},
{
name = top;
pos = (619,996);
}
);
hints = (
{
horizontal = 1;
place = (992, -84);
place = (992, -84);
type = Stem;
},
{
horizontal = 1;
place = (535, -158);
place = (535, -158);
type = Stem;
},
{
horizontal = 1;
place = (-62, -84);
place = (-62, -84);
type = Stem;
},
{
place = (974, 0);
place = (974, 0);
type = Stem;
},
{
place = (267, -186);
place = (267, -186);
type = Stem;
},
{
horizontal = 1;
origin = (0,9);
target = (1,3);
type = Stem;
},
{
horizontal = 1;
origin = (0,8);
target = (0,16);
type = Stem;
},
{
origin = (0,11);
target = (0,17);
type = Stem;
},
{
origin = (1,3);
target = (0,5);
type = Stem;
}
);
layerId = "19911AB5-6E30-4B50-A0ED-4C0BC5D1DB49";
shapes = (
{
closed = 1;
nodes = (
(974,-29,o),
(1251,298,o),
(1251,699,cs),
(1251,1097,o),
(1011,1382,o),
(669,1424,cs),
(475,1448,o),
(186,1404,o),
(73,1102,c),
(158,1102,l),
(247,1348,o),
(517,1378,o),
(651,1353,cs),
(870,1312,o),
(1034,1046,o),
(1055,756,c),
(35,755,l),
(35,652,l),
(56,275,o),
(305,-29,o),
(627,-29,cs)
);
},
{
closed = 1;
nodes = (
(362,27,o),
(200,411,o),
(229,667,c),
(1058,668,l),
(1047,372,o),
(887,27,o),
(627,27,cs)
);
}
);
width = 1288;
}
);
unicode = 399;
},
{
glyphname = F;
kernLeft = H;
lastChange = "2023-09-28 12:49:14 +0000";
layers = (
{
anchors = (
{
name = bottom;
pos = (659,0);
},
{
name = top;
pos = (659,1400);
}
);
hints = (
{
horizontal = 1;
place = (0, 21);
target = up;
type = BottomGhost;
},
{
horizontal = 1;
place = (680, 140);
place = (680, 140);
type = Stem;
},
{
horizontal = 1;
place = (1400, 140);
place = (1400, 140);
type = Stem;
},
{
place = (120, 140);
place = (120, 140);
type = Stem;
}
);
layerId = m002;
shapes = (
{
closed = 1;
nodes = (
(388,0,l),
(388,645,l),
(908,645,l),
(908,729,l),
(388,729,l),
(388,1316,l),
(1061,1316,l),
(1061,1400,l),
(208,1400,l),
(208,0,l)
);
}
);
width = 1135;
},
{
anchors = (
{
name = bottom;
pos = (637,0);
},
{
name = top;
pos = (637,1400);
}
);
hints = (
{
horizontal = 1;
place = (0, 21);
target = up;
type = BottomGhost;
},
{
horizontal = 1;
place = (680, 140);
place = (680, 140);
type = Stem;
},
{
horizontal = 1;
place = (1400, 140);
place = (1400, 140);
type = Stem;
},
{
place = (120, 140);
place = (120, 140);
type = Stem;
}
);
layerId = "EA527B28-A18D-4603-BC3C-580F40CB1381";
shapes = (
{
closed = 1;
nodes = (
(400,0,l),
(400,631,l),
(908,631,l),
(908,743,l),
(400,743,l),
(400,1288,l),
(1059,1288,l),
(1059,1400,l),
(155,1400,l),
(155,0,l)
);
}
);
width = 1105;
},
{
anchors = (
{
name = bottom;
pos = (593,0);
},
{
name = top;
pos = (593,1400);
}
);
hints = (
{
horizontal = 1;
place = (0, 21);
target = up;
type = BottomGhost;
},
{
horizontal = 1;
place = (680, 140);
place = (680, 140);
type = Stem;
},
{
horizontal = 1;
place = (1400, 140);
place = (1400, 140);
type = Stem;
},
{
place = (120, 140);
place = (120, 140);
type = Stem;
}
);
layerId = "19911AB5-6E30-4B50-A0ED-4C0BC5D1DB49";
shapes = (
{
closed = 1;
nodes = (
(317,0,l),
(317,659,l),
(848,659,l),
(848,715,l),
(317,715,l),
(317,1344,l),
(1004,1344,l),
(1004,1400,l),
(133,1400,l),
(133,0,l)
);
}
);
width = 1040;
}
);
unicode = 70;
},
{
glyphname = G;
kernLeft = O;
kernRight = O;
lastChange = "2023-09-28 12:50:38 +0000";
layers = (
{
anchors = (
{
name = bottom;
pos = (770,-25);
},
{
name = top;
pos = (786,1428);
}
);
hints = (
{
horizontal = 1;
place = (-25, 155);
place = (-25, 155);
type = Stem;
},
{
horizontal = 1;
place = (619, 153);
place = (619, 153);
type = Stem;
},
{
horizontal = 1;
place = (1270, 160);
place = (1270, 160);
type = Stem;
},
{
place = (105, 155);
place = (105, 155);
type = Stem;
}
);
layerId = m002;
shapes = (
{
closed = 1;
nodes = (
(1385,0,l),
(1385,538,l),
(1205,538,l),
(1205,0,l)
);
},
{
pos = (8,0);
ref = C;
}
);
width = 1512;
},
{
anchors = (
{
name = bottom;
pos = (768,-25);
},
{
name = top;
pos = (784,1428);
}
);
hints = (
{
horizontal = 1;
place = (-25, 155);
place = (-25, 155);
type = Stem;
},
{
horizontal = 1;
place = (619, 153);
place = (619, 153);
type = Stem;
},
{
horizontal = 1;
place = (1270, 160);
place = (1270, 160);
type = Stem;
},
{
place = (105, 155);
place = (105, 155);
type = Stem;
}
);
layerId = "EA527B28-A18D-4603-BC3C-580F40CB1381";
shapes = (
{
closed = 1;
nodes = (
(1394,-2,l),
(1394,566,l),
(1144,566,l),
(1144,-2,l)
);
},
{
pos = (6,0);
ref = C;
}
);
width = 1492;
},
{
anchors = (
{
name = bottom;
pos = (736,-25);
},
{
name = top;
pos = (752,1428);
}
);
hints = (
{
horizontal = 1;
place = (-25, 155);
place = (-25, 155);
type = Stem;
},
{
horizontal = 1;
place = (619, 153);
place = (619, 153);
type = Stem;
},
{
horizontal = 1;
place = (1270, 160);
place = (1270, 160);
type = Stem;
},
{
place = (105, 155);
place = (105, 155);
type = Stem;
}
);
layerId = "19911AB5-6E30-4B50-A0ED-4C0BC5D1DB49";
shapes = (
{
closed = 1;
nodes = (
(1298,-2,l),
(1298,506,l),
(1118,506,l),
(1118,-2,l)
);
},
{
pos = (-26,0);
ref = C;
}
);
width = 1418;
}
);
metricLeft = O;
unicode = 71;
},
{
glyphname = H;
kernLeft = H;
kernRight = H;
lastChange = "2023-09-28 12:51:08 +0000";
layers = (
{
anchors = (
{
name = bottom;
pos = (728,0);
},
{
name = center;
pos = (728,750);
},
{
name = top;
pos = (728,1400);
},
{
name = topleft;
pos = (221,1400);
}
);
hints = (
{
horizontal = 1;
origin = (0,11);
target = up;
type = BottomGhost;
},
{
horizontal = 1;
origin = (0,1);
target = (0,8);
type = Stem;
},
{
horizontal = 1;
origin = (0,10);
target = down;
type = TopGhost;
},
{
origin = (0,11);
target = (0,0);
type = Stem;
},
{
origin = (0,3);
target = (0,4);
type = Stem;
}
);
layerId = m002;
shapes = (
{
closed = 1;
nodes = (
(389,0,l),
(389,687,l),
(1069,687,l),
(1069,0,l),
(1249,0,l),
(1249,1400,l),
(1069,1400,l),
(1069,771,l),
(388,771,l),
(388,1400,l),
(208,1400,l),
(208,0,l)
);
}
);
width = 1458;
},
{
anchors = (
{
name = bottom;
pos = (706,0);
},
{
name = center;
pos = (706,750);
},
{
name = top;
pos = (706,1400);
},
{
name = topleft;
pos = (199,1400);
}
);
hints = (
{
horizontal = 1;
origin = (0,11);
target = up;
type = BottomGhost;
},
{
horizontal = 1;
origin = (0,1);
target = (0,8);
type = Stem;
},
{
horizontal = 1;
origin = (0,10);
target = down;
type = TopGhost;
},
{
origin = (0,11);
target = (0,0);
type = Stem;
},
{
origin = (0,3);
target = (0,4);
type = Stem;
}
);
layerId = "EA527B28-A18D-4603-BC3C-580F40CB1381";
shapes = (
{
closed = 1;
nodes = (
(408,0,l),
(408,673,l),
(1006,673,l),
(1006,0,l),
(1250,0,l),
(1250,1400,l),
(1006,1400,l),
(1006,785,l),
(407,785,l),
(407,1400,l),
(163,1400,l),
(163,0,l)
);
}
);
width = 1414;
},
{
anchors = (
{
name = bottom;
pos = (664,0);
},
{
name = center;
pos = (664,750);
},
{
name = top;
pos = (664,1400);
},
{
name = topleft;
pos = (157,1400);
}
);
hints = (
{
horizontal = 1;
origin = (0,11);
target = up;
type = BottomGhost;
},
{
horizontal = 1;
origin = (0,1);
target = (0,8);
type = Stem;
},
{
horizontal = 1;
origin = (0,10);
target = down;
type = TopGhost;
},
{
origin = (0,11);
target = (0,0);
type = Stem;
},
{
origin = (0,3);
target = (0,4);
type = Stem;
}
);
layerId = "19911AB5-6E30-4B50-A0ED-4C0BC5D1DB49";
shapes = (
{
closed = 1;
nodes = (
(317,0,l),
(317,703,l),
(1012,703,l),
(1012,0,l),
(1196,0,l),
(1196,1400,l),
(1012,1400,l),
(1012,757,l),
(316,757,l),
(316,1400,l),
(132,1400,l),
(132,0,l)
);
}
);
width = 1330;
}
);
unicode = 72;
},
{
glyphname = Hbar;
lastChange = "2023-09-26 11:23:27 +0000";
layers = (
{
layerId = m002;
shapes = (
{
closed = 1;
nodes = (
(1433,961,l),
(1433,1045,l),
(45,1045,l),
(45,961,l)
);
},
{
pos = (10,0);
ref = H;
}
);
width = 1458;
},
{
layerId = "EA527B28-A18D-4603-BC3C-580F40CB1381";
shapes = (
{
closed = 1;
nodes = (
(1466,946,l),
(1466,1060,l),
(8,1060,l),
(8,946,l)
);
},
{
pos = (31,0);
ref = H;
}
);
width = 1474;
},
{
layerId = "19911AB5-6E30-4B50-A0ED-4C0BC5D1DB49";
shapes = (
{
closed = 1;
nodes = (
(1426,976,l),
(1426,1030,l),
(38,1030,l),
(38,976,l)
);
},
{
pos = (3,0);
ref = H;
}
);
width = 1464;
}
);
unicode = 294;
},
{
glyphname = I;
kernLeft = I;
kernRight = I;
lastChange = "2023-09-28 12:51:26 +0000";
layers = (
{
anchors = (
{
name = bottom;
pos = (290,0);
},
{
name = ogonek;
pos = (367,0);
},
{
name = top;
pos = (290,1400);
},
{
name = topleft;
pos = (213,1400);
}
);
hints = (
{
horizontal = 1;
origin = (0,3);
target = up;
type = BottomGhost;
},
{
horizontal = 1;
origin = (0,2);
target = down;
type = TopGhost;
},
{
origin = (0,3);
target = (0,0);
type = Stem;
}
);
layerId = m002;
shapes = (
{
closed = 1;
nodes = (
(380,0,l),
(380,1400,l),
(200,1400,l),
(200,0,l)
);
}
);
width = 589;
},
{
anchors = (
{
name = bottom;
pos = (207,0);
},
{
name = ogonek;
pos = (284,0);
},
{
name = top;
pos = (207,1400);
},
{
name = topleft;
pos = (130,1400);
}
);
hints = (
{
horizontal = 1;
origin = (0,3);
target = up;
type = BottomGhost;
},
{
horizontal = 1;
origin = (0,2);
target = down;
type = TopGhost;
},
{
origin = (0,3);
target = (0,0);
type = Stem;
}
);
layerId = "EA527B28-A18D-4603-BC3C-580F40CB1381";
shapes = (
{
closed = 1;
nodes = (
(330,0,l),
(330,1400,l),
(90,1400,l),
(90,0,l)
);
}
);
width = 484;
},
{
anchors = (
{
name = bottom;
pos = (192,0);
},
{
name = ogonek;
pos = (269,0);
},
{
name = top;
pos = (192,1400);
},
{
name = topleft;
pos = (115,1400);
}
);
hints = (
{
horizontal = 1;
origin = (0,3);
target = up;
type = BottomGhost;
},
{
horizontal = 1;
origin = (0,2);
target = down;
type = TopGhost;
},
{
origin = (0,3);
target = (0,0);
type = Stem;
}
);
layerId = "19911AB5-6E30-4B50-A0ED-4C0BC5D1DB49";
shapes = (
{
closed = 1;
nodes = (
(284,0,l),
(284,1400,l),
(100,1400,l),
(100,0,l)
);
}
);
width = 417;
}
);
unicode = 73;
},
{
glyphname = J;
kernLeft = J;
kernRight = H;
lastChange = "2023-10-02 11:37:58 +0000";
layers = (
{
anchors = (
{
name = bottom;
pos = (591,0);
},
{
name = top;
pos = (620,1400);
}
);
hints = (
{
horizontal = 1;
place = (-26, 140);
place = (-26, 140);
type = Stem;
},
{
horizontal = 1;
place = (1400, -20);
target = down;
type = TopGhost;
},
{
place = (543, 140);
place = (543, 140);
type = Stem;
}
);
layerId = m002;
shapes = (
{
closed = 1;
nodes = (
(626,-61,o),
(721,189,o),
(721,398,cs),
(721,1400,l),
(541,1400,l),
(541,398,ls),
(541,189,o),
(549,-39,o),
(84,177,c),
(84,-3,l),
(329,-29,ls)
);
}
);
width = 908;
},
{
anchors = (
{
name = bottom;
pos = (567,0);
},
{
name = top;
pos = (596,1400);
}
);
hints = (
{
horizontal = 1;
place = (-26, 140);
place = (-26, 140);
type = Stem;
},
{
horizontal = 1;
place = (1400, -20);
target = down;
type = TopGhost;
},
{
place = (543, 140);
place = (543, 140);
type = Stem;
}
);
layerId = "EA527B28-A18D-4603-BC3C-580F40CB1381";
shapes = (
{
closed = 1;
nodes = (
(583,-62,o),
(731,119,o),
(731,388,cs),
(731,1400,l),
(487,1400,l),
(487,388,ls),
(487,183,o),
(489,0,o),
(49,221,c),
(49,-5,l),
(265,-28,ls)
);
}
);
width = 840;
},
{
anchors = (
{
name = bottom;
pos = (540,0);
},
{
name = top;
pos = (569,1400);
}
);
hints = (
{
horizontal = 1;
place = (-26, 140);
place = (-26, 140);
type = Stem;
},
{
horizontal = 1;
place = (1400, -20);
target = down;
type = TopGhost;
},
{
place = (543, 140);
place = (543, 140);
type = Stem;
}
);
layerId = "19911AB5-6E30-4B50-A0ED-4C0BC5D1DB49";
shapes = (
{
closed = 1;
nodes = (
(573,-56,o),
(667,201,o),
(667,407,cs),
(667,1400,l),
(483,1400,l),
(483,407,ls),
(483,141,o),
(476,-28,o),
(40,163,c),
(40,0,l),
(280,-25,ls)
);
}
);
width = 756;
}
);
unicode = 74;
},
{
glyphname = K;
kernLeft = H;
kernRight = K;
lastChange = "2023-10-02 11:29:20 +0000";
layers = (
{
anchors = (
{
name = bottom;
pos = (668,0);
},
{
name = top;
pos = (639,1400);
}
);
hints = (
{
horizontal = 1;
place = (0, 21);
target = up;
type = BottomGhost;
},
{
horizontal = 1;
place = (1400, -20);
target = down;
type = TopGhost;
},
{
place = (120, 140);
place = (120, 140);
type = Stem;
},
{
horizontal = 1;
place = (0, 21);
target = up;
type = BottomGhost;
},
{
horizontal = 1;
place = (1000, -20);
target = down;
type = TopGhost;
},
{
place = (189, 140);
place = (189, 140);
type = Stem;
},
{
horizontal = 1;
place = (0, 21);
target = up;
type = BottomGhost;
},
{
horizontal = 1;
place = (1000, -20);
target = down;
type = TopGhost;
},
{
place = (189, 140);
place = (189, 140);
type = Stem;
}
);
layerId = m002;
shapes = (
{
closed = 1;
nodes = (
(389,0,l),
(388,520,l),
(596,714,l),
(1027,0,l),
(1267,0,l),
(728,846,l),
(1194,1400,l),
(1092,1400,l),
(683,900,l),
(388,620,l),
(389,1400,l),
(209,1400,l),
(209,0,l)
);
}
);
width = 1333;
},
{
anchors = (
{
name = bottom;
pos = (646,0);
},
{
name = top;
pos = (617,1400);
}
);
hints = (
{
horizontal = 1;
place = (0, 21);
target = up;
type = BottomGhost;
},
{
horizontal = 1;
place = (1400, -20);
target = down;
type = TopGhost;
},
{
place = (120, 140);
place = (120, 140);
type = Stem;
},
{
horizontal = 1;
place = (0, 21);
target = up;
type = BottomGhost;
},
{
horizontal = 1;
place = (1000, -20);
target = down;
type = TopGhost;
},
{
place = (189, 140);
place = (189, 140);
type = Stem;
},
{
horizontal = 1;
place = (0, 21);
target = up;
type = BottomGhost;
},
{
horizontal = 1;
place = (1000, -20);
target = down;
type = TopGhost;
},
{
place = (189, 140);
place = (189, 140);
type = Stem;
}
);
layerId = "EA527B28-A18D-4603-BC3C-580F40CB1381";
shapes = (
{
closed = 1;
nodes = (
(408,0,l),
(408,522,l),
(566,673,l),
(973,0,l),
(1277,0,l),
(738,843,l),
(1207,1400,l),
(1084,1400,l),
(630,898,l),
(408,688,l),
(408,1400,l),
(164,1400,l),
(164,0,l)
);
}
);
width = 1307;
},
{
anchors = (
{
name = bottom;
pos = (603,0);
},
{
name = top;
pos = (574,1400);
}
);
hints = (
{
horizontal = 1;
place = (0, 21);
target = up;
type = BottomGhost;
},
{
horizontal = 1;
place = (1400, -20);
target = down;
type = TopGhost;
},
{
place = (120, 140);
place = (120, 140);
type = Stem;
},
{
horizontal = 1;
place = (0, 21);
target = up;
type = BottomGhost;
},
{
horizontal = 1;
place = (1000, -20);
target = down;
type = TopGhost;
},
{
place = (189, 140);
place = (189, 140);
type = Stem;
},
{
horizontal = 1;
place = (0, 21);
target = up;
type = BottomGhost;
},
{
horizontal = 1;
place = (1000, -20);
target = down;
type = TopGhost;
},
{
place = (189, 140);
place = (189, 140);
type = Stem;
}
);
layerId = "19911AB5-6E30-4B50-A0ED-4C0BC5D1DB49";
shapes = (
{
closed = 1;
nodes = (
(317,0,l),
(317,528,l),
(527,725,l),
(965,0,l),
(1199,0,l),
(657,851,l),
(1118,1400,l),
(1042,1400,l),
(612,890,l),
(317,608,l),
(317,1400,l),
(133,1400,l),
(133,0,l)
);
}
);
width = 1232;
}
);
unicode = 75;
},
{
glyphname = L;
kernLeft = H;
kernRight = L;
lastChange = "2023-10-02 11:54:54 +0000";
layers = (
{
anchors = (
{
name = bottom;
pos = (605,0);
},
{
name = center;
pos = (595,700);
},
{
name = top;
pos = (862,1000);
},
{
name = topright;
pos = (855,1000);
}
);
hints = (
{
horizontal = 1;
origin = (0,5);
target = (0,2);
type = Stem;
},
{
horizontal = 1;
origin = (0,4);
target = down;
type = TopGhost;
},
{
origin = (0,5);
target = (0,2);
type = Stem;
}
);
layerId = m002;
shapes = (
{
closed = 1;
nodes = (
(996,0,l),
(996,84,l),
(380,84,l),
(380,1400,l),
(200,1400,l),
(200,0,l)
);
}
);
width = 1070;
},
{
anchors = (
{
name = bottom;
pos = (522,0);
},
{
name = center;
pos = (512,700);
},
{
name = top;
pos = (779,1000);
},
{
name = topright;
pos = (772,1000);
}
);
hints = (
{
horizontal = 1;
origin = (0,5);
target = (0,2);
type = Stem;
},
{
horizontal = 1;
origin = (0,4);
target = down;
type = TopGhost;
},
{
origin = (0,5);
target = (0,2);
type = Stem;
}
);
layerId = "EA527B28-A18D-4603-BC3C-580F40CB1381";
shapes = (
{
closed = 1;
nodes = (
(938,0,l),
(938,112,l),
(336,112,l),
(336,1400,l),
(90,1400,l),
(90,0,l)
);
}
);
width = 979;
},
{
anchors = (
{
name = bottom;
pos = (514,0);
},
{
name = center;
pos = (504,700);
},
{
name = top;
pos = (771,1000);
},
{
name = topright;
pos = (764,1000);
}
);
hints = (
{
horizontal = 1;
origin = (0,5);
target = (0,2);
type = Stem;
},
{
horizontal = 1;
origin = (0,4);
target = down;
type = TopGhost;
},
{
origin = (0,5);
target = (0,2);
type = Stem;
}
);
layerId = "19911AB5-6E30-4B50-A0ED-4C0BC5D1DB49";
shapes = (
{
closed = 1;
nodes = (
(914,0,l),
(914,56,l),
(284,56,l),
(284,1400,l),
(100,1400,l),
(100,0,l)
);
}
);
width = 950;
}
);
metricLeft = I;
unicode = 76;
},
{
glyphname = Lslash;
lastChange = "2023-09-26 11:23:27 +0000";
layers = (
{
layerId = m002;
shapes = (
{
closed = 1;
nodes = (
(828,916,l),
(828,1000,l),
(0,807,l),
(0,723,l)
);
},
{
pos = (3,0);
ref = L;
}
);
width = 1081;
},
{
layerId = "EA527B28-A18D-4603-BC3C-580F40CB1381";
shapes = (
{
closed = 1;
nodes = (
(898,908,l),
(898,1025,l),
(0,815,l),
(0,698,l)
);
},
{
pos = (86,0);
ref = L;
}
);
width = 1104;
},
{
layerId = "19911AB5-6E30-4B50-A0ED-4C0BC5D1DB49";
shapes = (
{
closed = 1;
nodes = (
(830,858,l),
(828,957,l),
(0,764,l),
(2,665,l)
);
},
{
pos = (143,0);
ref = L;
}
);
width = 1163;
}
);
unicode = 321;
},
{
glyphname = M;
kernLeft = H;
kernRight = H;
lastChange = "2023-10-02 11:38:48 +0000";
layers = (
{
anchors = (
{
name = bottom;
pos = (784,0);
},
{
name = top;
pos = (784,1400);
}
);
hints = (
{
horizontal = 1;
place = (0, 21);
target = up;
type = BottomGhost;
},
{
horizontal = 1;
place = (1400, -20);
target = down;
type = TopGhost;
}
);
layerId = m002;
shapes = (
{
closed = 1;
nodes = (
(292,0,l),
(292,1076,l),
(760,0,l),
(812,0,l),
(1231,1076,l),
(1231,0,l),
(1411,0,l),
(1411,1400,l),
(1231,1400,l),
(830,315,l),
(381,1400,l),
(208,1400,l),
(208,0,l)
);
}
);
width = 1620;
},
{
anchors = (
{
name = bottom;
pos = (702,0);
},
{
name = top;
pos = (702,1400);
}
);
hints = (
{
horizontal = 1;
place = (0, 21);
target = up;
type = BottomGhost;
},
{
horizontal = 1;
place = (1400, -20);
target = down;
type = TopGhost;
}
);
layerId = "EA527B28-A18D-4603-BC3C-580F40CB1381";
shapes = (
{
closed = 1;
nodes = (
(255,0,l),
(255,1069,l),
(190,1063,l),
(652,0,l),
(759,0,l),
(1171,1064,l),
(1106,1069,l),
(1106,0,l),
(1350,0,l),
(1350,1400,l),
(1112,1400,l),
(746,411,l),
(335,1400,l),
(105,1400,l),
(105,0,l)
);
}
);
width = 1455;
},
{
anchors = (
{
name = bottom;
pos = (749,0);
},
{
name = top;
pos = (749,1400);
}
);
hints = (
{
horizontal = 1;
place = (0, 21);
target = up;
type = BottomGhost;
},
{
horizontal = 1;
place = (1400, -20);
target = down;
type = TopGhost;
}
);
layerId = "19911AB5-6E30-4B50-A0ED-4C0BC5D1DB49";
shapes = (
{
closed = 1;
nodes = (
(245,0,l),
(245,1091,l),
(719,0,l),
(781,0,l),
(1205,1090,l),
(1205,0,l),
(1389,0,l),
(1389,1400,l),
(1201,1400,l),
(795,301,l),
(340,1400,l),
(159,1400,l),
(159,0,l)
);
}
);
width = 1523;
}
);
unicode = 77;
},
{
glyphname = N;
kernLeft = H;
kernRight = H;
lastChange = "2023-10-02 11:38:59 +0000";
layers = (
{
anchors = (
{
name = bottom;
pos = (689,0);
},
{
name = top;
pos = (689,1400);
}
);
hints = (
{
horizontal = 1;
origin = (0,9);
target = up;
type = BottomGhost;
},
{
horizontal = 1;
origin = (0,8);
target = down;
type = TopGhost;
},
{
origin = (0,9);
target = (0,0);
type = Stem;
},
{
origin = (0,6);
target = (0,3);
type = Stem;
}
);
layerId = m002;
shapes = (
{
closed = 1;
nodes = (
(293,0,l),
(293,1097,l),
(1072,0,l),
(1156,0,l),
(1156,1400,l),
(1072,1400,l),
(1072,310,l),
(293,1400,l),
(209,1400,l),
(209,0,l)
);
}
);
width = 1372;
},
{
anchors = (
{
name = bottom;
pos = (610,0);
},
{
name = top;
pos = (610,1400);
}
);
hints = (
{
horizontal = 1;
place = (250, 21);
target = up;
type = BottomGhost;
},
{
horizontal = 1;
origin = (0,8);
target = down;
type = TopGhost;
},
{
origin = (0,9);
target = (0,0);
type = Stem;
},
{
origin = (0,2);
target = (0,3);
type = Stem;
}
);
layerId = "EA527B28-A18D-4603-BC3C-580F40CB1381";
shapes = (
{
closed = 1;
nodes = (
(257,0,l),
(257,992,l),
(961,0,l),
(1102,0,l),
(1102,1400,l),
(950,1400,l),
(950,415,l),
(246,1400,l),
(105,1400,l),
(105,0,l)
);
}
);
width = 1207;
},
{
anchors = (
{
name = bottom;
pos = (679,0);
},
{
name = top;
pos = (679,1400);
}
);
hints = (
{
horizontal = 1;
place = (-110, 21);
target = up;
type = BottomGhost;
},
{
horizontal = 1;
origin = (0,8);
target = down;
type = TopGhost;
},
{
origin = (0,9);
target = (0,0);
type = Stem;
},
{
origin = (0,6);
target = (0,3);
type = Stem;
}
);
layerId = "19911AB5-6E30-4B50-A0ED-4C0BC5D1DB49";
shapes = (
{
closed = 1;
nodes = (
(273,0,l),
(273,1116,l),
(1067,0,l),
(1156,0,l),
(1156,1400,l),
(1071,1400,l),
(1071,293,l),
(277,1400,l),
(188,1400,l),
(188,0,l)
);
}
);
width = 1347;
}
);
unicode = 78;
},
{
glyphname = O;
kernLeft = O;
kernRight = O;
lastChange = "2023-09-26 11:23:27 +0000";
layers = (
{
anchors = (
{
name = bottom;
pos = (786,-25);
},
{
name = center;
pos = (786,701);
},
{
name = ogonek;
pos = (786,-25);
},
{
name = top;
pos = (786,1427);
},
{
name = topleft;
pos = (16,1401);
},
{
name = topright;
pos = (1359,1417);
}
);
hints = (
{
horizontal = 1;
origin = (0,11);
target = (1,11);
type = Stem;
},
{
horizontal = 1;
origin = (0,5);
target = (1,5);
type = Stem;
},
{
origin = (0,8);
target = (1,2);
type = Stem;
},
{
origin = (1,8);
target = (0,2);
type = Stem;
}
);
layerId = m002;
shapes = (
{
closed = 1;
nodes = (
(1181,-31,o),
(1445,251,o),
(1445,700,cs),
(1445,1150,o),
(1181,1432,o),
(786,1432,cs),
(389,1432,o),
(125,1150,o),
(125,700,cs),
(125,251,o),
(389,-31,o),
(786,-31,cs)
);
},
{
closed = 1;
nodes = (
(479,53,o),
(311,337,o),
(311,700,cs),
(311,1063,o),
(479,1348,o),
(786,1348,cs),
(1090,1348,o),
(1259,1063,o),
(1259,700,cs),
(1259,337,o),
(1090,53,o),
(786,53,cs)
);
}
);
width = 1570;
},
{
anchors = (
{
name = bottom;
pos = (768,-25);
},
{
name = center;
pos = (768,701);
},
{
name = ogonek;
pos = (768,-25);
},
{
name = top;
pos = (768,1427);
},
{
name = topleft;
pos = (-2,1401);
},
{
name = topright;
pos = (1341,1417);
}
);
hints = (
{
horizontal = 1;
origin = (0,11);
target = (1,11);
type = Stem;
},
{
horizontal = 1;
origin = (0,5);
target = (1,5);
type = Stem;
},
{
origin = (0,8);
target = (1,2);
type = Stem;
},
{
origin = (1,8);
target = (0,2);
type = Stem;
}
);
layerId = "EA527B28-A18D-4603-BC3C-580F40CB1381";
shapes = (
{
closed = 1;
nodes = (
(1177,-32,o),
(1448,253,o),
(1448,699,cs),
(1448,1149,o),
(1175,1431,o),
(768,1431,cs),
(360,1431,o),
(86,1149,o),
(86,699,cs),
(86,240,o),
(369,-32,o),
(768,-32,cs)
);
},
{
closed = 1;
nodes = (
(493,80,o),
(337,342,o),
(337,699,cs),
(337,1056,o),
(493,1319,o),
(768,1319,cs),
(1040,1319,o),
(1197,1056,o),
(1197,699,cs),
(1197,342,o),
(1040,80,o),
(768,80,cs)
);
}
);
width = 1534;
},
{
anchors = (
{
name = bottom;
pos = (693,-25);
},
{
name = center;
pos = (693,701);
},
{
name = ogonek;
pos = (693,-25);
},
{
name = top;
pos = (693,1427);
},
{
name = topleft;
pos = (-77,1401);
},
{
name = topright;
pos = (1266,1417);
}
);
hints = (
{
horizontal = 1;
origin = (0,11);
target = (1,11);
type = Stem;
},
{
horizontal = 1;
origin = (0,5);
target = (1,5);
type = Stem;
},
{
origin = (0,8);
target = (1,2);
type = Stem;
},
{
origin = (1,8);
target = (0,2);
type = Stem;
}
);
layerId = "19911AB5-6E30-4B50-A0ED-4C0BC5D1DB49";
shapes = (
{
closed = 1;
nodes = (
(1099,-28,o),
(1363,254,o),
(1363,701,cs),
(1363,1149,o),
(1099,1430,o),
(693,1430,cs),
(285,1430,o),
(21,1149,o),
(21,701,cs),
(21,254,o),
(285,-28,o),
(693,-28,cs)
);
},
{
closed = 1;
nodes = (
(385,28,o),
(210,323,o),
(210,701,cs),
(210,1078,o),
(385,1376,o),
(693,1376,cs),
(998,1376,o),
(1174,1078,o),
(1174,701,cs),
(1174,323,o),
(998,28,o),
(693,28,cs)
);
}
);
width = 1384;
}
);
unicode = 79;
},
{
glyphname = Oslash;
kernLeft = O;
kernRight = O;
lastChange = "2023-10-02 11:54:54 +0000";
layers = (
{
anchors = (
{
name = bottom;
pos = (830,0);
},
{
name = top;
pos = (830,1400);
}
);
hints = (
{
horizontal = 1;
origin = (0,3);
target = (2,9);
type = Stem;
},
{
horizontal = 1;
origin = (0,15);
target = (1,5);
type = Stem;
},
{
origin = (0,18);
target = (1,2);
type = Stem;
},
{
origin = (2,6);
target = (0,6);
type = Stem;
}
);
layerId = m002;
shapes = (
{
closed = 1;
nodes = (
(535,47,l),
(625,1,o),
(724,-26,o),
(830,-26,cs),
(1210,-26,o),
(1535,300,o),
(1535,700,cs),
(1535,937,o),
(1411,1147,o),
(1245,1278,c),
(1323,1412,l),
(1201,1482,l),
(1127,1353,l),
(1037,1400,o),
(938,1426,o),
(830,1426,cs),
(450,1426,o),
(125,1100,o),
(125,700,cs),
(125,465,o),
(251,255,o),
(417,123,c),
(339,-12,l),
(461,-82,l)
);
},
{
closed = 1;
nodes = (
(346,321,o),
(310,527,o),
(310,703,cs),
(310,1008,o),
(530,1342,o),
(824,1342,cs),
(902,1342,o),
(1011,1304,o),
(1075,1269,c),
(468,222,l)
);
},
{
closed = 1;
nodes = (
(760,58,o),
(651,94,o),
(587,129,c),
(1189,1199,l),
(1310,1098,o),
(1350,873,o),
(1350,697,cs),
(1350,392,o),
(1130,58,o),
(836,58,cs)
);
}
);
width = 1660;
},
{
anchors = (
{
name = bottom;
pos = (826,0);
},
{
name = top;
pos = (826,1400);
}
);
hints = (
{
horizontal = 1;
origin = (0,3);
target = (2,9);
type = Stem;
},
{
horizontal = 1;
origin = (0,15);
target = (1,5);
type = Stem;
},
{
origin = (0,18);
target = (1,2);
type = Stem;
},
{
origin = (2,6);
target = (0,6);
type = Stem;
}
);
layerId = "EA527B28-A18D-4603-BC3C-580F40CB1381";
shapes = (
{
closed = 1;
nodes = (
(549,18,l),
(630,-18,o),
(727,-41,o),
(826,-41,cs),
(1229,-41,o),
(1566,295,o),
(1566,700,cs),
(1566,925,o),
(1455,1132,o),
(1276,1279,c),
(1355,1414,l),
(1181,1514,l),
(1106,1383,l),
(1024,1419,o),
(927,1441,o),
(826,1441,cs),
(423,1441,o),
(86,1105,o),
(86,700,cs),
(86,475,o),
(201,269,o),
(378,122,c),
(299,-14,l),
(473,-114,l)
);
},
{
closed = 1;
nodes = (
(370,365,o),
(341,545,o),
(341,703,cs),
(341,1009,o),
(551,1327,o),
(820,1327,cs),
(883,1327,o),
(969,1299,o),
(1035,1266,c),
(454,265,l)
);
},
{
closed = 1;
nodes = (
(771,73,o),
(686,99,o),
(620,132,c),
(1195,1155,l),
(1279,1050,o),
(1311,855,o),
(1311,697,cs),
(1311,391,o),
(1101,73,o),
(832,73,cs)
);
}
);
width = 1652;
},
{
anchors = (
{
name = bottom;
pos = (726,0);
},
{
name = top;
pos = (726,1400);
}
);
hints = (
{
horizontal = 1;
origin = (0,3);
target = (2,9);
type = Stem;
},
{
horizontal = 1;
origin = (0,15);
target = (1,5);
type = Stem;
},
{
origin = (0,18);
target = (1,2);
type = Stem;
},
{
origin = (2,6);
target = (0,6);
type = Stem;
}
);
layerId = "19911AB5-6E30-4B50-A0ED-4C0BC5D1DB49";
shapes = (
{
closed = 1;
nodes = (
(433,59,l),
(518,16,o),
(619,-11,o),
(726,-11,cs),
(1110,-11,o),
(1431,311,o),
(1431,700,cs),
(1431,933,o),
(1307,1138,o),
(1133,1272,c),
(1210,1404,l),
(1094,1470,l),
(1020,1341,l),
(935,1385,o),
(834,1411,o),
(726,1411,cs),
(341,1411,o),
(21,1089,o),
(21,700,cs),
(21,469,o),
(146,264,o),
(320,129,c),
(243,-4,l),
(359,-70,l)
);
},
{
closed = 1;
nodes = (
(243,310,o),
(206,525,o),
(206,703,cs),
(206,1017,o),
(429,1357,o),
(720,1357,cs),
(800,1357,o),
(909,1317,o),
(980,1277,c),
(362,212,l)
);
},
{
closed = 1;
nodes = (
(653,43,o),
(544,80,o),
(474,121,c),
(1086,1209,l),
(1204,1109,o),
(1246,875,o),
(1246,697,cs),
(1246,383,o),
(1022,43,o),
(732,43,cs)
);
}
);
width = 1452;
}
);
metricLeft = O;
metricRight = O;
unicode = 216;
},
{
glyphname = P;
kernLeft = H;
kernRight = A;
lastChange = "2023-09-28 14:31:34 +0000";
layers = (
{
anchors = (
{
name = bottom;
pos = (616,0);
},
{
name = top;
pos = (629,1400);
}
);
hints = (
{
horizontal = 1;
origin = (0,10);
target = up;
type = BottomGhost;
},
{
horizontal = 1;
origin = (0,1);
target = (1,8);
type = Stem;
},
{
horizontal = 1;
origin = (0,9);
target = (1,0);
type = Stem;
},
{
origin = (0,10);
target = (0,0);
type = Stem;
},
{
origin = (1,4);
target = (0,5);
type = Stem;
}
);
layerId = m002;
shapes = (
{
closed = 1;
nodes = (
(380,0,l),
(380,616,l),
(668,616,ls),
(885,616,o),
(1067,759,o),
(1067,991,cs),
(1067,1220,o),
(891,1400,o),
(668,1400,cs),
(200,1400,l),
(200,0,l)
);
},
{
closed = 1;
nodes = (
(380,1316,l),
(595,1316,ls),
(809,1316,o),
(882,1156,o),
(882,998,cs),
(882,840,o),
(817,700,o),
(595,700,cs),
(380,700,l)
);
}
);
width = 1094;
},
{
anchors = (
{
name = bottom;
pos = (531,0);
},
{
name = top;
pos = (544,1400);
}
);
hints = (
{
horizontal = 1;
origin = (0,10);
target = up;
type = BottomGhost;
},
{
horizontal = 1;
origin = (0,1);
target = (1,8);
type = Stem;
},
{
horizontal = 1;
origin = (0,9);
target = (1,0);
type = Stem;
},
{
origin = (0,10);
target = (0,0);
type = Stem;
},
{
origin = (1,4);
target = (0,5);
type = Stem;
}
);
layerId = "EA527B28-A18D-4603-BC3C-580F40CB1381";
shapes = (
{
closed = 1;
nodes = (
(334,0,l),
(334,604,l),
(581,604,ls),
(812,604,o),
(1007,751,o),
(1007,984,cs),
(1007,1215,o),
(821,1400,o),
(581,1400,cs),
(90,1400,l),
(90,0,l)
);
},
{
closed = 1;
nodes = (
(334,1288,l),
(510,1288,ls),
(692,1288,o),
(756,1148,o),
(756,991,cs),
(756,836,o),
(700,714,o),
(510,714,cs),
(334,714,l)
);
}
);
width = 1027;
},
{
anchors = (
{
name = bottom;
pos = (525,0);
},
{
name = top;
pos = (538,1400);
}
);
hints = (
{
horizontal = 1;
origin = (0,10);
target = up;
type = BottomGhost;
},
{
horizontal = 1;
origin = (0,1);
target = (1,8);
type = Stem;
},
{
horizontal = 1;
origin = (0,9);
target = (1,0);
type = Stem;
},
{
origin = (0,10);
target = (0,0);
type = Stem;
},
{
origin = (1,4);
target = (0,5);
type = Stem;
}
);
layerId = "19911AB5-6E30-4B50-A0ED-4C0BC5D1DB49";
shapes = (
{
closed = 1;
nodes = (
(284,0,l),
(284,630,l),
(578,630,ls),
(804,630,o),
(986,772,o),
(986,998,cs),
(986,1221,o),
(810,1400,o),
(578,1400,cs),
(100,1400,l),
(100,0,l)
);
},
{
closed = 1;
nodes = (
(284,1344,l),
(503,1344,ls),
(723,1344,o),
(797,1171,o),
(797,1005,cs),
(797,840,o),
(732,684,o),
(503,684,cs),
(284,684,l)
);
}
);
width = 1014;
}
);
metricLeft = I;
unicode = 80;
},
{
glyphname = Thorn;
kernLeft = l;
kernRight = o;
lastChange = "2023-10-02 11:29:52 +0000";
layers = (
{
anchors = (
{
name = bottom;
pos = (624,0);
},
{
name = top;
pos = (624,1400);
}
);
hints = (
{
horizontal = 1;
origin = (0,12);
target = up;
type = BottomGhost;
},
{
horizontal = 1;
origin = (0,1);
target = (1,8);
type = Stem;
},
{
horizontal = 1;
origin = (1,0);
target = (0,9);
type = Stem;
},
{
horizontal = 1;
origin = (0,11);
target = down;
type = TopGhost;
},
{
origin = (0,11);
target = (0,0);
type = Stem;
},
{
origin = (1,4);
target = (0,5);
type = Stem;
}
);
layerId = m002;
shapes = (
{
closed = 1;
nodes = (
(388,0,l),
(388,326,l),
(669,326,ls),
(886,326,o),
(1068,468,o),
(1068,700,cs),
(1068,929,o),
(892,1074,o),
(669,1074,cs),
(388,1074,l),
(388,1400,l),
(208,1400,l),
(208,1,l)
);
},
{
closed = 1;
nodes = (
(388,990,l),
(658,990,ls),
(806,990,o),
(883,865,o),
(883,707,cs),
(883,549,o),
(806,410,o),
(658,410,cs),
(388,410,l)
);
}
);
width = 1164;
},
{
anchors = (
{
name = bottom;
pos = (614,0);
},
{
name = top;
pos = (614,1400);
}
);
hints = (
{
horizontal = 1;
origin = (0,12);
target = up;
type = BottomGhost;
},
{
horizontal = 1;
origin = (0,1);
target = (1,8);
type = Stem;
},
{
horizontal = 1;
origin = (1,0);
target = (0,9);
type = Stem;
},
{
horizontal = 1;
origin = (0,11);
target = down;
type = TopGhost;
},
{
origin = (0,11);
target = (0,0);
type = Stem;
},
{
origin = (1,4);
target = (0,5);
type = Stem;
}
);
layerId = "EA527B28-A18D-4603-BC3C-580F40CB1381";
shapes = (
{
closed = 1;
nodes = (
(413,-15,l),
(413,311,l),
(659,311,ls),
(894,311,o),
(1093,460,o),
(1093,700,cs),
(1093,937,o),
(899,1089,o),
(659,1089,cs),
(413,1089,l),
(413,1415,l),
(163,1415,l),
(163,-14,l)
);
},
{
closed = 1;
nodes = (
(413,975,l),
(648,975,ls),
(770,975,o),
(838,866,o),
(838,707,cs),
(838,548,o),
(769,425,o),
(648,425,cs),
(413,425,l)
);
}
);
width = 1142;
},
{
anchors = (
{
name = bottom;
pos = (475,0);
},
{
name = top;
pos = (475,1400);
}
);
hints = (
{
horizontal = 1;
place = (15, 21);
target = up;
type = BottomGhost;
},
{
horizontal = 1;
origin = (0,1);
place = (326, 54);
type = Stem;
},
{
horizontal = 1;
place = (1005, 54);
place = (1005, 54);
type = Stem;
},
{
horizontal = 1;
place = (1385, -20);
target = down;
type = TopGhost;
},
{
place = (136, 180);
place = (136, 180);
type = Stem;
},
{
place = (811, 185);
place = (811, 185);
type = Stem;
}
);
layerId = "19911AB5-6E30-4B50-A0ED-4C0BC5D1DB49";
shapes = (
{
closed = 1;
nodes = (
(312,0,l),
(312,326,l),
(593,326,ls),
(810,326,o),
(992,468,o),
(992,700,cs),
(992,929,o),
(816,1074,o),
(593,1074,cs),
(312,1074,l),
(312,1400,l),
(132,1400,l),
(132,1,l)
);
},
{
closed = 1;
nodes = (
(312,990,l),
(582,990,ls),
(730,990,o),
(807,865,o),
(807,707,cs),
(807,549,o),
(730,410,o),
(582,410,cs),
(312,410,l)
);
}
);
width = 967;
}
);
metricLeft = "=H";
unicode = 222;
},
{
glyphname = Q;
kernLeft = O;
kernRight = O;
lastChange = "2023-10-02 11:39:40 +0000";
layers = (
{
anchors = (
{
name = bottom;
pos = (785,-24);
},
{
name = top;
pos = (785,1416);
}
);
hints = (
{
horizontal = 1;
place = (-24, 21);
target = up;
type = BottomGhost;
},
{
horizontal = 1;
place = (1429, -140);
place = (1429, -140);
type = Stem;
},
{
horizontal = 1;
place = (-23, 140);
place = (-23, 140);
type = Stem;
},
{
place = (80, 140);
place = (80, 140);
type = Stem;
},
{
place = (1319, 140);
place = (1319, 140);
type = Stem;
}
);
layerId = m002;
shapes = (
{
ref = O;
},
{
closed = 1;
nodes = (
(1130,-165,l),
(1244,-52,l),
(889,303,l),
(775,190,l)
);
}
);
width = 1570;
},
{
anchors = (
{
name = bottom;
pos = (771,-24);
},
{
name = top;
pos = (771,1416);
}
);
hints = (
{
horizontal = 1;
place = (-24, 21);
target = up;
type = BottomGhost;
},
{
horizontal = 1;
place = (1429, -140);
place = (1429, -140);
type = Stem;
},
{
horizontal = 1;
place = (-23, 140);
place = (-23, 140);
type = Stem;
},
{
place = (80, 140);
place = (80, 140);
type = Stem;
},
{
place = (1319, 140);
place = (1319, 140);
type = Stem;
}
);
layerId = "EA527B28-A18D-4603-BC3C-580F40CB1381";
shapes = (
{
pos = (-14,0);
ref = O;
},
{
closed = 1;
nodes = (
(1087,-191,l),
(1242,-35,l),
(885,322,l),
(730,166,l)
);
}
);
width = 1506;
},
{
anchors = (
{
name = bottom;
pos = (785,-24);
},
{
name = top;
pos = (785,1416);
}
);
hints = (
{
horizontal = 1;
place = (-24, 21);
target = up;
type = BottomGhost;
},
{
horizontal = 1;
place = (1429, -140);
place = (1429, -140);
type = Stem;
},
{
horizontal = 1;
place = (-23, 140);
place = (-23, 140);
type = Stem;
},
{
place = (80, 140);
place = (80, 140);
type = Stem;
},
{
place = (1319, 140);
place = (1319, 140);
type = Stem;
}
);
layerId = "19911AB5-6E30-4B50-A0ED-4C0BC5D1DB49";
shapes = (
{
ref = O;
},
{
closed = 1;
nodes = (
(1083,-162,l),
(1197,-49,l),
(842,306,l),
(728,193,l)
);
}
);
width = 1475;
}
);
unicode = 81;
},
{
glyphname = R;
kernLeft = H;
kernRight = R;
lastChange = "2023-10-02 11:54:54 +0000";
layers = (
{
anchors = (
{
name = bottom;
pos = (663,0);
},
{
name = top;
pos = (619,1400);
}
);
hints = (
{
horizontal = 1;
place = (16, 21);
target = up;
type = BottomGhost;
},
{
horizontal = 1;
origin = (0,2);
place = (643, 57);
type = Stem;
},
{
horizontal = 1;
place = (1400, -84);
place = (1400, -84);
type = Stem;
},
{
horizontal = 1;
origin = (0,1);
place = (643, 57);
type = Stem;
},
{
place = (1264, 180);
place = (1264, 180);
type = Stem;
},
{
origin = (0,3);
target = (0,0);
type = Stem;
}
);
layerId = m002;
shapes = (
{
closed = 1;
nodes = (
(1156,0,l),
(795,643,l),
(599,643,l),
(956,0,l)
);
},
{
ref = P;
}
);
width = 1199;
},
{
anchors = (
{
name = bottom;
pos = (663,0);
},
{
name = top;
pos = (619,1400);
}
);
hints = (
{
horizontal = 1;
place = (16, 21);
target = up;
type = BottomGhost;
},
{
horizontal = 1;
origin = (0,2);
place = (658, 57);
type = Stem;
},
{
horizontal = 1;
place = (1400, -84);
place = (1400, -84);
type = Stem;
},
{
horizontal = 1;
origin = (0,1);
place = (658, 57);
type = Stem;
},
{
place = (1264, 180);
place = (1264, 180);
type = Stem;
},
{
origin = (0,3);
target = (0,0);
type = Stem;
}
);
layerId = "EA527B28-A18D-4603-BC3C-580F40CB1381";
shapes = (
{
closed = 1;
nodes = (
(1185,0,l),
(815,658,l),
(556,658,l),
(921,0,l)
);
},
{
ref = P;
}
);
width = 1211;
},
{
anchors = (
{
name = bottom;
pos = (663,0);
},
{
name = top;
pos = (619,1400);
}
);
hints = (
{
horizontal = 1;
place = (16, 21);
target = up;
type = BottomGhost;
},
{
horizontal = 1;
origin = (0,2);
place = (665, 57);
type = Stem;
},
{
horizontal = 1;
place = (1400, -84);
place = (1400, -84);
type = Stem;
},
{
horizontal = 1;
origin = (0,1);
place = (665, 57);
type = Stem;
},
{
place = (1264, 180);
place = (1264, 180);
type = Stem;
},
{
origin = (0,3);
target = (0,0);
type = Stem;
}
);
layerId = "19911AB5-6E30-4B50-A0ED-4C0BC5D1DB49";
shapes = (
{
closed = 1;
nodes = (
(1149,0,l),
(776,665,l),
(580,665,l),
(949,0,l)
);
},
{
ref = P;
}
);
width = 1190;
}
);
metricLeft = I;
unicode = 82;
},
{
glyphname = S;
kernLeft = S;
kernRight = S;
lastChange = "2023-10-02 12:09:40 +0000";
layers = (
{
anchors = (
{
name = bottom;
pos = (671,-28);
},
{
name = top;
pos = (657,1432);
}
);
hints = (
{
horizontal = 1;
place = (-26, 140);
place = (-26, 140);
type = Stem;
},
{
horizontal = 1;
place = (1421, 141);
place = (1421, 141);
type = Stem;
},
{
place = (56, 147);
place = (56, 147);
type = Stem;
},
{
place = (966, 147);
place = (966, 147);
type = Stem;
}
);
layerId = m002;
shapes = (
{
closed = 1;
nodes = (
(863,-32,o),
(1103,170,o),
(1103,452,cs),
(1103,701,o),
(826,813,o),
(620,854,cs),
(378,912,o),
(238,934,o),
(238,1066,cs),
(238,1230,o),
(352,1353,o),
(593,1353,cs),
(806,1353,o),
(879,1266,o),
(973,1159,c),
(1047,1209,l),
(966,1340,o),
(806,1432,o),
(593,1432,cs),
(252,1432,o),
(85,1269,o),
(85,1021,cs),
(85,757,o),
(381,689,o),
(620,644,cs),
(829,590,o),
(917,488,o),
(917,357,cs),
(917,195,o),
(833,60,o),
(620,51,cs),
(379,42,o),
(238,216,o),
(199,311,c),
(127,273,l),
(163,164,o),
(328,-32,o),
(620,-31,cs)
);
}
);
width = 1198;
},
{
anchors = (
{
name = bottom;
pos = (641,-28);
},
{
name = top;
pos = (627,1432);
}
);
hints = (
{
horizontal = 1;
place = (-26, 140);
place = (-26, 140);
type = Stem;
},
{
horizontal = 1;
place = (1421, 141);
place = (1421, 141);
type = Stem;
},
{
place = (56, 147);
place = (56, 147);
type = Stem;
},
{
place = (966, 147);
place = (966, 147);
type = Stem;
}
);
layerId = "EA527B28-A18D-4603-BC3C-580F40CB1381";
shapes = (
{
closed = 1;
nodes = (
(912,-35,o),
(1117,189,o),
(1117,432,cs),
(1117,652,o),
(925,782,o),
(667,855,cs),
(378,937,o),
(279,931,o),
(264,1033,cs),
(246,1159,o),
(354,1314,o),
(616,1290,cs),
(824,1271,o),
(909,1199,o),
(951,1108,c),
(1081,1177,l),
(1023,1309,o),
(871,1427,o),
(616,1427,cs),
(257,1427,o),
(78,1271,o),
(77,1016,cs),
(77,724,o),
(422,699,o),
(643,619,cs),
(800,562,o),
(890,507,o),
(892,372,cs),
(895,191,o),
(757,121,o),
(619,114,cs),
(390,103,o),
(255,264,o),
(202,369,c),
(94,300,l),
(144,174,o),
(322,-26,o),
(587,-30,cs)
);
}
);
width = 1182;
},
{
anchors = (
{
name = bottom;
pos = (542,-28);
},
{
name = top;
pos = (528,1432);
}
);
hints = (
{
horizontal = 1;
place = (-26, 140);
place = (-26, 140);
type = Stem;
},
{
horizontal = 1;
place = (1421, 141);
place = (1421, 141);
type = Stem;
},
{
place = (56, 147);
place = (56, 147);
type = Stem;
},
{
place = (966, 147);
place = (966, 147);
type = Stem;
}
);
layerId = "19911AB5-6E30-4B50-A0ED-4C0BC5D1DB49";
shapes = (
{
closed = 1;
nodes = (
(833,-35,o),
(1085,167,o),
(1073,449,cs),
(1062,707,o),
(796,810,o),
(590,851,cs),
(348,909,o),
(208,931,o),
(208,1063,cs),
(208,1227,o),
(343,1341,o),
(590,1337,cs),
(803,1334,o),
(889,1227,o),
(943,1156,c),
(1017,1206,l),
(965,1313,o),
(803,1429,o),
(590,1429,cs),
(216,1429,o),
(78,1228,o),
(75,1034,cs),
(70,748,o),
(351,686,o),
(590,641,cs),
(799,587,o),
(887,485,o),
(887,354,cs),
(887,192,o),
(803,57,o),
(590,48,cs),
(349,39,o),
(213,213,o),
(178,308,c),
(93,261,l),
(142,133,o),
(298,-35,o),
(590,-34,cs)
);
}
);
width = 1138;
}
);
unicode = 83;
},
{
glyphname = Saltillo;
lastChange = "2023-09-26 11:23:27 +0000";
layers = (
{
layerId = m002;
shapes = (
{
closed = 1;
nodes = (
(661,830,l),
(691,1412,l),
(511,1412,l),
(541,830,l)
);
}
);
width = 1200;
},
{
layerId = "EA527B28-A18D-4603-BC3C-580F40CB1381";
shapes = (
{
closed = 1;
nodes = (
(600,815,l),
(632,1427,l),
(380,1427,l),
(412,815,l)
);
}
);
width = 1010;
},
{
layerId = "19911AB5-6E30-4B50-A0ED-4C0BC5D1DB49";
shapes = (
{
closed = 1;
nodes = (
(205,845,l),
(233,1397,l),
(55,1397,l),
(83,845,l)
);
}
);
width = 288;
}
);
unicode = 42891;
},
{
glyphname = Germandbls;
kernLeft = Germandbls;
kernRight = Germandbls;
lastChange = "2023-09-28 14:13:15 +0000";
layers = (
{
anchors = (
{
name = bottom;
pos = (650,0);
},
{
name = top;
pos = (650,1400);
}
);
hints = (
{
horizontal = 1;
origin = (0,38);
target = (0,20);
type = Stem;
},
{
horizontal = 1;
origin = (0,12);
target = (0,10);
type = Stem;
},
{
horizontal = 1;
origin = (0,4);
target = (0,34);
type = Stem;
},
{
origin = (0,38);
target = (0,0);
type = Stem;
},
{
origin = (0,7);
target = (0,31);
type = Stem;
},
{
origin = (0,31);
target = (0,25);
type = Stem;
}
);
layerId = m002;
shapes = (
{
closed = 1;
nodes = (
(388,2,l),
(388,981,ls),
(388,1144,o),
(492,1318,o),
(655,1318,cs),
(787,1318,o),
(869,1161,o),
(869,1020,cs),
(869,879,o),
(787,749,o),
(655,745,cs),
(628,744,l),
(628,662,l),
(718,661,ls),
(864,660,o),
(943,526,o),
(943,381,cs),
(943,243,o),
(864,86,o),
(718,86,cs),
(628,86,l),
(655,2,l),
(729,2,ls),
(938,2,o),
(1123,167,o),
(1123,381,cs),
(1123,528,o),
(1032,681,o),
(872,719,c),
(978,776,o),
(1049,899,o),
(1049,1020,cs),
(1049,1233,o),
(872,1402,o),
(667,1402,cs),
(420,1402,o),
(208,1200,o),
(208,955,cs),
(208,2,l)
);
}
);
width = 1235;
},
{
anchors = (
{
name = bottom;
pos = (640,0);
},
{
name = top;
pos = (640,1400);
}
);
hints = (
{
horizontal = 1;
origin = (0,38);
target = (0,20);
type = Stem;
},
{
horizontal = 1;
origin = (0,12);
target = (0,10);
type = Stem;
},
{
horizontal = 1;
origin = (0,4);
target = (0,34);
type = Stem;
},
{
origin = (0,38);
target = (0,0);
type = Stem;
},
{
origin = (0,7);
target = (0,31);
type = Stem;
},
{
origin = (0,31);
target = (0,25);
type = Stem;
}
);
layerId = "EA527B28-A18D-4603-BC3C-580F40CB1381";
shapes = (
{
closed = 1;
nodes = (
(413,-13,l),
(413,981,ls),
(413,1145,o),
(508,1303,o),
(645,1303,cs),
(750,1303,o),
(824,1162,o),
(824,1020,cs),
(824,878,o),
(752,763,o),
(644,760,cs),
(583,758,l),
(583,647,l),
(708,646,ls),
(828,645,o),
(898,527,o),
(898,381,cs),
(898,242,o),
(827,101,o),
(708,101,cs),
(579,101,l),
(615,-13,l),
(719,-13,ls),
(950,-13,o),
(1148,162,o),
(1148,381,cs),
(1148,510,o),
(1076,665,o),
(908,723,c),
(1014,793,o),
(1074,907,o),
(1074,1020,cs),
(1074,1238,o),
(885,1417,o),
(657,1417,cs),
(388,1417,o),
(163,1205,o),
(163,955,cs),
(163,-13,l)
);
}
);
width = 1210;
},
{
anchors = (
{
name = bottom;
pos = (574,0);
},
{
name = top;
pos = (574,1400);
}
);
hints = (
{
horizontal = 1;
origin = (0,38);
target = (0,20);
type = Stem;
},
{
horizontal = 1;
origin = (0,12);
target = (0,10);
type = Stem;
},
{
horizontal = 1;
origin = (0,4);
target = (0,34);
type = Stem;
},
{
origin = (0,38);
target = (0,0);
type = Stem;
},
{
origin = (0,7);
target = (0,31);
type = Stem;
},
{
origin = (0,31);
target = (0,25);
type = Stem;
}
);
layerId = "19911AB5-6E30-4B50-A0ED-4C0BC5D1DB49";
shapes = (
{
closed = 1;
nodes = (
(312,17,l),
(312,981,ls),
(312,1152,o),
(419,1333,o),
(579,1333,cs),
(707,1333,o),
(793,1169,o),
(793,1020,cs),
(793,870,o),
(707,734,o),
(579,730,cs),
(552,729,l),
(552,677,l),
(642,676,ls),
(784,675,o),
(867,535,o),
(867,381,cs),
(867,235,o),
(784,71,o),
(642,71,cs),
(558,71,l),
(575,17,l),
(653,17,ls),
(866,17,o),
(1047,178,o),
(1047,381,cs),
(1047,520,o),
(960,665,o),
(796,704,c),
(796,732,l),
(906,792,o),
(973,906,o),
(973,1020,cs),
(973,1222,o),
(800,1387,o),
(591,1387,cs),
(339,1387,o),
(132,1189,o),
(132,955,cs),
(132,17,l)
);
}
);
width = 1102;
}
);
metricLeft = "=H";
unicode = 7838;
},
{
glyphname = T;
kernLeft = T;
kernRight = T;
lastChange = "2023-09-28 13:02:56 +0000";
layers = (
{
anchors = (
{
name = bottom;
pos = (593,0);
},
{
name = center;
pos = (593,700);
},
{
name = top;
pos = (593,1400);
}
);
hints = (
{
horizontal = 1;
origin = (0,7);
target = up;
type = BottomGhost;
},
{
horizontal = 1;
origin = (0,4);
target = (0,6);
type = Stem;
},
{
origin = (0,7);
target = (0,0);
type = Stem;
}
);
layerId = m002;
shapes = (
{
closed = 1;
nodes = (
(684,0,l),
(684,1316,l),
(1124,1316,l),
(1124,1400,l),
(67,1400,l),
(67,1317,l),
(504,1316,l),
(504,0,l)
);
}
);
width = 1191;
},
{
anchors = (
{
name = bottom;
pos = (587,0);
},
{
name = center;
pos = (587,700);
},
{
name = top;
pos = (587,1400);
}
);
hints = (
{
horizontal = 1;
origin = (0,7);
target = up;
type = BottomGhost;
},
{
horizontal = 1;
origin = (0,4);
target = (0,6);
type = Stem;
},
{
origin = (0,7);
target = (0,0);
type = Stem;
}
);
layerId = "EA527B28-A18D-4603-BC3C-580F40CB1381";
shapes = (
{
closed = 1;
nodes = (
(711,0,l),
(711,1288,l),
(1141,1288,l),
(1141,1400,l),
(38,1400,l),
(38,1288,l),
(465,1288,l),
(465,0,l)
);
}
);
width = 1179;
},
{
anchors = (
{
name = bottom;
pos = (580,0);
},
{
name = center;
pos = (580,700);
},
{
name = top;
pos = (580,1400);
}
);
hints = (
{
horizontal = 1;
origin = (0,7);
target = up;
type = BottomGhost;
},
{
horizontal = 1;
origin = (0,4);
target = (0,6);
type = Stem;
},
{
origin = (0,7);
target = (0,0);
type = Stem;
}
);
layerId = "19911AB5-6E30-4B50-A0ED-4C0BC5D1DB49";
shapes = (
{
closed = 1;
nodes = (
(673,0,l),
(673,1344,l),
(1123,1344,l),
(1123,1400,l),
(42,1400,l),
(42,1345,l),
(489,1344,l),
(489,0,l)
);
}
);
width = 1165;
}
);
unicode = 84;
},
{
glyphname = U;
kernLeft = U;
kernRight = U;
lastChange = "2023-09-26 11:23:27 +0000";
layers = (
{
anchors = (
{
name = bottom;
pos = (726,-26);
},
{
name = ogonek;
pos = (726,-26);
},
{
name = top;
pos = (726,1400);
},
{
name = topright;
pos = (1269,1400);
}
);
hints = (
{
horizontal = 1;
origin = (0,17);
target = (0,8);
type = Stem;
},
{
horizontal = 1;
origin = (0,13);
target = down;
type = TopGhost;
},
{
origin = (0,14);
target = (0,11);
type = Stem;
},
{
origin = (0,5);
target = (0,2);
type = Stem;
}
);
layerId = m002;
shapes = (
{
closed = 1;
nodes = (
(1062,-31,o),
(1282,241,o),
(1282,579,cs),
(1282,1400,l),
(1102,1400,l),
(1102,579,ls),
(1102,324,o),
(989,53,o),
(726,53,cs),
(467,53,o),
(350,322,o),
(350,579,cs),
(350,1400,l),
(170,1400,l),
(170,579,ls),
(170,241,o),
(390,-31,o),
(726,-31,cs)
);
}
);
width = 1452;
},
{
anchors = (
{
name = bottom;
pos = (699,-26);
},
{
name = ogonek;
pos = (699,-26);
},
{
name = top;
pos = (699,1400);
},
{
name = topright;
pos = (1242,1400);
}
);
hints = (
{
horizontal = 1;
origin = (0,17);
target = (0,8);
type = Stem;
},
{
horizontal = 1;
origin = (0,13);
target = down;
type = TopGhost;
},
{
origin = (0,14);
target = (0,11);
type = Stem;
},
{
origin = (0,5);
target = (0,2);
type = Stem;
}
);
layerId = "EA527B28-A18D-4603-BC3C-580F40CB1381";
shapes = (
{
closed = 1;
nodes = (
(1047,-31,o),
(1278,240,o),
(1278,582,cs),
(1278,1400,l),
(1033,1400,l),
(1033,582,ls),
(1033,331,o),
(930,81,o),
(699,81,cs),
(472,81,o),
(365,329,o),
(365,582,cs),
(365,1400,l),
(120,1400,l),
(120,582,ls),
(120,240,o),
(351,-31,o),
(699,-31,cs)
);
}
);
width = 1398;
},
{
anchors = (
{
name = bottom;
pos = (647,-26);
},
{
name = ogonek;
pos = (647,-26);
},
{
name = top;
pos = (647,1400);
},
{
name = topright;
pos = (1190,1400);
}
);
hints = (
{
horizontal = 1;
origin = (0,17);
target = (0,8);
type = Stem;
},
{
horizontal = 1;
origin = (0,13);
target = down;
type = TopGhost;
},
{
origin = (0,14);
target = (0,11);
type = Stem;
},
{
origin = (0,5);
target = (0,2);
type = Stem;
}
);
layerId = "19911AB5-6E30-4B50-A0ED-4C0BC5D1DB49";
shapes = (
{
closed = 1;
nodes = (
(995,-29,o),
(1214,242,o),
(1214,577,cs),
(1214,1400,l),
(1031,1400,l),
(1031,577,ls),
(1031,312,o),
(912,26,o),
(647,26,cs),
(386,26,o),
(263,309,o),
(263,577,cs),
(263,1400,l),
(80,1400,l),
(80,577,ls),
(80,242,o),
(299,-29,o),
(647,-29,cs)
);
}
);
width = 1294;
}
);
unicode = 85;
},
{
glyphname = V;
kernLeft = V;
kernRight = V;
lastChange = "2023-09-28 14:24:04 +0000";
layers = (
{
anchors = (
{
name = bottom;
pos = (692,0);
},
{
name = ogonek;
pos = (1271,0);
},
{
name = top;
pos = (678,1400);
}
);
hints = (
{
horizontal = 1;
place = (0, 21);
target = up;
type = BottomGhost;
},
{
horizontal = 1;
place = (1401, -20);
target = down;
type = TopGhost;
}
);
layerId = m002;
shapes = (
{
closed = 1;
nodes = (
(771,0,l),
(1284,1400,l),
(1191,1400,l),
(716,106,l),
(264,1400,l),
(74,1400,l),
(563,0,l)
);
}
);
width = 1357;
},
{
anchors = (
{
name = bottom;
pos = (685,0);
},
{
name = ogonek;
pos = (1264,0);
},
{
name = top;
pos = (671,1400);
}
);
hints = (
{
horizontal = 1;
place = (0, 21);
target = up;
type = BottomGhost;
},
{
horizontal = 1;
place = (1401, -20);
target = down;
type = TopGhost;
}
);
layerId = "EA527B28-A18D-4603-BC3C-580F40CB1381";
shapes = (
{
closed = 1;
nodes = (
(791,0,l),
(1303,1400,l),
(1144,1400,l),
(710,214,l),
(295,1400,l),
(41,1400,l),
(531,0,l)
);
}
);
width = 1343;
},
{
anchors = (
{
name = bottom;
pos = (662,0);
},
{
name = ogonek;
pos = (1241,0);
},
{
name = top;
pos = (648,1400);
}
);
hints = (
{
horizontal = 1;
place = (0, 21);
target = up;
type = BottomGhost;
},
{
horizontal = 1;
place = (1401, -20);
target = down;
type = TopGhost;
}
);
layerId = "19911AB5-6E30-4B50-A0ED-4C0BC5D1DB49";
shapes = (
{
closed = 1;
nodes = (
(747,0,l),
(1260,1400,l),
(1163,1400,l),
(686,88,l),
(230,1400,l),
(37,1400,l),
(527,0,l)
);
}
);
width = 1296;
}
);
unicode = 86;
},
{
glyphname = W;
kernLeft = W;
kernRight = W;
lastChange = "2023-09-28 13:03:56 +0000";
layers = (
{
anchors = (
{
name = bottom;
pos = (942,0);
},
{
name = top;
pos = (936,1400);
}
);
hints = (
{
horizontal = 1;
origin = (0,13);
target = (0,13);
type = Stem;
},
{
horizontal = 1;
origin = (0,12);
target = down;
type = TopGhost;
}
);
layerId = m002;
shapes = (
{
closed = 1;
nodes = (
(645,0,l),
(645,2,l),
(990,1227,l),
(1318,0,l),
(1506,0,l),
(1898,1400,l),
(1805,1400,l),
(1459,183,l),
(1134,1400,l),
(942,1400,l),
(599,173,l),
(271,1400,l),
(81,1400,l),
(455,0,l)
);
}
);
width = 1977;
},
{
anchors = (
{
name = bottom;
pos = (934,0);
},
{
name = top;
pos = (928,1400);
}
);
hints = (
{
horizontal = 1;
origin = (0,13);
target = (0,13);
type = Stem;
},
{
horizontal = 1;
origin = (0,12);
target = down;
type = TopGhost;
}
);
layerId = "EA527B28-A18D-4603-BC3C-580F40CB1381";
shapes = (
{
closed = 1;
nodes = (
(678,0,l),
(678,18,l),
(1015,1212,l),
(948,1212,l),
(1273,0,l),
(1516,0,l),
(1909,1400,l),
(1739,1400,l),
(1407,198,l),
(1474,198,l),
(1152,1400,l),
(905,1400,l),
(565,188,l),
(632,188,l),
(307,1400,l),
(54,1400,l),
(428,0,l)
);
}
);
width = 1961;
},
{
anchors = (
{
name = bottom;
pos = (912,0);
},
{
name = top;
pos = (906,1400);
}
);
hints = (
{
horizontal = 1;
origin = (0,13);
target = (0,13);
type = Stem;
},
{
horizontal = 1;
origin = (0,12);
target = down;
type = TopGhost;
}
);
layerId = "19911AB5-6E30-4B50-A0ED-4C0BC5D1DB49";
shapes = (
{
closed = 1;
nodes = (
(543,0,l),
(622,0,l),
(959,1243,l),
(1291,0,l),
(1489,0,l),
(1879,1400,l),
(1783,1400,l),
(1438,167,l),
(1109,1400,l),
(906,1400,l),
(562,156,l),
(230,1400,l),
(38,1400,l),
(412,0,l)
);
}
);
width = 1917;
}
);
unicode = 87;
},
{
glyphname = X;
kernLeft = X;
kernRight = X;
lastChange = "2023-09-28 13:04:47 +0000";
layers = (
{
anchors = (
{
name = bottom;
pos = (695,0);
},
{
name = top;
pos = (695,1400);
}
);
hints = (
{
horizontal = 1;
origin = (0,11);
target = up;
type = BottomGhost;
},
{
horizontal = 1;
origin = (0,9);
target = down;
type = TopGhost;
}
);
layerId = m002;
shapes = (
{
closed = 1;
nodes = (
(190,0,l),
(621,620,l),
(1060,0,l),
(1263,0,l),
(720,766,l),
(1154,1400,l),
(1069,1400,l),
(678,826,l),
(271,1400,l),
(68,1400,l),
(578,680,l),
(114,0,l)
);
}
);
width = 1326;
},
{
anchors = (
{
name = bottom;
pos = (690,0);
},
{
name = top;
pos = (690,1400);
}
);
hints = (
{
horizontal = 1;
origin = (0,11);
target = up;
type = BottomGhost;
},
{
horizontal = 1;
origin = (0,9);
target = down;
type = TopGhost;
}
);
layerId = "EA527B28-A18D-4603-BC3C-580F40CB1381";
shapes = (
{
closed = 1;
nodes = (
(229,0,l),
(617,573,l),
(1023,0,l),
(1290,0,l),
(748,765,l),
(1182,1400,l),
(1030,1400,l),
(673,873,l),
(298,1400,l),
(32,1400,l),
(541,681,l),
(76,0,l)
);
}
);
width = 1318;
},
{
anchors = (
{
name = bottom;
pos = (657,0);
},
{
name = top;
pos = (657,1400);
}
);
hints = (
{
horizontal = 1;
origin = (0,11);
target = up;
type = BottomGhost;
},
{
horizontal = 1;
origin = (0,9);
target = down;
type = TopGhost;
}
);
layerId = "19911AB5-6E30-4B50-A0ED-4C0BC5D1DB49";
shapes = (
{
closed = 1;
nodes = (
(155,0,l),
(582,628,l),
(1026,0,l),
(1220,0,l),
(677,767,l),
(1110,1400,l),
(1031,1400,l),
(640,820,l),
(228,1400,l),
(34,1400,l),
(544,679,l),
(80,0,l)
);
}
);
width = 1252;
}
);
unicode = 88;
},
{
glyphname = Y;
kernLeft = Y;
kernRight = Y;
lastChange = "2023-09-28 13:05:21 +0000";
layers = (
{
anchors = (
{
name = bottom;
pos = (613,0);
},
{
name = top;
pos = (612,1395);
},
{
name = topleft;
pos = (50,1400);
}
);
hints = (
{
horizontal = 1;
origin = (0,8);
target = up;
type = BottomGhost;
},
{
horizontal = 1;
origin = (0,6);
target = down;
type = TopGhost;
},
{
origin = (0,8);
target = (0,1);
type = Stem;
}
);
layerId = m002;
shapes = (
{
closed = 1;
nodes = (
(712,0,l),
(712,696,l),
(1142,1400,l),
(1057,1400,l),
(670,777,l),
(239,1400,l),
(59,1400,l),
(532,696,l),
(532,0,l)
);
}
);
width = 1202;
},
{
anchors = (
{
name = bottom;
pos = (610,0);
},
{
name = top;
pos = (609,1395);
},
{
name = topleft;
pos = (47,1400);
}
);
hints = (
{
horizontal = 1;
origin = (0,8);
target = up;
type = BottomGhost;
},
{
horizontal = 1;
origin = (0,6);
target = down;
type = TopGhost;
},
{
origin = (0,8);
target = (0,1);
type = Stem;
}
);
layerId = "EA527B28-A18D-4603-BC3C-580F40CB1381";
shapes = (
{
closed = 1;
nodes = (
(740,0,l),
(740,698,l),
(1171,1400,l),
(997,1400,l),
(663,827,l),
(269,1400,l),
(23,1400,l),
(496,697,l),
(496,0,l)
);
}
);
width = 1196;
},
{
anchors = (
{
name = bottom;
pos = (582,0);
},
{
name = top;
pos = (581,1395);
},
{
name = topleft;
pos = (19,1400);
}
);
hints = (
{
horizontal = 1;
origin = (0,8);
target = up;
type = BottomGhost;
},
{
horizontal = 1;
origin = (0,6);
target = down;
type = TopGhost;
},
{
origin = (0,8);
target = (0,0);
type = Stem;
}
);
layerId = "19911AB5-6E30-4B50-A0ED-4C0BC5D1DB49";
shapes = (
{
closed = 1;
nodes = (
(683,0,l),
(683,705,l),
(1108,1400,l),
(1030,1400,l),
(640,770,l),
(204,1400,l),
(32,1400,l),
(499,705,l),
(499,0,l)
);
}
);
width = 1141;
}
);
unicode = 89;
},
{
glyphname = Z;
kernLeft = Z;
kernRight = Z;
lastChange = "2023-09-28 13:05:37 +0000";
layers = (
{
anchors = (
{
name = bottom;
pos = (620,0);
},
{
name = center;
pos = (661,700);
},
{
name = top;
pos = (616,1400);
}
);
hints = (
{
horizontal = 1;
origin = (0,11);
target = (0,10);
type = Stem;
},
{
horizontal = 1;
origin = (0,6);
target = (0,9);
type = Stem;
}
);
layerId = m002;
shapes = (
{
closed = 1;
nodes = (
(1097,-1,l),
(1097,146,l),
(734,86,l),
(298,85,l),
(1061,1319,l),
(1061,1400,l),
(95,1400,l),
(95,1256,l),
(458,1316,l),
(861,1317,l),
(96,84,l),
(96,-1,l)
);
}
);
width = 1185;
},
{
anchors = (
{
name = bottom;
pos = (608,0);
},
{
name = center;
pos = (649,700);
},
{
name = top;
pos = (604,1400);
}
);
hints = (
{
horizontal = 1;
origin = (0,11);
target = (0,10);
type = Stem;
},
{
horizontal = 1;
origin = (0,6);
target = (0,9);
type = Stem;
}
);
layerId = "EA527B28-A18D-4603-BC3C-580F40CB1381";
shapes = (
{
closed = 1;
nodes = (
(1108,0,l),
(1108,280,l),
(715,115,l),
(336,114,l),
(1073,1307,l),
(1073,1400,l),
(60,1400,l),
(60,1120,l),
(453,1288,l),
(801,1289,l),
(61,97,l),
(61,0,l)
);
}
);
width = 1162;
},
{
anchors = (
{
name = bottom;
pos = (587,0);
},
{
name = center;
pos = (628,700);
},
{
name = top;
pos = (583,1400);
}
);
hints = (
{
horizontal = 1;
origin = (0,9);
target = (0,8);
type = Stem;
},
{
horizontal = 1;
origin = (0,5);
target = (0,7);
type = Stem;
}
);
layerId = "19911AB5-6E30-4B50-A0ED-4C0BC5D1DB49";
shapes = (
{
closed = 1;
nodes = (
(1074,0,l),
(1074,59,l),
(245,58,l),
(1038,1340,l),
(1038,1400,l),
(52,1400,l),
(52,1344,l),
(848,1345,l),
(53,64,l),
(53,0,l)
);
}
);
width = 1123;
}
);
unicode = 90;
},
{
glyphname = a;
kernLeft = a;
lastChange = "2023-09-28 13:14:41 +0000";
layers = (
{
anchors = (
{
name = bottom;
pos = (593,-26);
},
{
name = ogonek;
pos = (1062,0);
},
{
name = top;
pos = (585,1028);
}
);
hints = (
{
horizontal = 1;
place = (-26, 154);
place = (-26, 154);
type = Stem;
},
{
horizontal = 1;
place = (1000, -20);
target = down;
type = TopGhost;
},
{
horizontal = 1;
place = (1028, 154);
place = (1028, 154);
type = Stem;
},
{
horizontal = 1;
place = (0, 21);
target = up;
type = BottomGhost;
},
{
place = (82, 154);
place = (82, 154);
type = Stem;
},
{
place = (917, 154);
place = (917, 154);
type = Stem;
},
{
place = (911, 160);
place = (911, 160);
type = Stem;
}
);
layerId = m002;
shapes = (
{
closed = 1;
nodes = (
(713,-26,o),
(823,44,o),
(875,120,cs),
(942,217,o),
(933,0,o),
(933,0,c),
(1080,0,l),
(1080,1000,l),
(933,1000,l),
(959,785,o),
(875,887,o),
(875,887,c),
(805,970,o),
(713,1028,o),
(585,1028,cs),
(311,1028,o),
(89,794,o),
(89,505,cs),
(89,212,o),
(314,-26,o),
(593,-26,cs)
);
},
{
closed = 1;
nodes = (
(393,58,o),
(274,281,o),
(274,500,cs),
(274,716,o),
(388,944,o),
(591,944,cs),
(792,944,o),
(893,719,o),
(893,487,cs),
(893,284,o),
(794,58,o),
(591,58,cs)
);
}
);
width = 1241;
},
{
anchors = (
{
name = bottom;
pos = (582,-26);
},
{
name = ogonek;
pos = (1051,0);
},
{
name = top;
pos = (574,1028);
}
);
hints = (
{
horizontal = 1;
place = (-26, 154);
place = (-26, 154);
type = Stem;
},
{
horizontal = 1;
place = (1000, -20);
target = down;
type = TopGhost;
},
{
horizontal = 1;
place = (1028, 154);
place = (1028, 154);
type = Stem;
},
{
horizontal = 1;
place = (0, 21);
target = up;
type = BottomGhost;
},
{
place = (82, 154);
place = (82, 154);
type = Stem;
},
{
place = (917, 154);
place = (917, 154);
type = Stem;
},
{
place = (911, 160);
place = (911, 160);
type = Stem;
}
);
layerId = "EA527B28-A18D-4603-BC3C-580F40CB1381";
shapes = (
{
closed = 1;
nodes = (
(718,-25,o),
(838,53,o),
(885,124,cs),
(881,118,o),
(882,116,o),
(879,1,c),
(1081,1,l),
(1081,1000,l),
(877,1000,l),
(893,874,o),
(894,873,o),
(883,885,cs),
(818,962,o),
(716,1027,o),
(576,1027,cs),
(288,1027,o),
(60,792,o),
(60,505,cs),
(60,215,o),
(291,-25,o),
(584,-25,cs)
);
},
{
closed = 1;
nodes = (
(415,86,o),
(308,286,o),
(308,500,cs),
(308,711,o),
(410,917,o),
(582,917,cs),
(749,917,o),
(841,714,o),
(841,487,cs),
(841,289,o),
(751,86,o),
(582,86,cs)
);
}
);
width = 1225;
},
{
anchors = (
{
name = bottom;
pos = (559,-26);
},
{
name = ogonek;
pos = (1028,0);
},
{
name = top;
pos = (551,1028);
}
);
hints = (
{
horizontal = 1;
place = (-26, 154);
place = (-26, 154);
type = Stem;
},
{
horizontal = 1;
place = (1000, -20);
target = down;
type = TopGhost;
},
{
horizontal = 1;
place = (1028, 154);
place = (1028, 154);
type = Stem;
},
{
horizontal = 1;
place = (0, 21);
target = up;
type = BottomGhost;
},
{
place = (82, 154);
place = (82, 154);
type = Stem;
},
{
place = (917, 154);
place = (917, 154);
type = Stem;
},
{
place = (911, 160);
place = (911, 160);
type = Stem;
}
);
layerId = "19911AB5-6E30-4B50-A0ED-4C0BC5D1DB49";
shapes = (
{
closed = 1;
nodes = (
(681,-26,o),
(793,47,o),
(844,117,cs),
(897,196,o),
(904,97,o),
(902,1,c),
(1087,1,l),
(1087,1000,l),
(904,1000,l),
(921,842,o),
(886,839,o),
(844,888,cs),
(776,967,o),
(681,1028,o),
(545,1028,cs),
(258,1028,o),
(34,792,o),
(34,506,cs),
(34,214,o),
(262,-26,o),
(553,-26,cs)
);
},
{
closed = 1;
nodes = (
(351,29,o),
(224,266,o),
(224,502,cs),
(224,730,o),
(346,972,o),
(551,972,cs),
(753,972,o),
(861,733,o),
(861,486,cs),
(861,270,o),
(757,29,o),
(551,29,cs)
);
}
);
width = 1176;
}
);
unicode = 97;
},
{
glyphname = ae;
kernLeft = ae;
kernRight = e;
lastChange = "2023-10-02 11:43:07 +0000";
layers = (
{
anchors = (
{
name = bottom;
pos = (855,1);
},
{
name = top;
pos = (875,1001);
}
);
hints = (
{
horizontal = 1;
place = (134, 113);
place = (134, 113);
type = Stem;
},
{
horizontal = 1;
place = (587, 40);
place = (587, 40);
type = Stem;
},
{
horizontal = 1;
place = (1005, -47);
place = (1005, -47);
type = Stem;
},
{
place = (47, 40);
place = (47, 40);
type = Stem;
},
{
place = (565, 40);
place = (565, 40);
type = Stem;
},
{
place = (1182, 100);
place = (1182, 100);
type = Stem;
},
{
place = (592, 137);
place = (592, 137);
type = Stem;
}
);
layerId = m002;
shapes = (
{
closed = 1;
nodes = (
(1492,-26,o),
(1671,98,o),
(1751,276,c),
(1664,276,l),
(1577,138,o),
(1425,83,o),
(1293,83,cs),
(1081,83,o),
(962,223,o),
(940,414,c),
(1787,414,l),
(1803,742,o),
(1590,1028,o),
(1292,1028,cs),
(1113,1028,o),
(956,925,o),
(875,773,c),
(795,927,o),
(642,1028,o),
(465,1028,cs),
(391,1028,o),
(316,1010,o),
(247,974,c),
(323,903,l),
(368,930,o),
(417,944,o),
(467,944,cs),
(662,944,o),
(786,772,o),
(788,594,c),
(400,594,ls),
(218,594,o),
(89,423,o),
(89,266,cs),
(89,97,o),
(231,-25,o),
(405,-25,cs),
(602,-25,o),
(776,96,o),
(855,262,c),
(932,92,o),
(1099,-26,o),
(1292,-26,cs)
);
},
{
closed = 1;
nodes = (
(317,90,o),
(269,184,o),
(269,274,cs),
(269,372,o),
(335,415,o),
(400,415,cs),
(787,415,l),
(760,268,o),
(661,90,o),
(433,90,cs)
);
},
{
closed = 1;
nodes = (
(956,783,o),
(1105,944,o),
(1292,944,cs),
(1478,944,o),
(1618,778,o),
(1633,593,c),
(936,593,l)
);
}
);
width = 1873;
},
{
anchors = (
{
name = bottom;
pos = (861,1);
},
{
name = top;
pos = (881,1001);
}
);
hints = (
{
horizontal = 1;
place = (134, 113);
place = (134, 113);
type = Stem;
},
{
horizontal = 1;
place = (587, 40);
place = (587, 40);
type = Stem;
},
{
horizontal = 1;
place = (1005, -47);
place = (1005, -47);
type = Stem;
},
{
place = (47, 40);
place = (47, 40);
type = Stem;
},
{
place = (565, 40);
place = (565, 40);
type = Stem;
},
{
place = (1182, 100);
place = (1182, 100);
type = Stem;
},
{
place = (592, 137);
place = (592, 137);
type = Stem;
}
);
layerId = "EA527B28-A18D-4603-BC3C-580F40CB1381";
shapes = (
{
closed = 1;
nodes = (
(1523,-41,o),
(1712,100,o),
(1787,283,c),
(1665,283,l),
(1576,147,o),
(1421,73,o),
(1299,73,cs),
(1116,73,o),
(1009,214,o),
(983,399,c),
(1827,399,l),
(1851,741,o),
(1624,1043,o),
(1298,1043,cs),
(1123,1043,o),
(970,955,o),
(881,831,c),
(794,956,o),
(644,1043,o),
(471,1043,cs),
(381,1043,o),
(285,1018,o),
(216,975,c),
(323,875,l),
(383,915,o),
(424,929,o),
(473,929,cs),
(639,929,o),
(751,781,o),
(759,609,c),
(406,609,ls),
(199,609,o),
(60,427,o),
(60,266,cs),
(60,91,o),
(217,-40,o),
(411,-40,cs),
(602,-40,o),
(769,62,o),
(860,198,c),
(948,59,o),
(1110,-41,o),
(1298,-41,cs)
);
},
{
closed = 1;
nodes = (
(352,74,o),
(249,123,o),
(245,263,cs),
(241,400,o),
(356,400,o),
(406,400,cs),
(755,400,l),
(726,252,o),
(665,74,o),
(439,74,cs)
);
},
{
closed = 1;
nodes = (
(1005,791,o),
(1137,929,o),
(1298,929,cs),
(1457,929,o),
(1582,787,o),
(1603,608,c),
(979,608,l)
);
}
);
width = 1881;
},
{
anchors = (
{
name = bottom;
pos = (800,1);
},
{
name = top;
pos = (820,1001);
}
);
hints = (
{
horizontal = 1;
place = (134, 113);
place = (134, 113);
type = Stem;
},
{
horizontal = 1;
place = (587, 40);
place = (587, 40);
type = Stem;
},
{
horizontal = 1;
place = (1005, -47);
place = (1005, -47);
type = Stem;
},
{
place = (47, 40);
place = (47, 40);
type = Stem;
},
{
place = (565, 40);
place = (565, 40);
type = Stem;
},
{
place = (1182, 100);
place = (1182, 100);
type = Stem;
},
{
place = (592, 137);
place = (592, 137);
type = Stem;
}
);
layerId = "19911AB5-6E30-4B50-A0ED-4C0BC5D1DB49";
shapes = (
{
closed = 1;
nodes = (
(1433,-11,o),
(1629,104,o),
(1709,287,c),
(1627,287,l),
(1525,102,o),
(1346,75,o),
(1238,75,cs),
(1023,75,o),
(901,221,o),
(883,429,c),
(1732,429,l),
(1741,742,o),
(1534,1013,o),
(1237,1013,cs),
(1054,1013,o),
(896,910,o),
(820,766,c),
(744,912,o),
(590,1013,o),
(410,1013,cs),
(340,1013,o),
(269,997,o),
(208,969,c),
(266,915,l),
(317,946,o),
(363,959,o),
(412,959,cs),
(608,959,o),
(737,772,o),
(732,579,c),
(345,579,ls),
(158,579,o),
(34,414,o),
(34,266,cs),
(34,108,o),
(171,-10,o),
(350,-10,cs),
(550,-10,o),
(725,111,o),
(800,268,c),
(872,107,o),
(1040,-11,o),
(1237,-11,cs)
);
},
{
closed = 1;
nodes = (
(288,112,o),
(214,178,o),
(214,274,cs),
(214,385,o),
(283,430,o),
(345,430,cs),
(735,430,l),
(708,278,o),
(587,112,o),
(363,112,cs)
);
},
{
closed = 1;
nodes = (
(893,786,o),
(1048,959,o),
(1237,959,cs),
(1424,959,o),
(1569,780,o),
(1579,578,c),
(879,578,l)
);
}
);
width = 1774;
}
);
metricLeft = a;
metricRight = o;
unicode = 230;
},
{
glyphname = b;
kernRight = o;
lastChange = "2023-09-28 13:09:27 +0000";
layers = (
{
anchors = (
{
name = bottom;
pos = (647,-26);
},
{
name = bottomright;
pos = (1082,1);
},
{
name = center;
pos = (681,506);
},
{
name = ogonek;
pos = (187,0);
},
{
name = top;
pos = (662,1303);
}
);
hints = (
{
horizontal = 1;
place = (1274, 1094);
place = (1274, 1094);
type = Stem;
},
{
horizontal = 1;
place = (220, 1402);
place = (220, 1402);
type = Stem;
},
{
horizontal = 1;
place = (1248, 21);
target = up;
type = BottomGhost;
},
{
place = (1145, 1083);
place = (1145, 1083);
type = Stem;
},
{
place = (301, 1094);
place = (301, 1094);
type = Stem;
},
{
place = (1145, 1083);
place = (1145, 1083);
type = Stem;
},
{
horizontal = 1;
place = (1274, 1094);
place = (1274, 1094);
type = Stem;
},
{
horizontal = 1;
place = (248, -20);
target = down;
type = TopGhost;
},
{
horizontal = 1;
place = (220, 1094);
place = (220, 1094);
type = Stem;
},
{
horizontal = 1;
place = (1248, 21);
target = up;
type = BottomGhost;
},
{
place = (1166, 1094);
place = (1166, 1094);
type = Stem;
},
{
place = (331, 1094);
place = (331, 1094);
type = Stem;
},
{
place = (337, 1088);
place = (337, 1088);
type = Stem;
}
);
layerId = m002;
shapes = (
{
closed = 1;
nodes = (
(935,-26,o),
(1160,212,o),
(1160,505,cs),
(1160,794,o),
(938,1028,o),
(664,1028,cs),
(536,1028,o),
(475,985,o),
(422,934,c),
(422,934,o),
(356,842,o),
(356,1000,cs),
(356,1400,l),
(176,1400,l),
(176,0,l),
(356,0,l),
(356,0,o),
(299,211,o),
(374,120,cs),
(431,51,o),
(505,-26,o),
(656,-26,cs)
);
},
{
closed = 1;
nodes = (
(455,58,o),
(356,284,o),
(356,487,cs),
(356,719,o),
(457,944,o),
(658,944,cs),
(861,944,o),
(975,716,o),
(975,500,cs),
(975,281,o),
(856,58,o),
(658,58,cs)
);
}
);
width = 1245;
},
{
anchors = (
{
name = bottom;
pos = (631,-26);
},
{
name = bottomright;
pos = (1066,1);
},
{
name = center;
pos = (665,506);
},
{
name = ogonek;
pos = (171,0);
},
{
name = top;
pos = (646,1303);
}
);
hints = (
{
horizontal = 1;
place = (1274, 1094);
place = (1274, 1094);
type = Stem;
},
{
horizontal = 1;
place = (220, 1402);
place = (220, 1402);
type = Stem;
},
{
horizontal = 1;
place = (1248, 21);
target = up;
type = BottomGhost;
},
{
place = (1145, 1083);
place = (1145, 1083);
type = Stem;
},
{
place = (301, 1094);
place = (301, 1094);
type = Stem;
},
{
place = (1145, 1083);
place = (1145, 1083);
type = Stem;
},
{
horizontal = 1;
place = (1274, 1094);
place = (1274, 1094);
type = Stem;
},
{
horizontal = 1;
place = (248, -20);
target = down;
type = TopGhost;
},
{
horizontal = 1;
place = (220, 1094);
place = (220, 1094);
type = Stem;
},
{
horizontal = 1;
place = (1248, 21);
target = up;
type = BottomGhost;
},
{
place = (1166, 1094);
place = (1166, 1094);
type = Stem;
},
{
place = (331, 1094);
place = (331, 1094);
type = Stem;
},
{
place = (337, 1088);
place = (337, 1088);
type = Stem;
}
);
layerId = "EA527B28-A18D-4603-BC3C-580F40CB1381";
shapes = (
{
closed = 1;
nodes = (
(935,-20,o),
(1167,216,o),
(1167,509,cs),
(1167,798,o),
(939,1036,o),
(648,1036,cs),
(508,1036,o),
(436,987,o),
(359,942,c),
(359,1400,l),
(135,1400,l),
(135,0,l),
(359,0,l),
(359,122,l),
(359,122,o),
(465,-28,o),
(640,-25,cs)
);
},
{
closed = 1;
nodes = (
(471,86,o),
(381,292,o),
(381,492,cs),
(381,719,o),
(473,924,o),
(642,924,cs),
(814,924,o),
(918,717,o),
(918,504,cs),
(918,289,o),
(810,86,o),
(642,86,cs)
);
}
);
width = 1219;
},
{
anchors = (
{
name = bottom;
pos = (600,-26);
},
{
name = bottomright;
pos = (1035,1);
},
{
name = center;
pos = (634,506);
},
{
name = ogonek;
pos = (140,0);
},
{
name = top;
pos = (615,1303);
}
);
hints = (
{
horizontal = 1;
place = (1274, 1094);
place = (1274, 1094);
type = Stem;
},
{
horizontal = 1;
place = (220, 1402);
place = (220, 1402);
type = Stem;
},
{
horizontal = 1;
place = (1248, 21);
target = up;
type = BottomGhost;
},
{
place = (1145, 1083);
place = (1145, 1083);
type = Stem;
},
{
place = (301, 1094);
place = (301, 1094);
type = Stem;
},
{
place = (1145, 1083);
place = (1145, 1083);
type = Stem;
},
{
horizontal = 1;
place = (1274, 1094);
place = (1274, 1094);
type = Stem;
},
{
horizontal = 1;
place = (248, -20);
target = down;
type = TopGhost;
},
{
horizontal = 1;
place = (220, 1094);
place = (220, 1094);
type = Stem;
},
{
horizontal = 1;
place = (1248, 21);
target = up;
type = BottomGhost;
},
{
place = (1166, 1094);
place = (1166, 1094);
type = Stem;
},
{
place = (331, 1094);
place = (331, 1094);
type = Stem;
},
{
place = (337, 1088);
place = (337, 1088);
type = Stem;
}
);
layerId = "19911AB5-6E30-4B50-A0ED-4C0BC5D1DB49";
shapes = (
{
closed = 1;
nodes = (
(898,-25,o),
(1124,213,o),
(1124,502,cs),
(1124,786,o),
(901,1021,o),
(617,1021,cs),
(476,1021,o),
(413,971,o),
(365,922,c),
(329,882,o),
(303,886,o),
(303,1007,cs),
(303,1400,l),
(119,1400,l),
(119,1,l),
(298,1,l),
(275,98,o),
(264,187,o),
(321,119,cs),
(375,54,o),
(452,-25,o),
(609,-25,cs)
);
},
{
closed = 1;
nodes = (
(407,31,o),
(303,269,o),
(303,483,cs),
(303,728,o),
(410,965,o),
(611,965,cs),
(814,965,o),
(936,725,o),
(936,496,cs),
(936,265,o),
(809,31,o),
(611,31,cs)
);
}
);
width = 1166;
}
);
metricRight = o;
unicode = 98;
},
{
glyphname = c;
lastChange = "2023-10-02 12:40:32 +0000";
layers = (
{
anchors = (
{
name = bottom;
pos = (578,-24);
},
{
name = top;
pos = (578,1028);
}
);
hints = (
{
horizontal = 1;
origin = (0,25);
target = (0,6);
type = Stem;
},
{
horizontal = 1;
origin = (0,19);
target = (0,15);
type = Stem;
},
{
origin = (0,22);
place = (85, 156);
type = Stem;
}
);
layerId = m002;
shapes = (
{
closed = 1;
nodes = (
(784,-24,o),
(953,84,o),
(1039,257,c),
(941,303,l),
(881,183,o),
(721,35,o),
(594,35,cs),
(369,35,o),
(268,318,o),
(270,506,cs),
(271,691,o),
(372,968,o),
(594,968,cs),
(721,968,o),
(845,816,o),
(905,694,c),
(1021,749,l),
(935,920,o),
(784,1028,o),
(594,1028,cs),
(320,1028,o),
(85,799,o),
(85,504,cs),
(85,207,o),
(320,-24,o),
(594,-24,cs)
);
}
);
width = 1098;
},
{
anchors = (
{
name = bottom;
pos = (570,-24);
},
{
name = top;
pos = (570,1028);
}
);
hints = (
{
horizontal = 1;
origin = (0,25);
target = (0,6);
type = Stem;
},
{
horizontal = 1;
origin = (0,19);
target = (0,15);
type = Stem;
},
{
origin = (0,22);
place = (52, 156);
type = Stem;
}
);
layerId = "EA527B28-A18D-4603-BC3C-580F40CB1381";
shapes = (
{
closed = 1;
nodes = (
(794,-30,o),
(975,91,o),
(1057,265,c),
(893,334,l),
(832,203,o),
(694,82,o),
(586,82,cs),
(393,82,o),
(300,319,o),
(302,505,cs),
(303,687,o),
(396,919,o),
(586,919,cs),
(692,919,o),
(830,803,o),
(893,669,c),
(1040,740,l),
(957,910,o),
(795,1031,o),
(586,1031,cs),
(294,1031,o),
(52,797,o),
(52,503,cs),
(52,206,o),
(294,-30,o),
(586,-30,cs)
);
}
);
width = 1085;
},
{
anchors = (
{
name = bottom;
pos = (553,-24);
},
{
name = top;
pos = (553,1028);
}
);
hints = (
{
horizontal = 1;
origin = (0,25);
target = (0,6);
type = Stem;
},
{
horizontal = 1;
origin = (0,19);
target = (0,15);
type = Stem;
},
{
origin = (0,22);
place = (42, 156);
type = Stem;
}
);
layerId = "19911AB5-6E30-4B50-A0ED-4C0BC5D1DB49";
shapes = (
{
closed = 1;
nodes = (
(764,-31,o),
(936,75,o),
(1023,235,c),
(913,287,l),
(845,155,o),
(697,25,o),
(571,25,cs),
(340,25,o),
(232,303,o),
(234,504,cs),
(235,703,o),
(343,975,o),
(571,975,cs),
(697,975,o),
(816,840,o),
(882,708,c),
(1006,766,l),
(919,926,o),
(764,1030,o),
(571,1030,cs),
(281,1030,o),
(42,797,o),
(42,502,cs),
(42,204,o),
(281,-31,o),
(571,-31,cs)
);
}
);
width = 1052;
}
);
metricLeft = o;
unicode = 99;
},
{
glyphname = eth;
kernLeft = o;
kernRight = eth;
lastChange = "2023-09-26 11:23:27 +0000";
layers = (
{
hints = (
{
horizontal = 1;
origin = (0,3);
target = (0,1);
type = Stem;
},
{
origin = (0,2);
target = (0,0);
type = Stem;
}
);
layerId = m002;
shapes = (
{
closed = 1;
nodes = (
(888,1487,l),
(814,1563,l),
(374,1133,l),
(451,1057,l)
);
},
{
alignment = -1;
pos = (-55,0);
ref = partialdiff;
}
);
width = 1228;
},
{
hints = (
{
horizontal = 1;
origin = (0,3);
target = (0,1);
type = Stem;
},
{
origin = (0,2);
target = (0,0);
type = Stem;
}
);
layerId = "EA527B28-A18D-4603-BC3C-580F40CB1381";
shapes = (
{
closed = 1;
nodes = (
(946,1487,l),
(838,1598,l),
(362,1133,l),
(474,1022,l)
);
},
{
alignment = -1;
pos = (-32,0);
ref = partialdiff;
}
);
width = 1237;
},
{
hints = (
{
horizontal = 1;
origin = (0,3);
target = (0,1);
type = Stem;
},
{
origin = (0,2);
target = (0,0);
type = Stem;
}
);
layerId = "19911AB5-6E30-4B50-A0ED-4C0BC5D1DB49";
shapes = (
{
closed = 1;
nodes = (
(904,1487,l),
(841,1552,l),
(412,1133,l),
(478,1068,l)
);
},
{
alignment = -1;
pos = (-28,0);
ref = partialdiff;
}
);
width = 1201;
}
);
metricLeft = "=o";
unicode = 240;
},
{
glyphname = dcroat;
lastChange = "2023-10-02 11:43:35 +0000";
layers = (
{
layerId = m002;
shapes = (
{
closed = 1;
nodes = (
(1238,1174,l),
(1238,1258,l),
(658,1258,l),
(658,1174,l)
);
},
{
ref = d;
}
);
width = 1245;
},
{
layerId = "EA527B28-A18D-4603-BC3C-580F40CB1381";
shapes = (
{
closed = 1;
nodes = (
(1288,1167,l),
(1288,1281,l),
(638,1281,l),
(638,1167,l)
);
},
{
pos = (-8,0);
ref = d;
}
);
width = 1243;
},
{
layerId = "19911AB5-6E30-4B50-A0ED-4C0BC5D1DB49";
shapes = (
{
closed = 1;
nodes = (
(1240,1174,l),
(1240,1258,l),
(660,1258,l),
(660,1174,l)
);
},
{
pos = (2,0);
ref = d;
}
);
width = 1244;
}
);
unicode = 273;
},
{
glyphname = e;
lastChange = "2023-09-26 11:23:27 +0000";
layers = (
{
anchors = (
{
name = bottom;
pos = (601,-30);
},
{
name = center;
pos = (579,500);
},
{
name = ogonek;
pos = (595,-30);
},
{
name = top;
pos = (579,1028);
},
{
name = topright;
pos = (1027,1000);
}
);
hints = (
{
horizontal = 1;
place = (-26, 84);
place = (-26, 84);
type = Stem;
},
{
horizontal = 1;
place = (431, 158);
place = (431, 158);
type = Stem;
},
{
horizontal = 1;
place = (1028, 84);
place = (1028, 84);
type = Stem;
},
{
place = (212, 0);
place = (212, 0);
type = Stem;
},
{
place = (919, 186);
place = (919, 186);
type = Stem;
},
{
horizontal = 1;
origin = (0,3);
target = (1,6);
type = Stem;
},
{
horizontal = 1;
origin = (0,2);
target = (0,10);
type = Stem;
},
{
origin = (0,5);
target = (0,11);
type = Stem;
},
{
origin = (1,6);
target = (0,20);
type = Stem;
}
);
layerId = m002;
shapes = (
{
closed = 1;
nodes = (
(705,-43,o),
(939,-17,o),
(1028,219,c),
(944,219,l),
(879,48,o),
(677,27,o),
(572,58,cs),
(399,110,o),
(275,257,o),
(256,449,c),
(1061,449,l),
(1061,533,l),
(1044,808,o),
(837,1028,o),
(579,1028,cs),
(298,1028,o),
(69,792,o),
(69,500,cs),
(69,210,o),
(269,3,o),
(544,-26,cs)
);
},
{
closed = 1;
nodes = (
(265,733,o),
(368,944,o),
(579,944,cs),
(793,944,o),
(894,710,o),
(876,533,c),
(255,533,l)
);
}
);
width = 1130;
},
{
anchors = (
{
name = bottom;
pos = (600,-30);
},
{
name = center;
pos = (578,500);
},
{
name = ogonek;
pos = (594,-30);
},
{
name = top;
pos = (578,1028);
},
{
name = topright;
pos = (1026,1000);
}
);
hints = (
{
horizontal = 1;
place = (-26, 84);
place = (-26, 84);
type = Stem;
},
{
horizontal = 1;
place = (431, 158);
place = (431, 158);
type = Stem;
},
{
horizontal = 1;
place = (1028, 84);
place = (1028, 84);
type = Stem;
},
{
place = (212, 0);
place = (212, 0);
type = Stem;
},
{
place = (919, 186);
place = (919, 186);
type = Stem;
},
{
horizontal = 1;
origin = (0,3);
target = (1,6);
type = Stem;
},
{
horizontal = 1;
origin = (0,2);
target = (0,10);
type = Stem;
},
{
origin = (0,5);
target = (0,11);
type = Stem;
},
{
origin = (1,6);
target = (0,20);
type = Stem;
}
);
layerId = "EA527B28-A18D-4603-BC3C-580F40CB1381";
shapes = (
{
closed = 1;
nodes = (
(705,-45,o),
(963,-8,o),
(1044,247,c),
(938,247,l),
(882,78,o),
(681,53,o),
(581,83,cs),
(433,127,o),
(322,256,o),
(298,437,c),
(1082,437,l),
(1082,533,l),
(1067,806,o),
(853,1032,o),
(578,1032,cs),
(282,1032,o),
(46,792,o),
(46,501,cs),
(46,213,o),
(249,2,o),
(540,-28,cs)
);
},
{
closed = 1;
nodes = (
(310,740,o),
(403,920,o),
(578,920,cs),
(755,920,o),
(846,717,o),
(836,548,c),
(296,548,l)
);
}
);
width = 1143;
},
{
anchors = (
{
name = bottom;
pos = (591,-30);
},
{
name = center;
pos = (569,500);
},
{
name = ogonek;
pos = (585,-30);
},
{
name = top;
pos = (569,1028);
},
{
name = topright;
pos = (1017,1000);
}
);
hints = (
{
horizontal = 1;
place = (-26, 84);
place = (-26, 84);
type = Stem;
},
{
horizontal = 1;
place = (431, 158);
place = (431, 158);
type = Stem;
},
{
horizontal = 1;
place = (1028, 84);
place = (1028, 84);
type = Stem;
},
{
place = (212, 0);
place = (212, 0);
type = Stem;
},
{
place = (919, 186);
place = (919, 186);
type = Stem;
},
{
horizontal = 1;
origin = (0,3);
target = (1,6);
type = Stem;
},
{
horizontal = 1;
origin = (0,2);
target = (0,10);
type = Stem;
},
{
origin = (0,5);
target = (0,11);
type = Stem;
},
{
origin = (1,6);
target = (0,20);
type = Stem;
}
);
layerId = "19911AB5-6E30-4B50-A0ED-4C0BC5D1DB49";
shapes = (
{
closed = 1;
nodes = (
(694,-45,o),
(923,3,o),
(1021,218,c),
(939,218,l),
(859,31,o),
(666,-1,o),
(562,29,cs),
(382,84,o),
(247,248,o),
(233,465,c),
(1069,465,l),
(1069,536,l),
(1052,810,o),
(841,1034,o),
(569,1034,cs),
(274,1034,o),
(40,794,o),
(40,503,cs),
(40,212,o),
(242,3,o),
(533,-28,cs)
);
},
{
closed = 1;
nodes = (
(238,740,o),
(348,978,o),
(569,978,cs),
(793,978,o),
(901,713,o),
(875,521,c),
(232,521,l)
);
}
);
width = 1114;
}
);
unicode = 101;
},
{
glyphname = f;
kernLeft = f;
kernRight = f;
lastChange = "2023-09-28 13:14:09 +0000";
layers = (
{
anchors = (
{
name = bottom;
pos = (252,0);
},
{
name = top;
pos = (303,1900);
}
);
hints = (
{
horizontal = 1;
place = (0, 21);
target = up;
type = BottomGhost;
},
{
horizontal = 1;
place = (1000, 140);
place = (1000, 140);
type = Stem;
},
{
horizontal = 1;
place = (1384, 140);
place = (1384, 140);
type = Stem;
},
{
place = (187, 140);
place = (187, 140);
type = Stem;
}
);
layerId = m002;
shapes = (
{
closed = 1;
nodes = (
(329,0,l),
(329,915,l),
(535,916,l),
(553,1000,l),
(329,999,l),
(331,1178,o),
(312,1420,o),
(498,1362,c),
(592,1322,l),
(626,1400,l),
(498,1430,ls),
(254,1487,o),
(148,1265,o),
(148,999,c),
(24,998,l),
(24,914,l),
(148,915,l),
(148,0,l)
);
}
);
width = 686;
},
{
anchors = (
{
name = bottom;
pos = (317,0);
},
{
name = top;
pos = (368,1900);
}
);
hints = (
{
horizontal = 1;
place = (0, 21);
target = up;
type = BottomGhost;
},
{
horizontal = 1;
place = (1000, 140);
place = (1000, 140);
type = Stem;
},
{
horizontal = 1;
place = (1384, 140);
place = (1384, 140);
type = Stem;
},
{
place = (187, 140);
place = (187, 140);
type = Stem;
}
);
layerId = "EA527B28-A18D-4603-BC3C-580F40CB1381";
shapes = (
{
closed = 1;
nodes = (
(435,0,l),
(435,828,l),
(611,828,l),
(629,1000,l),
(435,1000,l),
(437,1178,o),
(464,1338,o),
(574,1291,c),
(650,1258,l),
(702,1400,l),
(574,1430,ls),
(330,1487,o),
(195,1265,o),
(195,1000,c),
(46,1000,l),
(46,828,l),
(195,828,l),
(195,0,l)
);
}
);
width = 782;
},
{
anchors = (
{
name = bottom;
pos = (225,0);
},
{
name = top;
pos = (276,1900);
}
);
hints = (
{
horizontal = 1;
place = (0, 21);
target = up;
type = BottomGhost;
},
{
horizontal = 1;
place = (1000, 140);
place = (1000, 140);
type = Stem;
},
{
horizontal = 1;
place = (1384, 140);
place = (1384, 140);
type = Stem;
},
{
place = (187, 140);
place = (187, 140);
type = Stem;
}
);
layerId = "19911AB5-6E30-4B50-A0ED-4C0BC5D1DB49";
shapes = (
{
closed = 1;
nodes = (
(329,0,l),
(329,915,l),
(535,916,l),
(553,1000,l),
(329,999,l),
(331,1178,o),
(312,1420,o),
(498,1362,c),
(592,1322,l),
(626,1400,l),
(498,1430,ls),
(254,1487,o),
(148,1265,o),
(148,999,c),
(24,998,l),
(24,914,l),
(148,915,l),
(148,0,l)
);
}
);
width = 656;
}
);
unicode = 102;
},
{
glyphname = g;
kernLeft = g;
kernRight = g;
lastChange = "2023-10-02 12:42:45 +0000";
layers = (
{
anchors = (
{
name = bottom;
pos = (630,-431);
},
{
name = ogonek;
pos = (1028,0);
},
{
name = top;
pos = (585,1026);
}
);
hints = (
{
horizontal = 1;
place = (-500, 141);
place = (-500, 141);
type = Stem;
},
{
horizontal = 1;
place = (-26, 136);
place = (-26, 136);
type = Stem;
},
{
horizontal = 1;
place = (1000, -20);
target = down;
type = TopGhost;
},
{
horizontal = 1;
place = (1027, -136);
place = (1027, -136);
type = Stem;
},
{
place = (60, 143);
place = (60, 143);
type = Stem;
},
{
place = (907, 140);
place = (907, 140);
type = Stem;
},
{
place = (907, 148);
place = (907, 148);
type = Stem;
},
{
horizontal = 1;
place = (-26, 154);
place = (-26, 154);
type = Stem;
},
{
horizontal = 1;
place = (1000, -20);
target = down;
type = TopGhost;
},
{
horizontal = 1;
place = (1028, 154);
place = (1028, 154);
type = Stem;
},
{
horizontal = 1;
place = (0, 21);
target = up;
type = BottomGhost;
},
{
place = (48, 154);
place = (48, 154);
type = Stem;
},
{
place = (883, 154);
place = (883, 154);
type = Stem;
},
{
place = (877, 160);
place = (877, 160);
type = Stem;
}
);
layerId = m002;
shapes = (
{
closed = 1;
nodes = (
(929,-62,o),
(984,-297,o),
(791,-353,cs),
(642,-396,o),
(409,-278,o),
(245,-171,c),
(245,-306,l),
(397,-411,o),
(930,-524,o),
(1037,-263,cs),
(1074,-174,o),
(1075,-84,o),
(1075,11,c),
(929,11,l)
);
},
{
pos = (-4,0);
ref = a;
}
);
width = 1251;
},
{
anchors = (
{
name = bottom;
pos = (593,-431);
},
{
name = ogonek;
pos = (991,0);
},
{
name = top;
pos = (548,1026);
}
);
hints = (
{
horizontal = 1;
place = (-500, 141);
place = (-500, 141);
type = Stem;
},
{
horizontal = 1;
place = (-26, 136);
place = (-26, 136);
type = Stem;
},
{
horizontal = 1;
place = (1000, -20);
target = down;
type = TopGhost;
},
{
horizontal = 1;
place = (1027, -136);
place = (1027, -136);
type = Stem;
},
{
place = (60, 143);
place = (60, 143);
type = Stem;
},
{
place = (907, 140);
place = (907, 140);
type = Stem;
},
{
place = (907, 148);
place = (907, 148);
type = Stem;
},
{
horizontal = 1;
place = (-26, 154);
place = (-26, 154);
type = Stem;
},
{
horizontal = 1;
place = (1000, -20);
target = down;
type = TopGhost;
},
{
horizontal = 1;
place = (1028, 154);
place = (1028, 154);
type = Stem;
},
{
horizontal = 1;
place = (0, 21);
target = up;
type = BottomGhost;
},
{
place = (48, 154);
place = (48, 154);
type = Stem;
},
{
place = (883, 154);
place = (883, 154);
type = Stem;
},
{
place = (877, 160);
place = (877, 160);
type = Stem;
}
);
layerId = "EA527B28-A18D-4603-BC3C-580F40CB1381";
shapes = (
{
pos = (-8,0);
ref = a;
},
{
closed = 1;
nodes = (
(871,-28,o),
(911,-296,o),
(764,-353,cs),
(643,-400,o),
(399,-372,o),
(210,-205,c),
(193,-363,l),
(506,-512,o),
(910,-508,o),
(1028,-295,cs),
(1080,-201,o),
(1071,-76,o),
(1073,18,c),
(871,40,l)
);
}
);
width = 1217;
},
{
anchors = (
{
name = bottom;
pos = (605,-431);
},
{
name = ogonek;
pos = (1003,0);
},
{
name = top;
pos = (560,1026);
}
);
hints = (
{
horizontal = 1;
place = (-500, 141);
place = (-500, 141);
type = Stem;
},
{
horizontal = 1;
place = (-26, 136);
place = (-26, 136);
type = Stem;
},
{
horizontal = 1;
place = (1000, -20);
target = down;
type = TopGhost;
},
{
horizontal = 1;
place = (1027, -136);
place = (1027, -136);
type = Stem;
},
{
place = (60, 143);
place = (60, 143);
type = Stem;
},
{
place = (907, 140);
place = (907, 140);
type = Stem;
},
{
place = (907, 148);
place = (907, 148);
type = Stem;
},
{
horizontal = 1;
place = (-26, 154);
place = (-26, 154);
type = Stem;
},
{
horizontal = 1;
place = (1000, -20);
target = down;
type = TopGhost;
},
{
horizontal = 1;
place = (1028, 154);
place = (1028, 154);
type = Stem;
},
{
horizontal = 1;
place = (0, 21);
target = up;
type = BottomGhost;
},
{
place = (48, 154);
place = (48, 154);
type = Stem;
},
{
place = (883, 154);
place = (883, 154);
type = Stem;
},
{
place = (877, 160);
place = (877, 160);
type = Stem;
}
);
layerId = "19911AB5-6E30-4B50-A0ED-4C0BC5D1DB49";
shapes = (
{
pos = (8,0);
ref = a;
},
{
closed = 1;
nodes = (
(912,-51,o),
(921,-298,o),
(781,-342,cs),
(570,-409,o),
(426,-314,o),
(210,-178,c),
(210,-327,l),
(362,-432,o),
(948,-524,o),
(1055,-263,cs),
(1092,-174,o),
(1093,-84,o),
(1093,11,c),
(912,11,l)
);
}
);
width = 1184;
}
);
metricLeft = o;
unicode = 103;
},
{
glyphname = h;
kernLeft = h;
lastChange = "2023-09-28 13:20:20 +0000";
layers = (
{
anchors = (
{
name = bottom;
pos = (689,0);
},
{
name = center;
pos = (714,508);
},
{
name = top;
pos = (723,1400);
}
);
hints = (
{
horizontal = 1;
place = (0, 21);
target = up;
type = BottomGhost;
},
{
horizontal = 1;
place = (1026, 136);
place = (1026, 136);
type = Stem;
},
{
place = (120, 141);
place = (120, 141);
type = Stem;
},
{
place = (865, 140);
place = (865, 140);
type = Stem;
}
);
layerId = m002;
shapes = (
{
closed = 1;
nodes = (
(322,0,l),
(322,640,ls),
(322,867,o),
(443,968,o),
(601,968,cs),
(757,968,o),
(878,870,o),
(878,644,cs),
(878,0,l),
(1058,0,l),
(1058,642,l),
(1049,950,o),
(776,1024,o),
(601,1024,cs),
(486,1024,o),
(383,971,o),
(322,899,c),
(322,1400,l),
(137,1400,l),
(137,0,l)
);
}
);
width = 1197;
},
{
anchors = (
{
name = bottom;
pos = (588,0);
},
{
name = center;
pos = (613,508);
},
{
name = top;
pos = (622,1400);
}
);
hints = (
{
horizontal = 1;
place = (0, 21);
target = up;
type = BottomGhost;
},
{
horizontal = 1;
place = (1026, 136);
place = (1026, 136);
type = Stem;
},
{
place = (120, 141);
place = (120, 141);
type = Stem;
},
{
place = (865, 140);
place = (865, 140);
type = Stem;
}
);
layerId = "EA527B28-A18D-4603-BC3C-580F40CB1381";
shapes = (
{
closed = 1;
nodes = (
(326,0,l),
(326,642,ls),
(326,847,o),
(423,928,o),
(560,928,cs),
(696,928,o),
(792,851,o),
(792,646,cs),
(792,0,l),
(1037,0,l),
(1037,642,l),
(1017,905,o),
(745,1040,o),
(560,1040,cs),
(472,1040,o),
(390,1010,o),
(326,966,c),
(326,1400,l),
(81,1400,l),
(81,0,l)
);
}
);
width = 1135;
},
{
anchors = (
{
name = bottom;
pos = (618,0);
},
{
name = center;
pos = (643,508);
},
{
name = top;
pos = (652,1400);
}
);
hints = (
{
horizontal = 1;
place = (0, 21);
target = up;
type = BottomGhost;
},
{
horizontal = 1;
place = (1026, 136);
place = (1026, 136);
type = Stem;
},
{
place = (120, 141);
place = (120, 141);
type = Stem;
},
{
place = (865, 140);
place = (865, 140);
type = Stem;
}
);
layerId = "19911AB5-6E30-4B50-A0ED-4C0BC5D1DB49";
shapes = (
{
closed = 1;
nodes = (
(311,0,l),
(311,640,ls),
(311,867,o),
(432,968,o),
(590,968,cs),
(746,968,o),
(867,870,o),
(867,644,cs),
(867,0,l),
(1047,0,l),
(1047,642,l),
(1038,950,o),
(765,1024,o),
(590,1024,cs),
(475,1024,o),
(372,971,o),
(311,899,c),
(311,1400,l),
(126,1400,l),
(126,0,l)
);
}
);
width = 1144;
}
);
metricLeft = i;
unicode = 104;
},
{
glyphname = hbar;
lastChange = "2023-09-26 11:23:27 +0000";
layers = (
{
layerId = m002;
shapes = (
{
closed = 1;
nodes = (
(534,1160,l),
(534,1244,l),
(1,1244,l),
(1,1160,l)
);
},
{
ref = h;
}
);
width = 1196;
},
{
layerId = "EA527B28-A18D-4603-BC3C-580F40CB1381";
shapes = (
{
closed = 1;
nodes = (
(603,1145,l),
(603,1259,l),
(0,1259,l),
(0,1145,l)
);
},
{
pos = (34,0);
ref = h;
}
);
width = 1221;
},
{
layerId = "19911AB5-6E30-4B50-A0ED-4C0BC5D1DB49";
shapes = (
{
closed = 1;
nodes = (
(602,1163,l),
(602,1267,l),
(69,1267,l),
(69,1163,l)
);
},
{
pos = (60,0);
ref = h;
}
);
width = 1214;
}
);
unicode = 295;
},
{
glyphname = idotless;
kernLeft = n;
kernRight = i;
lastChange = "2023-09-28 13:35:42 +0000";
layers = (
{
anchors = (
{
name = bottom;
pos = (250,0);
},
{
name = oganek;
pos = (327,0);
},
{
name = top;
pos = (250,1000);
}
);
hints = (
{
horizontal = 1;
origin = (0,3);
target = up;
type = BottomGhost;
},
{
horizontal = 1;
origin = (0,2);
target = down;
type = TopGhost;
},
{
origin = (0,3);
target = (0,0);
type = Stem;
}
);
layerId = m002;
shapes = (
{
closed = 1;
nodes = (
(340,0,l),
(340,1000,l),
(160,1000,l),
(160,0,l)
);
}
);
width = 512;
},
{
anchors = (
{
name = bottom;
pos = (225,0);
},
{
name = oganek;
pos = (302,0);
},
{
name = top;
pos = (225,1000);
}
);
hints = (
{
horizontal = 1;
origin = (0,3);
target = up;
type = BottomGhost;
},
{
horizontal = 1;
origin = (0,1);
target = down;
type = TopGhost;
},
{
origin = (0,3);
target = (0,0);
type = Stem;
}
);
layerId = "EA527B28-A18D-4603-BC3C-580F40CB1381";
shapes = (
{
closed = 1;
nodes = (
(350,1,l),
(350,1000,l),
(100,1000,l),
(100,1,l)
);
}
);
width = 472;
},
{
anchors = (
{
name = bottom;
pos = (174,0);
},
{
name = oganek;
pos = (251,0);
},
{
name = top;
pos = (174,1000);
}
);
hints = (
{
horizontal = 1;
origin = (0,3);
target = up;
type = BottomGhost;
},
{
horizontal = 1;
origin = (0,2);
target = down;
type = TopGhost;
},
{
origin = (0,3);
target = (0,0);
type = Stem;
}
);
layerId = "19911AB5-6E30-4B50-A0ED-4C0BC5D1DB49";
shapes = (
{
closed = 1;
nodes = (
(275,0,l),
(275,1000,l),
(89,1000,l),
(89,0,l)
);
}
);
width = 364;
}
);
unicode = 305;
},
{
glyphname = jdotless;
kernLeft = j;
kernRight = j;
lastChange = "2023-10-02 11:26:33 +0000";
layers = (
{
anchors = (
{
name = top;
pos = (252,999);
}
);
layerId = m002;
shapes = (
{
closed = 1;
nodes = (
(245,-426,o),
(340,-176,o),
(340,33,cs),
(340,1001,l),
(160,1001,l),
(160,33,ls),
(160,-167,o),
(169,-368,o),
(-297,-188,c),
(-297,-368,l),
(-52,-394,ls)
);
}
);
width = 474;
},
{
anchors = (
{
name = top;
pos = (304,999);
}
);
layerId = "EA527B28-A18D-4603-BC3C-580F40CB1381";
shapes = (
{
closed = 1;
nodes = (
(140,-436,o),
(388,-343,o),
(388,-4,cs),
(388,999,l),
(148,999,l),
(148,46,ls),
(148,-157,o),
(170,-370,o),
(-305,-143,c),
(-305,-382,l),
(-24,-416,ls)
);
}
);
width = 493;
},
{
anchors = (
{
name = top;
pos = (401,999);
}
);
layerId = "19911AB5-6E30-4B50-A0ED-4C0BC5D1DB49";
shapes = (
{
closed = 1;
nodes = (
(343,-424,o),
(438,-174,o),
(438,35,cs),
(438,1003,l),
(258,1003,l),
(258,35,ls),
(258,-165,o),
(243,-365,o),
(-199,-186,c),
(-199,-366,l),
(46,-392,ls)
);
}
);
width = 589;
}
);
metricRight = i;
unicode = 567;
},
{
glyphname = k;
lastChange = "2023-10-02 11:26:52 +0000";
layers = (
{
anchors = (
{
name = bottom;
pos = (562,0);
},
{
name = top;
pos = (551,1424);
}
);
hints = (
{
horizontal = 1;
place = (0, 21);
target = up;
type = BottomGhost;
},
{
horizontal = 1;
place = (1000, -20);
target = down;
type = TopGhost;
},
{
place = (120, 140);
place = (120, 140);
type = Stem;
},
{
horizontal = 1;
place = (0, 21);
target = up;
type = BottomGhost;
},
{
horizontal = 1;
place = (1000, -20);
target = down;
type = TopGhost;
},
{
place = (120, 140);
place = (120, 140);
type = Stem;
}
);
layerId = m002;
shapes = (
{
closed = 1;
nodes = (
(317,0,l),
(317,350,l),
(467,476,l),
(795,0,l),
(1035,0,l),
(599,608,l),
(997,1000,l),
(900,1000,l),
(554,662,l),
(317,450,l),
(317,1400,l),
(137,1400,l),
(137,0,l)
);
}
);
width = 1069;
},
{
anchors = (
{
name = bottom;
pos = (531,0);
},
{
name = top;
pos = (520,1424);
}
);
hints = (
{
horizontal = 1;
place = (0, 21);
target = up;
type = BottomGhost;
},
{
horizontal = 1;
place = (1000, -20);
target = down;
type = TopGhost;
},
{
place = (120, 140);
place = (120, 140);
type = Stem;
},
{
horizontal = 1;
place = (0, 21);
target = up;
type = BottomGhost;
},
{
horizontal = 1;
place = (1000, -20);
target = down;
type = TopGhost;
},
{
place = (120, 140);
place = (120, 140);
type = Stem;
}
);
layerId = "EA527B28-A18D-4603-BC3C-580F40CB1381";
shapes = (
{
closed = 1;
nodes = (
(327,0,l),
(327,357,l),
(429,443,l),
(736,0,l),
(1039,0,l),
(602,610,l),
(1007,1008,l),
(821,1008,l),
(493,666,l),
(327,516,l),
(327,1400,l),
(81,1400,l),
(81,0,l)
);
}
);
width = 1040;
},
{
anchors = (
{
name = bottom;
pos = (561,0);
},
{
name = top;
pos = (550,1424);
}
);
hints = (
{
horizontal = 1;
place = (0, 21);
target = up;
type = BottomGhost;
},
{
horizontal = 1;
place = (1000, -20);
target = down;
type = TopGhost;
},
{
place = (120, 140);
place = (120, 140);
type = Stem;
},
{
horizontal = 1;
place = (0, 21);
target = up;
type = BottomGhost;
},
{
horizontal = 1;
place = (1000, -20);
target = down;
type = TopGhost;
},
{
place = (120, 140);
place = (120, 140);
type = Stem;
}
);
layerId = "19911AB5-6E30-4B50-A0ED-4C0BC5D1DB49";
shapes = (
{
closed = 1;
nodes = (
(310,0,l),
(310,354,l),
(463,481,l),
(794,0,l),
(1027,0,l),
(590,610,l),
(978,999,l),
(900,1000,l),
(548,645,l),
(310,434,l),
(310,1400,l),
(126,1400,l),
(126,0,l)
);
}
);
width = 1044;
}
);
metricLeft = i;
unicode = 107;
},
{
glyphname = l;
lastChange = "2023-09-28 14:13:15 +0000";
layers = (
{
anchors = (
{
name = bottom;
pos = (227,0);
},
{
name = center;
pos = (232,732);
},
{
name = top;
pos = (227,1500);
},
{
name = topright;
pos = (223,1503);
}
);
hints = (
{
origin = (0,3);
target = (0,0);
type = Stem;
}
);
layerId = m002;
shapes = (
{
closed = 1;
nodes = (
(318,0,l),
(317,1400,l),
(137,1400,l),
(137,0,l)
);
}
);
width = 452;
},
{
anchors = (
{
name = bottom;
pos = (202,0);
},
{
name = center;
pos = (207,732);
},
{
name = top;
pos = (202,1500);
},
{
name = topright;
pos = (198,1503);
}
);
hints = (
{
origin = (0,3);
target = (0,0);
type = Stem;
}
);
layerId = "EA527B28-A18D-4603-BC3C-580F40CB1381";
shapes = (
{
closed = 1;
nodes = (
(326,0,l),
(325,1400,l),
(81,1400,l),
(81,0,l)
);
}
);
width = 431;
},
{
anchors = (
{
name = bottom;
pos = (218,0);
},
{
name = center;
pos = (223,732);
},
{
name = top;
pos = (218,1500);
},
{
name = topright;
pos = (214,1503);
}
);
hints = (
{
origin = (0,3);
target = (0,0);
type = Stem;
}
);
layerId = "19911AB5-6E30-4B50-A0ED-4C0BC5D1DB49";
shapes = (
{
closed = 1;
nodes = (
(311,0,l),
(310,1400,l),
(126,1400,l),
(126,0,l)
);
}
);
width = 462;
}
);
metricLeft = i;
metricRight = i;
unicode = 108;
},
{
glyphname = lslash;
lastChange = "2023-09-26 11:23:27 +0000";
layers = (
{
layerId = m002;
shapes = (
{
closed = 1;
nodes = (
(519,778,l),
(520,882,l),
(1,746,l),
(0,642,l)
);
},
{
pos = (27,0);
ref = l;
}
);
width = 520;
},
{
layerId = "EA527B28-A18D-4603-BC3C-580F40CB1381";
shapes = (
{
closed = 1;
nodes = (
(589,757,l),
(590,895,l),
(1,741,l),
(0,603,l)
);
},
{
pos = (84,0);
ref = l;
}
);
width = 590;
},
{
layerId = "19911AB5-6E30-4B50-A0ED-4C0BC5D1DB49";
shapes = (
{
closed = 1;
nodes = (
(519,813,l),
(520,887,l),
(1,751,l),
(0,677,l)
);
},
{
pos = (28,0);
ref = l;
}
);
width = 520;
}
);
unicode = 322;
},
{
glyphname = m;
lastChange = "2023-09-28 13:23:57 +0000";
layers = (
{
anchors = (
{
name = bottom;
pos = (993,0);
},
{
name = top;
pos = (989,1000);
}
);
hints = (
{
horizontal = 1;
place = (0, 21);
target = up;
type = BottomGhost;
},
{
horizontal = 1;
place = (1020, 60);
place = (1020, 60);
type = Stem;
},
{
horizontal = 1;
place = (1000, -20);
target = down;
type = TopGhost;
},
{
place = (120, 140);
place = (120, 140);
type = Stem;
},
{
place = (812, 140);
place = (812, 140);
type = Stem;
},
{
place = (1503, 140);
place = (1503, 140);
type = Stem;
}
);
layerId = m002;
shapes = (
{
closed = 1;
nodes = (
(351,0,l),
(351,644,ls),
(351,854,o),
(466,947,o),
(622,947,cs),
(779,947,o),
(895,850,o),
(895,640,cs),
(895,0,l),
(1075,0,l),
(1075,644,ls),
(1075,854,o),
(1190,947,o),
(1346,947,cs),
(1503,947,o),
(1619,850,o),
(1619,640,cs),
(1619,0,l),
(1799,0,l),
(1799,636,l),
(1799,854,o),
(1589,1031,o),
(1346,1031,cs),
(1158,1031,o),
(1028,899,o),
(988,866,c),
(904,966,o),
(769,1031,o),
(622,1031,cs),
(455,1031,o),
(389,902,o),
(363,902,cs),
(329,902,o),
(347,954,o),
(351,1000,c),
(165,1000,l),
(165,0,l)
);
}
);
width = 1952;
},
{
anchors = (
{
name = bottom;
pos = (979,0);
},
{
name = top;
pos = (975,1000);
}
);
hints = (
{
horizontal = 1;
place = (0, 21);
target = up;
type = BottomGhost;
},
{
horizontal = 1;
place = (1020, 60);
place = (1020, 60);
type = Stem;
},
{
horizontal = 1;
place = (1000, -20);
target = down;
type = TopGhost;
},
{
place = (120, 140);
place = (120, 140);
type = Stem;
},
{
place = (812, 140);
place = (812, 140);
type = Stem;
},
{
place = (1503, 140);
place = (1503, 140);
type = Stem;
}
);
layerId = "EA527B28-A18D-4603-BC3C-580F40CB1381";
shapes = (
{
closed = 1;
nodes = (
(386,0,l),
(386,643,ls),
(386,847,o),
(481,924,o),
(617,924,cs),
(751,924,o),
(849,843,o),
(849,639,cs),
(849,0,l),
(1093,0,l),
(1093,643,ls),
(1093,847,o),
(1188,924,o),
(1323,924,cs),
(1458,924,o),
(1556,843,o),
(1556,639,cs),
(1556,0,l),
(1799,0,l),
(1799,635,l),
(1799,853,o),
(1579,1035,o),
(1323,1035,cs),
(1159,1035,o),
(1058,950,o),
(983,887,c),
(899,973,o),
(762,1035,o),
(617,1035,cs),
(487,1035,o),
(409,924,o),
(373,930,c),
(351,930,o),
(353,1004,o),
(353,1004,c),
(137,1004,l),
(137,0,l)
);
}
);
width = 1927;
},
{
anchors = (
{
name = bottom;
pos = (966,0);
},
{
name = top;
pos = (962,1000);
}
);
hints = (
{
horizontal = 1;
place = (0, 21);
target = up;
type = BottomGhost;
},
{
horizontal = 1;
place = (1020, 60);
place = (1020, 60);
type = Stem;
},
{
horizontal = 1;
place = (1000, -20);
target = down;
type = TopGhost;
},
{
place = (120, 140);
place = (120, 140);
type = Stem;
},
{
place = (812, 140);
place = (812, 140);
type = Stem;
},
{
place = (1503, 140);
place = (1503, 140);
type = Stem;
}
);
layerId = "19911AB5-6E30-4B50-A0ED-4C0BC5D1DB49";
shapes = (
{
closed = 1;
nodes = (
(300,0,l),
(300,651,ls),
(300,882,o),
(424,981,o),
(582,981,cs),
(742,981,o),
(865,879,o),
(865,647,cs),
(865,0,l),
(1051,0,l),
(1051,651,ls),
(1051,882,o),
(1174,981,o),
(1332,981,cs),
(1492,981,o),
(1615,879,o),
(1615,647,cs),
(1615,0,l),
(1801,0,l),
(1801,643,ls),
(1801,858,o),
(1588,1037,o),
(1332,1037,cs),
(1184,1037,o),
(1069,962,o),
(964,869,c),
(883,967,o),
(739,1037,o),
(582,1037,cs),
(454,1037,o),
(387,973,o),
(347,934,cs),
(331,918,o),
(324,904,o),
(314,904,cs),
(288,904,o),
(294,980,o),
(298,1006,c),
(108,1006,l),
(108,0,l)
);
}
);
width = 1908;
}
);
unicode = 109;
},
{
glyphname = n;
lastChange = "2023-09-28 13:24:32 +0000";
layers = (
{
anchors = (
{
name = bottom;
pos = (622,0);
},
{
name = top;
pos = (622,1032);
}
);
hints = (
{
horizontal = 1;
place = (0, 21);
target = up;
type = BottomGhost;
},
{
horizontal = 1;
place = (1028, 136);
place = (1028, 136);
type = Stem;
},
{
horizontal = 1;
place = (1000, -20);
target = down;
type = TopGhost;
},
{
place = (100, 140);
place = (100, 140);
type = Stem;
},
{
place = (857, 140);
place = (857, 140);
type = Stem;
}
);
layerId = m002;
shapes = (
{
closed = 1;
nodes = (
(351,0,l),
(351,644,ls),
(351,854,o),
(466,947,o),
(622,947,cs),
(779,947,o),
(895,850,o),
(895,640,cs),
(895,0,l),
(1075,0,l),
(1075,636,ls),
(1075,854,o),
(865,1031,o),
(622,1031,cs),
(455,1031,o),
(389,902,o),
(363,902,cs),
(329,902,o),
(347,954,o),
(351,1000,c),
(165,1000,l),
(165,0,l)
);
}
);
width = 1228;
},
{
anchors = (
{
name = bottom;
pos = (608,0);
},
{
name = top;
pos = (608,1032);
}
);
hints = (
{
horizontal = 1;
place = (0, 21);
target = up;
type = BottomGhost;
},
{
horizontal = 1;
origin = (0,13);
place = (1031, 136);
type = Stem;
},
{
horizontal = 1;
place = (1000, -20);
target = down;
type = TopGhost;
},
{
place = (100, 140);
place = (100, 140);
type = Stem;
},
{
place = (857, 140);
place = (857, 140);
type = Stem;
}
);
layerId = "EA527B28-A18D-4603-BC3C-580F40CB1381";
shapes = (
{
closed = 1;
nodes = (
(378,0,l),
(378,641,ls),
(378,844,o),
(473,921,o),
(608,921,cs),
(742,921,o),
(840,840,o),
(840,637,cs),
(840,0,l),
(1082,0,l),
(1082,633,ls),
(1082,850,o),
(863,1031,o),
(608,1031,cs),
(470,1031,o),
(407,906,o),
(357,906,cs),
(331,906,o),
(345,1001,o),
(345,1001,c),
(130,1001,l),
(130,0,l)
);
}
);
width = 1203;
},
{
anchors = (
{
name = bottom;
pos = (582,0);
},
{
name = top;
pos = (582,1032);
}
);
hints = (
{
horizontal = 1;
place = (0, 21);
target = up;
type = BottomGhost;
},
{
horizontal = 1;
place = (1028, 136);
place = (1028, 136);
type = Stem;
},
{
horizontal = 1;
place = (1000, -20);
target = down;
type = TopGhost;
},
{
place = (100, 140);
place = (100, 140);
type = Stem;
},
{
place = (857, 140);
place = (857, 140);
type = Stem;
}
);
layerId = "19911AB5-6E30-4B50-A0ED-4C0BC5D1DB49";
shapes = (
{
closed = 1;
nodes = (
(303,0,l),
(303,646,ls),
(303,874,o),
(426,973,o),
(581,973,cs),
(739,973,o),
(862,871,o),
(862,642,cs),
(862,0,l),
(1047,0,l),
(1047,638,ls),
(1047,851,o),
(835,1028,o),
(581,1028,cs),
(411,1028,o),
(350,896,o),
(315,896,cs),
(290,896,o),
(297,973,o),
(301,998,c),
(112,998,l),
(112,0,l)
);
}
);
width = 1157;
}
);
unicode = 110;
},
{
glyphname = o;
lastChange = "2024-02-16 10:42:10 +0000";
layers = (
{
anchors = (
{
name = bottom;
pos = (591,-26);
},
{
name = center;
pos = (595,500);
},
{
name = ogonek;
pos = (591,-26);
},
{
name = top;
pos = (591,1028);
},
{
name = topright;
pos = (1156,1000);
}
);
hints = (
{
horizontal = 1;
origin = (0,11);
target = (1,11);
type = Stem;
},
{
horizontal = 1;
origin = (0,5);
target = (1,5);
type = Stem;
},
{
origin = (0,8);
target = (1,2);
type = Stem;
},
{
origin = (1,8);
target = (0,2);
type = Stem;
}
);
layerId = m002;
shapes = (
{
closed = 1;
nodes = (
(891,-26,o),
(1147,210,o),
(1147,500,cs),
(1147,792,o),
(891,1028,o),
(615,1028,cs),
(340,1028,o),
(85,792,o),
(85,500,cs),
(85,210,o),
(340,-26,o),
(615,-26,cs)
);
},
{
closed = 1;
nodes = (
(419,58,o),
(274,244,o),
(270,500,cs),
(266,749,o),
(413,944,o),
(615,944,cs),
(816,944,o),
(958,750,o),
(962,500,cs),
(966,244,o),
(819,58,o),
(615,58,cs)
);
}
);
width = 1232;
},
{
anchors = (
{
name = bottom;
pos = (581,-26);
},
{
name = center;
pos = (585,500);
},
{
name = ogonek;
pos = (581,-26);
},
{
name = top;
pos = (581,1028);
},
{
name = topright;
pos = (1146,1000);
}
);
hints = (
{
horizontal = 1;
origin = (0,11);
target = (1,11);
type = Stem;
},
{
horizontal = 1;
origin = (0,5);
target = (1,5);
type = Stem;
},
{
origin = (0,8);
target = (1,2);
type = Stem;
},
{
origin = (1,8);
target = (0,2);
type = Stem;
}
);
layerId = "EA527B28-A18D-4603-BC3C-580F40CB1381";
shapes = (
{
closed = 1;
nodes = (
(898,-30,o),
(1160,212,o),
(1160,500,cs),
(1160,789,o),
(898,1031,o),
(605,1031,cs),
(313,1031,o),
(52,789,o),
(52,500,cs),
(52,212,o),
(313,-30,o),
(605,-30,cs)
);
},
{
closed = 1;
nodes = (
(438,82,o),
(302,227,o),
(302,500,cs),
(302,749,o),
(433,919,o),
(605,919,cs),
(777,919,o),
(910,750,o),
(910,500,cs),
(910,236,o),
(779,82,o),
(605,82,cs)
);
}
);
width = 1212;
},
{
anchors = (
{
name = bottom;
pos = (571,-26);
},
{
name = center;
pos = (575,500);
},
{
name = ogonek;
pos = (571,-26);
},
{
name = top;
pos = (571,1028);
},
{
name = topright;
pos = (1136,1000);
}
);
hints = (
{
horizontal = 1;
origin = (0,11);
target = (1,11);
type = Stem;
},
{
horizontal = 1;
origin = (0,5);
target = (1,5);
type = Stem;
},
{
origin = (0,8);
target = (1,2);
type = Stem;
},
{
origin = (1,8);
target = (0,2);
type = Stem;
}
);
layerId = "19911AB5-6E30-4B50-A0ED-4C0BC5D1DB49";
shapes = (
{
closed = 1;
nodes = (
(887,-33,o),
(1150,209,o),
(1150,499,cs),
(1150,792,o),
(887,1034,o),
(595,1034,cs),
(304,1034,o),
(42,792,o),
(42,499,cs),
(42,209,o),
(304,-33,o),
(595,-33,cs)
);
},
{
closed = 1;
nodes = (
(395,23,o),
(235,202,o),
(235,499,cs),
(235,789,o),
(389,978,o),
(595,978,cs),
(800,978,o),
(957,791,o),
(957,499,cs),
(957,211,o),
(803,23,o),
(595,23,cs)
);
}
);
width = 1192;
}
);
unicode = 111;
},
{
glyphname = oslash;
kernLeft = o;
kernRight = o;
lastChange = "2023-09-26 11:23:27 +0000";
layers = (
{
anchors = (
{
name = top;
pos = (620,1028);
}
);
hints = (
{
horizontal = 1;
place = (325, 2000);
place = (325, 2000);
type = Stem;
},
{
horizontal = 1;
place = (637, 2000);
place = (637, 2000);
type = Stem;
},
{
horizontal = 1;
origin = (0,10);
target = down;
type = TopGhost;
},
{
horizontal = 1;
origin = (0,22);
target = up;
type = BottomGhost;
},
{
origin = (0,18);
target = (1,2);
type = Stem;
},
{
origin = (2,3);
target = (0,6);
type = Stem;
}
);
layerId = m002;
shapes = (
{
closed = 1;
nodes = (
(413,23,l),
(475,-6,o),
(546,-26,o),
(620,-26,cs),
(896,-26,o),
(1155,210,o),
(1155,500,cs),
(1155,670,o),
(1045,819,o),
(929,915,c),
(977,999,l),
(873,1059,l),
(826,980,l),
(765,1011,o),
(695,1028,o),
(620,1028,cs),
(344,1028,o),
(85,792,o),
(85,500,cs),
(85,333,o),
(196,184,o),
(313,88,c),
(264,5,l),
(368,-55,l)
);
},
{
closed = 1;
nodes = (
(287,248,o),
(265,377,o),
(265,494,cs),
(265,775,o),
(541,1004,o),
(780,896,c),
(366,181,l)
);
},
{
closed = 1;
nodes = (
(878,825,l),
(956,757,o),
(975,623,o),
(975,506,cs),
(975,231,o),
(711,0,o),
(463,110,c)
);
}
);
width = 1240;
},
{
anchors = (
{
name = top;
pos = (622,1028);
}
);
hints = (
{
horizontal = 1;
place = (325, 2000);
place = (325, 2000);
type = Stem;
},
{
horizontal = 1;
place = (637, 2000);
place = (637, 2000);
type = Stem;
},
{
horizontal = 1;
origin = (0,10);
target = down;
type = TopGhost;
},
{
horizontal = 1;
origin = (0,22);
target = up;
type = BottomGhost;
},
{
origin = (0,18);
target = (1,2);
type = Stem;
},
{
origin = (2,3);
target = (0,6);
type = Stem;
}
);
layerId = "EA527B28-A18D-4603-BC3C-580F40CB1381";
shapes = (
{
closed = 1;
nodes = (
(434,-5,l),
(488,-26,o),
(555,-41,o),
(622,-41,cs),
(921,-41,o),
(1192,206,o),
(1192,500,cs),
(1192,664,o),
(1090,810,o),
(966,916,c),
(1015,1001,l),
(859,1091,l),
(810,1008,l),
(756,1030,o),
(689,1043,o),
(622,1043,cs),
(323,1043,o),
(52,796,o),
(52,500,cs),
(52,338,o),
(155,193,o),
(280,87,c),
(230,3,l),
(386,-87,l)
);
},
{
closed = 1;
nodes = (
(317,292,o),
(302,397,o),
(302,494,cs),
(302,764,o),
(534,966,o),
(745,891,c),
(360,227,l)
);
},
{
closed = 1;
nodes = (
(887,778,l),
(929,711,o),
(942,603,o),
(942,506,cs),
(942,241,o),
(720,38,o),
(502,115,c)
);
}
);
width = 1244;
},
{
anchors = (
{
name = top;
pos = (577,1028);
}
);
hints = (
{
horizontal = 1;
place = (325, 2000);
place = (325, 2000);
type = Stem;
},
{
horizontal = 1;
place = (637, 2000);
place = (637, 2000);
type = Stem;
},
{
horizontal = 1;
origin = (0,10);
target = down;
type = TopGhost;
},
{
horizontal = 1;
origin = (0,22);
target = up;
type = BottomGhost;
},
{
origin = (0,18);
target = (2,2);
type = Stem;
},
{
origin = (2,3);
target = (0,6);
type = Stem;
}
);
layerId = "19911AB5-6E30-4B50-A0ED-4C0BC5D1DB49";
shapes = (
{
closed = 1;
nodes = (
(373,35,l),
(430,9,o),
(502,-11,o),
(577,-11,cs),
(857,-11,o),
(1112,221,o),
(1112,500,cs),
(1112,664,o),
(1003,809,o),
(879,909,c),
(925,991,l),
(828,1047,l),
(780,968,l),
(724,996,o),
(653,1013,o),
(577,1013,cs),
(297,1013,o),
(42,781,o),
(42,500,cs),
(42,339,o),
(152,194,o),
(278,93,c),
(230,13,l),
(327,-43,l)
);
},
{
closed = 1;
nodes = (
(836,835,l),
(912,768,o),
(932,624,o),
(932,506,cs),
(932,220,o),
(667,-22,o),
(410,101,c)
);
},
{
closed = 1;
nodes = (
(245,237,o),
(222,375,o),
(222,494,cs),
(222,786,o),
(499,1027,o),
(747,905,c),
(321,171,l)
);
}
);
width = 1154;
}
);
metricLeft = o;
metricRight = o;
unicode = 248;
},
{
glyphname = thorn;
kernLeft = H;
kernRight = o;
lastChange = "2023-09-28 13:26:19 +0000";
layers = (
{
anchors = (
{
name = topright;
pos = (1075,999);
}
);
hints = (
{
horizontal = 1;
place = (-400, 21);
target = up;
type = BottomGhost;
},
{
horizontal = 1;
place = (-28, 154);
place = (-28, 154);
type = Stem;
},
{
horizontal = 1;
place = (1026, 154);
place = (1026, 154);
type = Stem;
},
{
horizontal = 1;
place = (1400, -20);
target = down;
type = TopGhost;
},
{
place = (153, 154);
place = (153, 154);
type = Stem;
},
{
place = (994, 154);
place = (994, 154);
type = Stem;
},
{
place = (153, 165);
place = (153, 165);
type = Stem;
},
{
horizontal = 1;
place = (-400, 21);
target = up;
type = BottomGhost;
},
{
horizontal = 1;
place = (-28, 154);
place = (-28, 154);
type = Stem;
},
{
horizontal = 1;
place = (1026, 154);
place = (1026, 154);
type = Stem;
},
{
horizontal = 1;
place = (1000, -20);
target = down;
type = TopGhost;
},
{
place = (103, 154);
place = (103, 154);
type = Stem;
},
{
place = (942, 154);
place = (942, 154);
type = Stem;
},
{
place = (103, 165);
place = (103, 165);
type = Stem;
},
{
horizontal = 1;
origin = (0,1);
place = (0, -1094);
type = Stem;
},
{
horizontal = 1;
origin = (0,1);
place = (0, -1402);
type = Stem;
},
{
horizontal = 1;
origin = (0,1);
target = down;
type = TopGhost;
},
{
origin = (0,1);
place = (349, -1083);
type = Stem;
},
{
origin = (0,1);
place = (349, -1094);
type = Stem;
},
{
origin = (0,1);
place = (349, -1083);
type = Stem;
},
{
horizontal = 1;
origin = (0,1);
place = (0, -1094);
type = Stem;
},
{
horizontal = 1;
origin = (0,1);
target = up;
type = BottomGhost;
},
{
horizontal = 1;
origin = (0,1);
place = (0, -1094);
type = Stem;
},
{
horizontal = 1;
origin = (0,1);
target = down;
type = TopGhost;
},
{
origin = (0,1);
place = (349, -1094);
type = Stem;
},
{
origin = (0,1);
place = (349, -1094);
type = Stem;
},
{
origin = (0,1);
place = (349, -1088);
type = Stem;
}
);
layerId = m002;
shapes = (
{
closed = 1;
nodes = (
(349,-400,l),
(349,0,ls),
(349,158,o),
(415,66,o),
(415,66,c),
(468,15,o),
(529,-28,o),
(657,-28,cs),
(931,-28,o),
(1153,206,o),
(1153,495,cs),
(1153,788,o),
(928,1026,o),
(649,1026,cs),
(529,1026,o),
(419,932,o),
(349,880,c),
(349,1400,l),
(165,1400,l),
(165,-400,l)
);
},
{
closed = 1;
nodes = (
(349,716,o),
(448,942,o),
(651,942,cs),
(849,942,o),
(968,719,o),
(968,500,cs),
(968,284,o),
(854,56,o),
(651,56,cs),
(450,56,o),
(349,281,o),
(349,513,cs)
);
}
);
width = 1241;
},
{
hints = (
{
horizontal = 1;
place = (-400, 21);
target = up;
type = BottomGhost;
},
{
horizontal = 1;
place = (-28, 154);
place = (-28, 154);
type = Stem;
},
{
horizontal = 1;
place = (1026, 154);
place = (1026, 154);
type = Stem;
},
{
horizontal = 1;
place = (1400, -20);
target = down;
type = TopGhost;
},
{
place = (153, 154);
place = (153, 154);
type = Stem;
},
{
place = (994, 154);
place = (994, 154);
type = Stem;
},
{
place = (153, 165);
place = (153, 165);
type = Stem;
},
{
horizontal = 1;
place = (-400, 21);
target = up;
type = BottomGhost;
},
{
horizontal = 1;
place = (-28, 154);
place = (-28, 154);
type = Stem;
},
{
horizontal = 1;
place = (1026, 154);
place = (1026, 154);
type = Stem;
},
{
horizontal = 1;
place = (1000, -20);
target = down;
type = TopGhost;
},
{
place = (103, 154);
place = (103, 154);
type = Stem;
},
{
place = (942, 154);
place = (942, 154);
type = Stem;
},
{
place = (103, 165);
place = (103, 165);
type = Stem;
},
{
horizontal = 1;
origin = (1,11);
place = (512, -1094);
type = Stem;
},
{
horizontal = 1;
origin = (1,11);
place = (512, -1402);
type = Stem;
},
{
horizontal = 1;
place = (498, -20);
target = down;
type = TopGhost;
},
{
origin = (0,16);
place = (92, -1083);
type = Stem;
},
{
origin = (0,16);
place = (92, -1094);
type = Stem;
},
{
origin = (0,16);
place = (92, -1083);
type = Stem;
},
{
horizontal = 1;
origin = (1,11);
place = (512, -1094);
type = Stem;
},
{
horizontal = 1;
place = (498, 21);
target = up;
type = BottomGhost;
},
{
horizontal = 1;
origin = (1,11);
place = (512, -1094);
type = Stem;
},
{
horizontal = 1;
place = (498, -20);
target = down;
type = TopGhost;
},
{
origin = (0,16);
place = (92, -1094);
type = Stem;
},
{
origin = (0,16);
place = (92, -1094);
type = Stem;
},
{
origin = (0,16);
place = (92, -1088);
type = Stem;
}
);
layerId = "EA527B28-A18D-4603-BC3C-580F40CB1381";
shapes = (
{
closed = 1;
nodes = (
(373,-400,l),
(373,0,l),
(383,66,o),
(502,-34,o),
(642,-34,cs),
(933,-34,o),
(1163,205,o),
(1163,496,cs),
(1163,789,o),
(930,1032,o),
(634,1032,cs),
(496,1032,o),
(332,826,o),
(332,884,c),
(332,1400,l),
(92,1400,l),
(92,-400,l)
);
},
{
closed = 1;
nodes = (
(373,714,o),
(464,920,o),
(636,920,cs),
(804,920,o),
(914,717,o),
(914,500,cs),
(914,286,o),
(808,78,o),
(636,78,cs),
(465,78,o),
(373,283,o),
(373,512,cs)
);
}
);
width = 1215;
},
{
anchors = (
{
name = topright;
pos = (1020,999);
}
);
hints = (
{
horizontal = 1;
place = (-400, 21);
target = up;
type = BottomGhost;
},
{
horizontal = 1;
place = (-28, 154);
place = (-28, 154);
type = Stem;
},
{
horizontal = 1;
place = (1026, 154);
place = (1026, 154);
type = Stem;
},
{
horizontal = 1;
place = (1400, -20);
target = down;
type = TopGhost;
},
{
place = (153, 154);
place = (153, 154);
type = Stem;
},
{
place = (994, 154);
place = (994, 154);
type = Stem;
},
{
place = (153, 165);
place = (153, 165);
type = Stem;
},
{
horizontal = 1;
place = (-400, 21);
target = up;
type = BottomGhost;
},
{
horizontal = 1;
place = (-28, 154);
place = (-28, 154);
type = Stem;
},
{
horizontal = 1;
place = (1026, 154);
place = (1026, 154);
type = Stem;
},
{
horizontal = 1;
place = (1000, -20);
target = down;
type = TopGhost;
},
{
place = (103, 154);
place = (103, 154);
type = Stem;
},
{
place = (942, 154);
place = (942, 154);
type = Stem;
},
{
place = (103, 165);
place = (103, 165);
type = Stem;
},
{
horizontal = 1;
place = (513, -1094);
place = (513, -1094);
type = Stem;
},
{
horizontal = 1;
place = (513, -1402);
place = (513, -1402);
type = Stem;
},
{
horizontal = 1;
place = (498, -20);
target = down;
type = TopGhost;
},
{
place = (278, -1083);
place = (278, -1083);
type = Stem;
},
{
place = (278, -1094);
place = (278, -1094);
type = Stem;
},
{
place = (278, -1083);
place = (278, -1083);
type = Stem;
},
{
horizontal = 1;
place = (513, -1094);
place = (513, -1094);
type = Stem;
},
{
horizontal = 1;
place = (513, 21);
target = up;
type = BottomGhost;
},
{
horizontal = 1;
place = (513, -1094);
place = (513, -1094);
type = Stem;
},
{
horizontal = 1;
place = (498, -20);
target = down;
type = TopGhost;
},
{
place = (278, -1094);
place = (278, -1094);
type = Stem;
},
{
place = (278, -1094);
place = (278, -1094);
type = Stem;
},
{
place = (278, -1088);
place = (278, -1088);
type = Stem;
}
);
layerId = "19911AB5-6E30-4B50-A0ED-4C0BC5D1DB49";
shapes = (
{
closed = 1;
nodes = (
(318,-399,l),
(318,1,ls),
(318,159,o),
(384,67,o),
(384,67,c),
(437,16,o),
(498,-27,o),
(626,-27,cs),
(900,-27,o),
(1122,207,o),
(1122,496,cs),
(1122,789,o),
(897,1027,o),
(618,1027,cs),
(498,1027,o),
(388,933,o),
(318,881,c),
(318,1401,l),
(134,1401,l),
(134,-399,l)
);
},
{
closed = 1;
nodes = (
(318,717,o),
(417,943,o),
(620,943,cs),
(818,943,o),
(937,720,o),
(937,501,cs),
(937,285,o),
(823,57,o),
(620,57,cs),
(419,57,o),
(318,282,o),
(318,514,cs)
);
}
);
width = 1141;
}
);
unicode = 254;
},
{
glyphname = r;
lastChange = "2023-09-28 13:27:26 +0000";
layers = (
{
anchors = (
{
name = bottom;
pos = (486,0);
},
{
name = top;
pos = (477,1000);
}
);
hints = (
{
horizontal = 1;
place = (0, 21);
target = up;
type = BottomGhost;
},
{
horizontal = 1;
place = (1002, 153);
place = (1002, 153);
type = Stem;
},
{
place = (100, 154);
place = (100, 154);
type = Stem;
},
{
horizontal = 1;
place = (0, 21);
target = up;
type = BottomGhost;
},
{
horizontal = 1;
place = (1028, 136);
place = (1028, 136);
type = Stem;
},
{
horizontal = 1;
place = (1000, -20);
target = down;
type = TopGhost;
},
{
place = (100, 140);
place = (100, 140);
type = Stem;
},
{
place = (857, 140);
place = (857, 140);
type = Stem;
}
);
layerId = m002;
shapes = (
{
closed = 1;
nodes = (
(349,0,l),
(349,645,ls),
(349,855,o),
(468,948,o),
(624,948,cs),
(700,948,o),
(766,925,o),
(814,878,c),
(829,988,l),
(767,1016,o),
(697,1032,o),
(624,1032,cs),
(457,1032,o),
(391,903,o),
(365,903,cs),
(331,903,o),
(349,955,o),
(353,1001,c),
(167,1001,l),
(167,0,l)
);
}
);
width = 866;
},
{
anchors = (
{
name = bottom;
pos = (491,0);
},
{
name = top;
pos = (482,1000);
}
);
hints = (
{
horizontal = 1;
place = (0, 21);
target = up;
type = BottomGhost;
},
{
horizontal = 1;
place = (1002, 153);
place = (1002, 153);
type = Stem;
},
{
place = (100, 154);
place = (100, 154);
type = Stem;
},
{
horizontal = 1;
place = (0, 21);
target = up;
type = BottomGhost;
},
{
horizontal = 1;
place = (1028, 136);
place = (1028, 136);
type = Stem;
},
{
horizontal = 1;
place = (1000, -20);
target = down;
type = TopGhost;
},
{
place = (100, 140);
place = (100, 140);
type = Stem;
},
{
place = (857, 140);
place = (857, 140);
type = Stem;
}
);
layerId = "EA527B28-A18D-4603-BC3C-580F40CB1381";
shapes = (
{
closed = 1;
nodes = (
(391,0,l),
(391,641,ls),
(391,843,o),
(491,920,o),
(625,920,cs),
(711,920,o),
(766,891,o),
(834,798,c),
(858,976,l),
(798,1008,o),
(711,1030,o),
(625,1030,cs),
(489,1030,o),
(400,899,o),
(373,905,cs),
(340,912,o),
(366,968,o),
(362,1000,c),
(147,1000,l),
(147,0,l)
);
}
);
width = 901;
},
{
anchors = (
{
name = bottom;
pos = (438,0);
},
{
name = top;
pos = (429,1000);
}
);
hints = (
{
horizontal = 1;
place = (0, 21);
target = up;
type = BottomGhost;
},
{
horizontal = 1;
place = (1002, 153);
place = (1002, 153);
type = Stem;
},
{
place = (100, 154);
place = (100, 154);
type = Stem;
},
{
horizontal = 1;
place = (0, 21);
target = up;
type = BottomGhost;
},
{
horizontal = 1;
place = (1028, 136);
place = (1028, 136);
type = Stem;
},
{
horizontal = 1;
place = (1000, -20);
target = down;
type = TopGhost;
},
{
place = (100, 140);
place = (100, 140);
type = Stem;
},
{
place = (857, 140);
place = (857, 140);
type = Stem;
}
);
layerId = "19911AB5-6E30-4B50-A0ED-4C0BC5D1DB49";
shapes = (
{
closed = 1;
nodes = (
(298,0,l),
(298,649,ls),
(298,878,o),
(424,976,o),
(580,976,cs),
(653,976,o),
(718,958,o),
(777,899,c),
(789,988,l),
(730,1016,o),
(656,1032,o),
(580,1032,cs),
(400,1032,o),
(344,899,o),
(314,899,cs),
(288,899,o),
(296,975,o),
(300,1000,c),
(110,1000,l),
(110,0,l)
);
}
);
width = 808;
}
);
unicode = 114;
},
{
glyphname = s;
kernLeft = s;
kernRight = s;
lastChange = "2024-02-16 10:43:53 +0000";
layers = (
{
anchors = (
{
name = bottom;
pos = (482,-21);
},
{
name = top;
pos = (482,1075);
}
);
hints = (
{
horizontal = 1;
place = (-19, 215);
place = (-19, 215);
type = Stem;
},
{
horizontal = 1;
place = (-19, 297);
place = (-19, 297);
type = Stem;
},
{
place = (50, 121);
place = (50, 121);
type = Stem;
},
{
place = (675, 134);
place = (675, 134);
type = Stem;
}
);
layerId = m002;
shapes = (
{
closed = 1;
nodes = (
(726,-25,o),
(916,106,o),
(917,276,cs),
(917,495,o),
(686,575,o),
(523,608,cs),
(343,647,o),
(234,674,o),
(234,797,cs),
(234,912,o),
(356,970,o),
(483,970,cs),
(622,970,o),
(773,897,o),
(844,805,c),
(885,877,l),
(812,970,o),
(622,1027,o),
(483,1027,cs),
(239,1027,o),
(122,890,o),
(122,740,cs),
(122,511,o),
(321,488,o),
(490,452,cs),
(676,412,o),
(735,325,o),
(735,225,cs),
(735,96,o),
(628,32,o),
(483,28,cs),
(413,26,o),
(234,55,o),
(180,221,c),
(87,221,l),
(138,64,o),
(322,-30,o),
(483,-28,cs)
);
}
);
width = 986;
},
{
anchors = (
{
name = bottom;
pos = (472,-21);
},
{
name = top;
pos = (472,1070);
}
);
hints = (
{
horizontal = 1;
place = (-19, 215);
place = (-19, 215);
type = Stem;
},
{
horizontal = 1;
place = (-19, 297);
place = (-19, 297);
type = Stem;
},
{
place = (50, 121);
place = (50, 121);
type = Stem;
},
{
place = (675, 134);
place = (675, 134);
type = Stem;
}
);
layerId = "EA527B28-A18D-4603-BC3C-580F40CB1381";
shapes = (
{
closed = 1;
nodes = (
(717,-24,o),
(916,112,o),
(917,291,cs),
(917,519,o),
(681,603,o),
(523,635,cs),
(358,670,o),
(235,708,o),
(235,803,cs),
(235,895,o),
(421,938,o),
(516,922,cs),
(639,901,o),
(715,866,o),
(805,780,c),
(876,879,l),
(780,971,o),
(664,1029,o),
(474,1029,cs),
(243,1029,o),
(60,908,o),
(60,750,cs),
(60,510,o),
(314,465,o),
(477,429,cs),
(639,395,o),
(677,324,o),
(677,242,cs),
(677,136,o),
(596,88,o),
(471,85,cs),
(403,83,o),
(235,81,o),
(171,241,c),
(48,241,l),
(117,51,o),
(298,-29,o),
(473,-27,cs)
);
}
);
width = 966;
},
{
hints = (
{
horizontal = 1;
place = (-19, 215);
place = (-19, 215);
type = Stem;
},
{
horizontal = 1;
place = (-19, 297);
place = (-19, 297);
type = Stem;
},
{
place = (50, 121);
place = (50, 121);
type = Stem;
},
{
place = (675, 134);
place = (675, 134);
type = Stem;
}
);
layerId = "19911AB5-6E30-4B50-A0ED-4C0BC5D1DB49";
shapes = (
{
closed = 1;
nodes = (
(663,-17,o),
(853,114,o),
(854,284,cs),
(854,503,o),
(623,583,o),
(460,616,cs),
(280,655,o),
(171,682,o),
(171,805,cs),
(171,920,o),
(293,978,o),
(420,978,cs),
(559,978,o),
(710,905,o),
(781,813,c),
(822,885,l),
(749,978,o),
(559,1035,o),
(420,1035,cs),
(176,1035,o),
(59,898,o),
(59,748,cs),
(59,519,o),
(258,496,o),
(427,460,cs),
(613,420,o),
(672,333,o),
(672,233,cs),
(672,104,o),
(565,40,o),
(420,36,cs),
(350,34,o),
(171,63,o),
(117,229,c),
(24,229,l),
(75,72,o),
(259,-22,o),
(420,-20,cs)
);
}
);
width = 912;
}
);
unicode = 115;
},
{
glyphname = saltillo;
lastChange = "2023-09-26 11:23:27 +0000";
layers = (
{
layerId = m002;
shapes = (
{
closed = 1;
nodes = (
(660,915,l),
(680,1412,l),
(520,1412,l),
(540,915,l)
);
}
);
width = 1200;
},
{
layerId = "EA527B28-A18D-4603-BC3C-580F40CB1381";
shapes = (
{
closed = 1;
nodes = (
(598,900,l),
(619,1427,l),
(388,1427,l),
(409,900,l)
);
}
);
width = 1006;
},
{
layerId = "19911AB5-6E30-4B50-A0ED-4C0BC5D1DB49";
shapes = (
{
closed = 1;
nodes = (
(148,930,l),
(166,1397,l),
(8,1397,l),
(26,930,l)
);
}
);
width = 174;
}
);
unicode = 42892;
},
{
glyphname = germandbls;
kernLeft = h;
kernRight = B;
lastChange = "2023-09-26 11:23:27 +0000";
layers = (
{
anchors = (
{
name = bottom;
pos = (587,0);
},
{
name = top;
pos = (587,1000);
}
);
hints = (
{
horizontal = 1;
origin = (0,38);
target = (0,20);
type = Stem;
},
{
horizontal = 1;
origin = (0,12);
target = (0,11);
type = Stem;
},
{
horizontal = 1;
origin = (0,4);
target = (0,34);
type = Stem;
},
{
origin = (0,38);
target = (0,0);
type = Stem;
},
{
origin = (0,16);
target = (0,25);
type = Stem;
},
{
origin = (0,7);
target = (0,31);
type = Stem;
}
);
layerId = m002;
shapes = (
{
closed = 1;
nodes = (
(340,0,l),
(340,979,ls),
(340,1142,o),
(444,1316,o),
(607,1316,cs),
(739,1316,o),
(821,1159,o),
(821,1018,cs),
(821,877,o),
(739,747,o),
(607,743,cs),
(580,742,l),
(580,660,l),
(670,659,ls),
(816,658,o),
(895,524,o),
(895,379,cs),
(895,241,o),
(816,84,o),
(670,84,cs),
(580,84,l),
(607,0,l),
(681,0,ls),
(890,0,o),
(1075,165,o),
(1075,379,cs),
(1075,526,o),
(984,679,o),
(824,717,c),
(930,774,o),
(1001,897,o),
(1001,1018,cs),
(1001,1231,o),
(824,1400,o),
(619,1400,cs),
(372,1400,o),
(160,1198,o),
(160,953,cs),
(160,0,l)
);
}
);
width = 1158;
},
{
anchors = (
{
name = bottom;
pos = (562,0);
},
{
name = top;
pos = (562,1000);
}
);
hints = (
{
horizontal = 1;
origin = (0,38);
target = (0,20);
type = Stem;
},
{
horizontal = 1;
origin = (0,12);
target = (0,11);
type = Stem;
},
{
horizontal = 1;
origin = (0,4);
target = (0,34);
type = Stem;
},
{
origin = (0,38);
target = (0,0);
type = Stem;
},
{
origin = (0,16);
target = (0,25);
type = Stem;
},
{
origin = (0,7);
target = (0,31);
type = Stem;
}
);
layerId = "EA527B28-A18D-4603-BC3C-580F40CB1381";
shapes = (
{
closed = 1;
nodes = (
(350,-15,l),
(350,979,ls),
(350,1143,o),
(445,1301,o),
(582,1301,cs),
(687,1301,o),
(761,1160,o),
(761,1018,cs),
(761,876,o),
(688,761,o),
(581,758,cs),
(520,756,l),
(520,645,l),
(645,644,ls),
(765,643,o),
(835,525,o),
(835,379,cs),
(835,240,o),
(764,99,o),
(645,99,cs),
(515,99,l),
(552,-15,l),
(656,-15,ls),
(887,-15,o),
(1085,160,o),
(1085,379,cs),
(1085,508,o),
(1013,663,o),
(844,721,c),
(951,791,o),
(1011,905,o),
(1011,1018,cs),
(1011,1236,o),
(821,1415,o),
(594,1415,cs),
(325,1415,o),
(100,1203,o),
(100,953,cs),
(100,-15,l)
);
}
);
width = 1123;
},
{
anchors = (
{
name = bottom;
pos = (547,0);
},
{
name = top;
pos = (547,1000);
}
);
hints = (
{
horizontal = 1;
origin = (0,38);
target = (0,20);
type = Stem;
},
{
horizontal = 1;
origin = (0,12);
target = (0,11);
type = Stem;
},
{
horizontal = 1;
origin = (0,4);
target = (0,34);
type = Stem;
},
{
origin = (0,38);
target = (0,0);
type = Stem;
},
{
origin = (0,16);
target = (0,25);
type = Stem;
},
{
origin = (0,7);
target = (0,31);
type = Stem;
}
);
layerId = "19911AB5-6E30-4B50-A0ED-4C0BC5D1DB49";
shapes = (
{
closed = 1;
nodes = (
(300,15,l),
(300,979,ls),
(300,1150,o),
(408,1331,o),
(567,1331,cs),
(695,1331,o),
(781,1167,o),
(781,1018,cs),
(781,868,o),
(695,732,o),
(567,728,cs),
(540,727,l),
(540,675,l),
(630,674,ls),
(773,673,o),
(855,533,o),
(855,379,cs),
(855,233,o),
(773,69,o),
(630,69,cs),
(546,69,l),
(564,15,l),
(641,15,ls),
(854,15,o),
(1035,176,o),
(1035,379,cs),
(1035,518,o),
(949,663,o),
(784,702,c),
(784,730,l),
(895,790,o),
(961,904,o),
(961,1018,cs),
(961,1220,o),
(788,1385,o),
(579,1385,cs),
(328,1385,o),
(120,1187,o),
(120,953,cs),
(120,15,l)
);
}
);
width = 1115;
}
);
unicode = 223;
},
{
glyphname = t;
kernLeft = t;
kernRight = t;
lastChange = "2023-09-28 13:31:53 +0000";
layers = (
{
anchors = (
{
name = bottom;
pos = (394,0);
},
{
name = center;
pos = (355,602);
},
{
name = top;
pos = (364,1400);
},
{
name = topright;
pos = (430,1059);
}
);
hints = (
{
horizontal = 1;
place = (0, 21);
target = up;
type = BottomGhost;
},
{
horizontal = 1;
place = (1000, 140);
place = (1000, 140);
type = Stem;
},
{
place = (208, 2000);
place = (208, 2000);
type = Stem;
}
);
layerId = m002;
shapes = (
{
closed = 1;
nodes = (
(266,0,o),
(446,0,o),
(446,0,c),
(446,916,l),
(787,916,l),
(787,1000,l),
(446,1000,l),
(446,1237,l),
(266,1237,l),
(266,1000,l),
(34,1000,l),
(34,916,l),
(266,916,l),
(266,0,l)
);
}
);
width = 821;
},
{
anchors = (
{
name = bottom;
pos = (408,0);
},
{
name = center;
pos = (324,602);
},
{
name = top;
pos = (318,1400);
},
{
name = topright;
pos = (317,1400);
}
);
associatedMasterId = m002;
hints = (
{
horizontal = 1;
place = (0, 21);
target = up;
type = BottomGhost;
},
{
horizontal = 1;
place = (1000, 140);
place = (1000, 140);
type = Stem;
},
{
place = (208, 2000);
place = (208, 2000);
type = Stem;
}
);
layerId = "660FA5A0-0F37-4735-AFD1-CA95D0F9E60E";
name = "13 Sep 23, 17:00";
shapes = (
{
closed = 1;
nodes = (
(539,916,l),
(948,916,l),
(948,1000,l),
(12,1001,l),
(12,916,l),
(361,916,l)
);
},
{
closed = 1;
nodes = (
(360,1,o),
(600,1,o),
(600,1,c),
(600,1,o),
(540,359,o),
(540,359,c),
(540,1237,l),
(360,1237,l),
(360,1,l)
);
}
);
width = 956;
},
{
anchors = (
{
name = bottom;
pos = (394,0);
},
{
name = center;
pos = (355,602);
},
{
name = top;
pos = (364,1400);
},
{
name = topright;
pos = (430,1059);
}
);
hints = (
{
horizontal = 1;
place = (0, 21);
target = up;
type = BottomGhost;
},
{
horizontal = 1;
place = (1000, 140);
place = (1000, 140);
type = Stem;
},
{
place = (208, 2000);
place = (208, 2000);
type = Stem;
}
);
layerId = "EA527B28-A18D-4603-BC3C-580F40CB1381";
shapes = (
{
closed = 1;
nodes = (
(481,0,l),
(481,901,l),
(822,901,l),
(822,1015,l),
(481,1015,l),
(481,1252,l),
(231,1252,l),
(231,1015,l),
(-1,1015,l),
(-1,901,l),
(231,901,l),
(231,0,l)
);
}
);
width = 821;
},
{
anchors = (
{
name = bottom;
pos = (408,0);
},
{
name = center;
pos = (324,602);
},
{
name = top;
pos = (318,1400);
},
{
name = topright;
pos = (317,1400);
}
);
associatedMasterId = "EA527B28-A18D-4603-BC3C-580F40CB1381";
hints = (
{
horizontal = 1;
place = (0, 21);
target = up;
type = BottomGhost;
},
{
horizontal = 1;
place = (1000, 140);
place = (1000, 140);
type = Stem;
},
{
place = (208, 2000);
place = (208, 2000);
type = Stem;
}
);
layerId = "A65438AF-A73C-4858-A182-17D18DE72253";
name = "13 Sep 23, 17:00";
shapes = (
{
closed = 1;
nodes = (
(539,916,l),
(948,916,l),
(948,1000,l),
(12,1001,l),
(12,916,l),
(361,916,l)
);
},
{
closed = 1;
nodes = (
(360,1,o),
(600,1,o),
(600,1,c),
(600,1,o),
(540,359,o),
(540,359,c),
(540,1237,l),
(360,1237,l),
(360,1,l)
);
}
);
width = 956;
},
{
anchors = (
{
name = bottom;
pos = (389,0);
},
{
name = center;
pos = (350,602);
},
{
name = top;
pos = (359,1400);
},
{
name = topright;
pos = (425,1059);
}
);
hints = (
{
horizontal = 1;
place = (0, 21);
target = up;
type = BottomGhost;
},
{
horizontal = 1;
place = (1000, 140);
place = (1000, 140);
type = Stem;
},
{
place = (208, 2000);
place = (208, 2000);
type = Stem;
}
);
layerId = "19911AB5-6E30-4B50-A0ED-4C0BC5D1DB49";
shapes = (
{
closed = 1;
nodes = (
(255,0,o),
(441,0,o),
(441,0,c),
(441,948,l),
(795,948,l),
(795,1005,l),
(441,1005,l),
(441,1250,l),
(255,1250,l),
(255,1005,l),
(15,1005,l),
(15,948,l),
(255,948,l),
(255,0,l)
);
}
);
width = 810;
},
{
anchors = (
{
name = bottom;
pos = (408,0);
},
{
name = center;
pos = (324,602);
},
{
name = top;
pos = (318,1400);
},
{
name = topright;
pos = (317,1400);
}
);
associatedMasterId = "19911AB5-6E30-4B50-A0ED-4C0BC5D1DB49";
hints = (
{
horizontal = 1;
place = (0, 21);
target = up;
type = BottomGhost;
},
{
horizontal = 1;
place = (1000, 140);
place = (1000, 140);
type = Stem;
},
{
place = (208, 2000);
place = (208, 2000);
type = Stem;
}
);
layerId = "4C66FE1B-3C4E-47ED-A2BE-1327B7D767AE";
name = "13 Sep 23, 17:00";
shapes = (
{
closed = 1;
nodes = (
(539,916,l),
(948,916,l),
(948,1000,l),
(12,1001,l),
(12,916,l),
(361,916,l)
);
},
{
closed = 1;
nodes = (
(360,1,o),
(600,1,o),
(600,1,c),
(600,1,o),
(540,359,o),
(540,359,c),
(540,1237,l),
(360,1237,l),
(360,1,l)
);
}
);
width = 956;
}
);
unicode = 116;
},
{
glyphname = v;
lastChange = "2023-09-28 13:32:22 +0000";
layers = (
{
anchors = (
{
name = bottom;
pos = (553,0);
},
{
name = top;
pos = (553,1000);
}
);
hints = (
{
horizontal = 1;
origin = (0,0);
target = up;
type = BottomGhost;
},
{
horizontal = 1;
origin = (0,1);
target = down;
type = TopGhost;
},
{
horizontal = 1;
origin = (0,0);
target = (0,3);
type = Stem;
}
);
layerId = m002;
shapes = (
{
closed = 1;
nodes = (
(633,-1,l),
(1026,1000,l),
(896,1000,l),
(585,154,l),
(239,1000,l),
(39,1000,l),
(453,-1,l)
);
}
);
width = 1066;
},
{
anchors = (
{
name = bottom;
pos = (537,0);
},
{
name = top;
pos = (537,1000);
}
);
hints = (
{
horizontal = 1;
origin = (0,0);
target = up;
type = BottomGhost;
},
{
horizontal = 1;
origin = (0,1);
target = down;
type = TopGhost;
},
{
horizontal = 1;
origin = (0,0);
target = (0,3);
type = Stem;
}
);
layerId = "EA527B28-A18D-4603-BC3C-580F40CB1381";
shapes = (
{
closed = 1;
nodes = (
(653,0,l),
(1051,1000,l),
(871,1000,l),
(582,214,l),
(264,1000,l),
(24,1000,l),
(438,0,l)
);
}
);
width = 1075;
},
{
anchors = (
{
name = bottom;
pos = (527,0);
},
{
name = top;
pos = (527,1000);
}
);
hints = (
{
horizontal = 1;
origin = (0,0);
target = up;
type = BottomGhost;
},
{
horizontal = 1;
origin = (0,1);
target = down;
type = TopGhost;
},
{
horizontal = 1;
origin = (0,0);
target = (0,3);
type = Stem;
}
);
layerId = "19911AB5-6E30-4B50-A0ED-4C0BC5D1DB49";
shapes = (
{
closed = 1;
nodes = (
(600,0,l),
(993,1000,l),
(863,1000,l),
(557,169,l),
(218,1000,l),
(19,1000,l),
(433,0,l)
);
}
);
width = 1013;
}
);
unicode = 118;
},
{
glyphname = w;
lastChange = "2023-09-28 13:32:47 +0000";
layers = (
{
anchors = (
{
name = bottom;
pos = (958,0);
},
{
name = top;
pos = (973,1000);
}
);
hints = (
{
horizontal = 1;
place = (0, 194);
place = (0, 194);
type = Stem;
},
{
horizontal = 1;
place = (1000, -20);
target = down;
type = TopGhost;
},
{
horizontal = 1;
place = (1000, 186);
place = (1000, 186);
type = Stem;
},
{
horizontal = 1;
origin = (0,3);
target = up;
type = BottomGhost;
},
{
horizontal = 1;
origin = (0,4);
target = down;
type = TopGhost;
},
{
horizontal = 1;
origin = (0,3);
target = (0,6);
type = Stem;
},
{
horizontal = 1;
origin = (0,0);
target = up;
type = BottomGhost;
},
{
horizontal = 1;
origin = (0,7);
target = down;
type = TopGhost;
},
{
horizontal = 1;
origin = (0,0);
target = (0,9);
type = Stem;
}
);
layerId = m002;
shapes = (
{
closed = 1;
nodes = (
(633,0,l),
(963,840,l),
(1311,0,l),
(1491,0,l),
(1884,1000,l),
(1754,1000,l),
(1443,154,l),
(1097,1000,l),
(896,1000,l),
(585,154,l),
(239,1000,l),
(39,1000,l),
(453,0,l)
);
}
);
width = 1924;
},
{
anchors = (
{
name = bottom;
pos = (958,0);
},
{
name = top;
pos = (973,1000);
}
);
hints = (
{
horizontal = 1;
place = (0, 194);
place = (0, 194);
type = Stem;
},
{
horizontal = 1;
place = (1000, -20);
target = down;
type = TopGhost;
},
{
horizontal = 1;
place = (1000, 186);
place = (1000, 186);
type = Stem;
},
{
horizontal = 1;
origin = (0,3);
target = up;
type = BottomGhost;
},
{
horizontal = 1;
origin = (0,4);
target = down;
type = TopGhost;
},
{
horizontal = 1;
origin = (0,3);
target = (0,6);
type = Stem;
},
{
horizontal = 1;
origin = (0,0);
target = up;
type = BottomGhost;
},
{
horizontal = 1;
origin = (0,7);
target = down;
type = TopGhost;
},
{
horizontal = 1;
origin = (0,0);
target = (0,9);
type = Stem;
}
);
layerId = "EA527B28-A18D-4603-BC3C-580F40CB1381";
shapes = (
{
closed = 1;
nodes = (
(662,-15,l),
(964,754,l),
(1283,-15,l),
(1520,-15,l),
(1925,1015,l),
(1725,1015,l),
(1442,243,l),
(1126,1015,l),
(867,1015,l),
(584,243,l),
(268,1015,l),
(-2,1015,l),
(425,-15,l)
);
}
);
width = 1924;
},
{
anchors = (
{
name = bottom;
pos = (957,0);
},
{
name = top;
pos = (972,1000);
}
);
hints = (
{
horizontal = 1;
place = (0, 194);
place = (0, 194);
type = Stem;
},
{
horizontal = 1;
place = (1000, -20);
target = down;
type = TopGhost;
},
{
horizontal = 1;
place = (1000, 186);
place = (1000, 186);
type = Stem;
},
{
horizontal = 1;
origin = (0,3);
target = up;
type = BottomGhost;
},
{
horizontal = 1;
origin = (0,4);
target = down;
type = TopGhost;
},
{
horizontal = 1;
origin = (0,3);
target = (0,6);
type = Stem;
},
{
horizontal = 1;
origin = (0,0);
target = up;
type = BottomGhost;
},
{
horizontal = 1;
origin = (0,7);
target = down;
type = TopGhost;
},
{
horizontal = 1;
origin = (0,0);
target = (0,9);
type = Stem;
}
);
layerId = "19911AB5-6E30-4B50-A0ED-4C0BC5D1DB49";
shapes = (
{
closed = 1;
nodes = (
(626,0,l),
(962,857,l),
(1316,0,l),
(1510,0,l),
(1903,1000,l),
(1773,1000,l),
(1456,138,l),
(1104,1000,l),
(889,1000,l),
(572,138,l),
(220,1000,l),
(19,1000,l),
(432,0,l)
);
}
);
width = 1923;
}
);
unicode = 119;
},
{
glyphname = x;
kernLeft = x;
kernRight = x;
lastChange = "2023-09-26 11:23:27 +0000";
layers = (
{
anchors = (
{
name = bottom;
pos = (510,0);
},
{
name = top;
pos = (519,1000);
}
);
hints = (
{
horizontal = 1;
origin = (0,11);
target = up;
type = BottomGhost;
},
{
horizontal = 1;
origin = (0,9);
target = down;
type = TopGhost;
}
);
layerId = m002;
shapes = (
{
closed = 1;
nodes = (
(200,0,l),
(481,386,l),
(761,0,l),
(961,0,l),
(581,524,l),
(927,1000,l),
(797,1000,l),
(516,614,l),
(236,1000,l),
(36,1000,l),
(416,476,l),
(70,0,l)
);
}
);
width = 998;
},
{
anchors = (
{
name = bottom;
pos = (512,0);
},
{
name = top;
pos = (521,1000);
}
);
hints = (
{
horizontal = 1;
origin = (0,11);
target = up;
type = BottomGhost;
},
{
horizontal = 1;
origin = (0,9);
target = down;
type = TopGhost;
}
);
layerId = "EA527B28-A18D-4603-BC3C-580F40CB1381";
shapes = (
{
closed = 1;
nodes = (
(226,-15,l),
(483,338,l),
(739,-15,l),
(1009,-15,l),
(618,524,l),
(975,1015,l),
(775,1015,l),
(518,662,l),
(262,1015,l),
(-8,1015,l),
(383,476,l),
(26,-15,l)
);
}
);
width = 1002;
},
{
anchors = (
{
name = bottom;
pos = (489,0);
},
{
name = top;
pos = (498,1000);
}
);
hints = (
{
horizontal = 1;
origin = (0,11);
target = up;
type = BottomGhost;
},
{
horizontal = 1;
origin = (0,9);
target = down;
type = TopGhost;
}
);
layerId = "19911AB5-6E30-4B50-A0ED-4C0BC5D1DB49";
shapes = (
{
closed = 1;
nodes = (
(173,0,l),
(460,392,l),
(744,0,l),
(937,0,l),
(556,525,l),
(901,1000,l),
(782,1000,l),
(495,608,l),
(211,1000,l),
(18,1000,l),
(399,475,l),
(54,0,l)
);
}
);
width = 955;
}
);
unicode = 120;
},
{
glyphname = y;
kernLeft = y;
kernRight = y;
lastChange = "2024-02-16 10:42:25 +0000";
layers = (
{
anchors = (
{
name = bottom;
pos = (629,-429);
},
{
name = ogonek;
pos = (582,-401);
},
{
name = top;
pos = (594,1000);
},
{
name = topright;
pos = (1018,997);
}
);
hints = (
{
horizontal = 1;
place = (-500, 21);
target = up;
type = BottomGhost;
},
{
horizontal = 1;
place = (1000, -20);
target = down;
type = TopGhost;
},
{
horizontal = 1;
place = (-27, 137);
place = (-27, 137);
type = Stem;
},
{
horizontal = 1;
place = (1000, -20);
target = down;
type = TopGhost;
},
{
horizontal = 1;
place = (0, 21);
target = up;
type = BottomGhost;
},
{
place = (120, 140);
place = (120, 140);
type = Stem;
},
{
place = (877, 140);
place = (877, 140);
type = Stem;
},
{
horizontal = 1;
place = (-27, 137);
place = (-27, 137);
type = Stem;
},
{
horizontal = 1;
place = (1000, -20);
target = down;
type = TopGhost;
},
{
horizontal = 1;
place = (0, 21);
target = up;
type = BottomGhost;
},
{
place = (120, 140);
place = (120, 140);
type = Stem;
},
{
place = (877, 140);
place = (877, 140);
type = Stem;
},
{
horizontal = 1;
place = (1001, -20);
target = down;
type = TopGhost;
},
{
horizontal = 1;
place = (-27, -136);
place = (-27, -136);
type = Stem;
},
{
horizontal = 1;
place = (1, 21);
target = up;
type = BottomGhost;
},
{
place = (973, -140);
place = (973, -140);
type = Stem;
},
{
place = (216, -140);
place = (216, -140);
type = Stem;
},
{
horizontal = 1;
place = (21, 21);
target = up;
type = BottomGhost;
},
{
horizontal = 1;
place = (1000, -20);
target = down;
type = TopGhost;
},
{
horizontal = 1;
place = (21, 133);
place = (21, 133);
type = Stem;
}
);
layerId = m002;
shapes = (
{
closed = 1;
nodes = (
(527,-424,o),
(598,-206,o),
(682,31,c),
(1062,1000,l),
(925,1000,l),
(622,162,l),
(280,1000,l),
(80,1000,l),
(480,22,l),
(560,-220,o),
(410,-286,o),
(284,-286,cs),
(155,-286,l),
(155,-424,l),
(316,-424,ls)
);
}
);
width = 1142;
},
{
anchors = (
{
name = bottom;
pos = (576,-429);
},
{
name = ogonek;
pos = (529,-401);
},
{
name = top;
pos = (541,1000);
},
{
name = topright;
pos = (965,997);
}
);
hints = (
{
horizontal = 1;
place = (-500, 21);
target = up;
type = BottomGhost;
},
{
horizontal = 1;
place = (1000, -20);
target = down;
type = TopGhost;
},
{
horizontal = 1;
place = (-27, 137);
place = (-27, 137);
type = Stem;
},
{
horizontal = 1;
place = (1000, -20);
target = down;
type = TopGhost;
},
{
horizontal = 1;
place = (0, 21);
target = up;
type = BottomGhost;
},
{
place = (120, 140);
place = (120, 140);
type = Stem;
},
{
place = (877, 140);
place = (877, 140);
type = Stem;
},
{
horizontal = 1;
place = (-27, 137);
place = (-27, 137);
type = Stem;
},
{
horizontal = 1;
place = (1000, -20);
target = down;
type = TopGhost;
},
{
horizontal = 1;
place = (0, 21);
target = up;
type = BottomGhost;
},
{
place = (120, 140);
place = (120, 140);
type = Stem;
},
{
place = (877, 140);
place = (877, 140);
type = Stem;
},
{
horizontal = 1;
place = (1001, -20);
target = down;
type = TopGhost;
},
{
horizontal = 1;
place = (-27, -136);
place = (-27, -136);
type = Stem;
},
{
horizontal = 1;
place = (1, 21);
target = up;
type = BottomGhost;
},
{
place = (973, -140);
place = (973, -140);
type = Stem;
},
{
place = (216, -140);
place = (216, -140);
type = Stem;
},
{
horizontal = 1;
place = (20, 21);
target = up;
type = BottomGhost;
},
{
horizontal = 1;
place = (985, -20);
target = down;
type = TopGhost;
},
{
horizontal = 1;
place = (20, 45);
place = (20, 45);
type = Stem;
}
);
layerId = "EA527B28-A18D-4603-BC3C-580F40CB1381";
shapes = (
{
closed = 1;
nodes = (
(484,-427,o),
(607,-205,o),
(691,32,c),
(1052,1001,l),
(883,1001,l),
(576,162,l),
(254,1000,l),
(14,1000,l),
(415,22,l),
(495,-220,o),
(370,-270,o),
(238,-270,cs),
(89,-270,l),
(89,-427,l),
(270,-427,ls)
);
}
);
width = 1076;
},
{
anchors = (
{
name = bottom;
pos = (576,-429);
},
{
name = ogonek;
pos = (529,-401);
},
{
name = top;
pos = (541,1000);
},
{
name = topright;
pos = (965,997);
}
);
hints = (
{
horizontal = 1;
place = (-500, 21);
target = up;
type = BottomGhost;
},
{
horizontal = 1;
place = (1000, -20);
target = down;
type = TopGhost;
},
{
horizontal = 1;
place = (-27, 137);
place = (-27, 137);
type = Stem;
},
{
horizontal = 1;
place = (1000, -20);
target = down;
type = TopGhost;
},
{
horizontal = 1;
place = (0, 21);
target = up;
type = BottomGhost;
},
{
place = (120, 140);
place = (120, 140);
type = Stem;
},
{
place = (877, 140);
place = (877, 140);
type = Stem;
},
{
horizontal = 1;
place = (-27, 137);
place = (-27, 137);
type = Stem;
},
{
horizontal = 1;
place = (1000, -20);
target = down;
type = TopGhost;
},
{
horizontal = 1;
place = (0, 21);
target = up;
type = BottomGhost;
},
{
place = (120, 140);
place = (120, 140);
type = Stem;
},
{
place = (877, 140);
place = (877, 140);
type = Stem;
},
{
horizontal = 1;
place = (1001, -20);
target = down;
type = TopGhost;
},
{
horizontal = 1;
place = (-27, -136);
place = (-27, -136);
type = Stem;
},
{
horizontal = 1;
place = (1, 21);
target = up;
type = BottomGhost;
},
{
place = (973, -140);
place = (973, -140);
type = Stem;
},
{
place = (216, -140);
place = (216, -140);
type = Stem;
},
{
horizontal = 1;
origin = (0,8);
target = up;
type = BottomGhost;
},
{
horizontal = 1;
origin = (0,3);
target = down;
type = TopGhost;
},
{
horizontal = 1;
origin = (0,8);
target = (0,5);
type = Stem;
}
);
layerId = "19911AB5-6E30-4B50-A0ED-4C0BC5D1DB49";
shapes = (
{
closed = 1;
nodes = (
(481,-424,o),
(552,-206,o),
(636,31,c),
(1016,1000,l),
(879,1000,l),
(576,162,l),
(234,1000,l),
(34,1000,l),
(434,22,l),
(514,-220,o),
(364,-286,o),
(238,-286,cs),
(109,-286,l),
(109,-424,l),
(270,-424,ls)
);
}
);
width = 1036;
}
);
unicode = 121;
},
{
glyphname = z;
kernLeft = z;
kernRight = z;
lastChange = "2023-09-28 13:35:02 +0000";
layers = (
{
anchors = (
{
name = bottom;
pos = (492,0);
},
{
name = center;
pos = (492,500);
},
{
name = top;
pos = (492,1000);
}
);
hints = (
{
horizontal = 1;
origin = (0,9);
target = (0,8);
type = Stem;
},
{
horizontal = 1;
origin = (0,4);
target = (0,7);
type = Stem;
}
);
layerId = m002;
shapes = (
{
closed = 1;
nodes = (
(819,0,l),
(819,85,l),
(284,85,l),
(800,917,l),
(800,1000,l),
(95,1000,l),
(95,917,l),
(600,917,l),
(84,85,l),
(84,0,l)
);
}
);
width = 902;
},
{
anchors = (
{
name = bottom;
pos = (482,0);
},
{
name = center;
pos = (482,500);
},
{
name = top;
pos = (482,1000);
}
);
hints = (
{
horizontal = 1;
origin = (0,9);
target = (0,8);
type = Stem;
},
{
horizontal = 1;
origin = (0,4);
target = (0,7);
type = Stem;
}
);
layerId = "EA527B28-A18D-4603-BC3C-580F40CB1381";
shapes = (
{
closed = 1;
nodes = (
(832,0,l),
(832,111,l),
(322,111,l),
(813,905,l),
(813,1000,l),
(62,1000,l),
(62,891,l),
(542,891,l),
(51,97,l),
(51,0,l)
);
}
);
width = 882;
},
{
anchors = (
{
name = bottom;
pos = (452,0);
},
{
name = center;
pos = (452,500);
},
{
name = top;
pos = (452,1000);
}
);
hints = (
{
horizontal = 1;
origin = (0,9);
target = (0,8);
type = Stem;
},
{
horizontal = 1;
origin = (0,4);
target = (0,7);
type = Stem;
}
);
layerId = "19911AB5-6E30-4B50-A0ED-4C0BC5D1DB49";
shapes = (
{
closed = 1;
nodes = (
(790,0,l),
(790,57,l),
(224,57,l),
(770,938,l),
(770,1000,l),
(43,1000,l),
(43,945,l),
(579,945,l),
(32,64,l),
(32,0,l)
);
}
);
width = 821;
}
);
unicode = 122;
},
{
glyphname = ordmasculine;
kernLeft = o;
kernRight = o;
lastChange = "2023-09-26 11:23:27 +0000";
layers = (
{
anchors = (
{
name = bottom;
pos = (329,-26);
},
{
name = center;
pos = (333,500);
},
{
name = ogonek;
pos = (329,-26);
},
{
name = top;
pos = (329,1028);
},
{
name = topright;
pos = (894,1000);
}
);
hints = (
{
horizontal = 1;
origin = (0,11);
target = (1,11);
type = Stem;
},
{
horizontal = 1;
origin = (0,5);
target = (1,5);
type = Stem;
},
{
origin = (0,8);
target = (1,2);
type = Stem;
},
{
origin = (1,8);
target = (0,2);
type = Stem;
}
);
layerId = m002;
shapes = (
{
closed = 1;
nodes = (
(503,873,o),
(637,996,o),
(637,1146,cs),
(637,1296,o),
(503,1419,o),
(361,1419,cs),
(219,1419,o),
(85,1296,o),
(85,1146,cs),
(85,996,o),
(219,873,o),
(361,873,cs)
);
},
{
closed = 1;
nodes = (
(259,916,o),
(182,1034,o),
(182,1146,cs),
(182,1253,o),
(255,1376,o),
(361,1376,cs),
(464,1376,o),
(540,1254,o),
(540,1146,cs),
(540,1039,o),
(467,916,o),
(361,916,cs)
);
}
);
width = 722;
},
{
anchors = (
{
name = bottom;
pos = (331,-26);
},
{
name = center;
pos = (335,500);
},
{
name = ogonek;
pos = (331,-26);
},
{
name = top;
pos = (331,1028);
},
{
name = topright;
pos = (896,1000);
}
);
hints = (
{
horizontal = 1;
origin = (0,11);
target = (1,11);
type = Stem;
},
{
horizontal = 1;
origin = (0,5);
target = (1,5);
type = Stem;
},
{
origin = (0,8);
target = (1,2);
type = Stem;
},
{
origin = (1,8);
target = (0,2);
type = Stem;
}
);
layerId = "EA527B28-A18D-4603-BC3C-580F40CB1381";
shapes = (
{
closed = 1;
nodes = (
(528,858,o),
(674,992,o),
(674,1146,cs),
(674,1300,o),
(528,1434,o),
(363,1434,cs),
(198,1434,o),
(52,1300,o),
(52,1146,cs),
(52,992,o),
(198,858,o),
(363,858,cs)
);
},
{
closed = 1;
nodes = (
(286,931,o),
(219,1033,o),
(219,1146,cs),
(219,1254,o),
(283,1361,o),
(363,1361,cs),
(441,1361,o),
(507,1255,o),
(507,1146,cs),
(507,1038,o),
(443,931,o),
(363,931,cs)
);
}
);
width = 726;
},
{
anchors = (
{
name = bottom;
pos = (286,-26);
},
{
name = center;
pos = (290,500);
},
{
name = ogonek;
pos = (286,-26);
},
{
name = top;
pos = (286,1028);
},
{
name = topright;
pos = (851,1000);
}
);
hints = (
{
horizontal = 1;
origin = (0,11);
target = (1,11);
type = Stem;
},
{
horizontal = 1;
origin = (0,5);
target = (1,5);
type = Stem;
},
{
origin = (0,8);
target = (1,2);
type = Stem;
},
{
origin = (1,8);
target = (0,2);
type = Stem;
}
);
layerId = "19911AB5-6E30-4B50-A0ED-4C0BC5D1DB49";
shapes = (
{
closed = 1;
nodes = (
(464,888,o),
(594,1007,o),
(594,1146,cs),
(594,1285,o),
(464,1404,o),
(318,1404,cs),
(172,1404,o),
(42,1285,o),
(42,1146,cs),
(42,1007,o),
(172,888,o),
(318,888,cs)
);
},
{
closed = 1;
nodes = (
(220,901,o),
(139,1025,o),
(139,1146,cs),
(139,1261,o),
(216,1391,o),
(318,1391,cs),
(417,1391,o),
(497,1263,o),
(497,1146,cs),
(497,1031,o),
(420,901,o),
(318,901,cs)
);
}
);
width = 636;
}
);
metricLeft = o;
metricRight = o;
unicode = 186;
},
{
glyphname = Gamma;
kernLeft = H;
kernRight = H;
lastChange = "2023-09-28 13:36:51 +0000";
layers = (
{
layerId = m002;
shapes = (
{
closed = 1;
nodes = (
(389,0,l),
(389,1316,l),
(1088,1316,l),
(1088,1400,l),
(209,1400,l),
(209,0,l)
);
}
);
width = 1162;
},
{
layerId = "EA527B28-A18D-4603-BC3C-580F40CB1381";
shapes = (
{
closed = 1;
nodes = (
(406,0,l),
(406,1288,l),
(1091,1288,l),
(1091,1400,l),
(162,1400,l),
(162,0,l)
);
}
);
width = 1132;
},
{
layerId = "19911AB5-6E30-4B50-A0ED-4C0BC5D1DB49";
shapes = (
{
closed = 1;
nodes = (
(318,1,l),
(318,1344,l),
(1031,1344,l),
(1031,1400,l),
(134,1400,l),
(134,1,l)
);
}
);
width = 1073;
}
);
unicode = 915;
},
{
glyphname = Delta;
kernLeft = W;
kernRight = W;
lastChange = "2023-09-26 11:23:27 +0000";
layers = (
{
anchors = (
{
name = bottom;
pos = (681,0);
},
{
name = ogonek;
pos = (1176,0);
},
{
name = top;
pos = (667,1415);
}
);
hints = (
{
horizontal = 1;
place = (0, 21);
target = up;
type = BottomGhost;
},
{
horizontal = 1;
place = (432, 154);
place = (432, 154);
type = Stem;
},
{
horizontal = 1;
place = (1399, 215);
place = (1399, 215);
type = Stem;
}
);
layerId = m002;
shapes = (
{
closed = 1;
nodes = (
(1284,0,l),
(795,1400,l),
(586,1400,l),
(73,0,l)
);
},
{
closed = 1;
nodes = (
(642,1295,l),
(1065,84,l),
(198,84,l)
);
}
);
width = 1358;
},
{
anchors = (
{
name = bottom;
pos = (674,0);
},
{
name = ogonek;
pos = (1169,0);
},
{
name = top;
pos = (660,1415);
}
);
hints = (
{
horizontal = 1;
place = (0, 21);
target = up;
type = BottomGhost;
},
{
horizontal = 1;
place = (432, 154);
place = (432, 154);
type = Stem;
},
{
horizontal = 1;
place = (1399, 215);
place = (1399, 215);
type = Stem;
}
);
layerId = "EA527B28-A18D-4603-BC3C-580F40CB1381";
shapes = (
{
closed = 1;
nodes = (
(1317,-15,l),
(818,1415,l),
(550,1415,l),
(26,-15,l)
);
},
{
closed = 1;
nodes = (
(635,1198,l),
(1018,99,l),
(232,99,l)
);
}
);
width = 1344;
},
{
anchors = (
{
name = bottom;
pos = (651,0);
},
{
name = ogonek;
pos = (1146,0);
},
{
name = top;
pos = (637,1415);
}
);
hints = (
{
horizontal = 1;
place = (0, 21);
target = up;
type = BottomGhost;
},
{
horizontal = 1;
place = (432, 154);
place = (432, 154);
type = Stem;
},
{
horizontal = 1;
place = (1399, 215);
place = (1399, 215);
type = Stem;
}
);
layerId = "19911AB5-6E30-4B50-A0ED-4C0BC5D1DB49";
shapes = (
{
closed = 1;
nodes = (
(1261,0,l),
(771,1400,l),
(550,1400,l),
(36,0,l)
);
},
{
closed = 1;
nodes = (
(612,1313,l),
(1050,56,l),
(151,56,l)
);
}
);
width = 1298;
}
);
unicode = 916;
},
{
glyphname = Theta;
kernLeft = O;
kernRight = O;
lastChange = "2023-09-26 11:34:22 +0000";
layers = (
{
anchors = (
{
name = bottom;
pos = (786,-25);
},
{
name = center;
pos = (786,701);
},
{
name = ogonek;
pos = (786,-25);
},
{
name = top;
pos = (786,1427);
},
{
name = topleft;
pos = (16,1401);
},
{
name = topright;
pos = (1359,1417);
}
);
hints = (
{
horizontal = 1;
place = (-26, 154);
place = (-26, 154);
type = Stem;
},
{
horizontal = 1;
place = (1413, -154);
place = (1413, -154);
type = Stem;
},
{
place = (80, 153);
place = (80, 153);
type = Stem;
},
{
place = (1198, 154);
place = (1198, 154);
type = Stem;
},
{
horizontal = 1;
origin = (0,11);
target = (1,3);
type = Stem;
},
{
horizontal = 1;
origin = (0,5);
target = (2,2);
type = Stem;
},
{
origin = (0,8);
target = (1,6);
type = Stem;
},
{
origin = (1,0);
target = (0,2);
type = Stem;
}
);
layerId = m002;
shapes = (
{
closed = 1;
nodes = (
(1181,-31,o),
(1445,251,o),
(1445,700,cs),
(1445,1150,o),
(1181,1432,o),
(786,1432,cs),
(389,1432,o),
(125,1150,o),
(125,700,cs),
(125,251,o),
(389,-31,o),
(786,-31,cs)
);
},
{
closed = 1;
nodes = (
(1258,659,l),
(1246,316,o),
(1078,53,o),
(786,53,cs),
(491,53,o),
(324,316,o),
(312,659,c)
);
},
{
closed = 1;
nodes = (
(325,1085,o),
(491,1348,o),
(786,1348,cs),
(1078,1348,o),
(1245,1085,o),
(1258,743,c),
(312,743,l)
);
}
);
width = 1570;
},
{
anchors = (
{
name = bottom;
pos = (768,-25);
},
{
name = center;
pos = (768,701);
},
{
name = ogonek;
pos = (768,-25);
},
{
name = top;
pos = (768,1427);
},
{
name = topleft;
pos = (-2,1401);
},
{
name = topright;
pos = (1341,1417);
}
);
hints = (
{
horizontal = 1;
place = (-26, 154);
place = (-26, 154);
type = Stem;
},
{
horizontal = 1;
place = (1413, -154);
place = (1413, -154);
type = Stem;
},
{
place = (80, 153);
place = (80, 153);
type = Stem;
},
{
place = (1198, 154);
place = (1198, 154);
type = Stem;
},
{
horizontal = 1;
origin = (0,11);
target = (1,3);
type = Stem;
},
{
horizontal = 1;
origin = (0,5);
target = (2,2);
type = Stem;
},
{
origin = (0,8);
target = (1,6);
type = Stem;
},
{
origin = (1,0);
target = (0,2);
type = Stem;
}
);
layerId = "EA527B28-A18D-4603-BC3C-580F40CB1381";
shapes = (
{
closed = 1;
nodes = (
(1177,-32,o),
(1448,253,o),
(1448,699,cs),
(1448,1149,o),
(1175,1431,o),
(768,1431,cs),
(360,1431,o),
(86,1149,o),
(86,699,cs),
(86,240,o),
(369,-32,o),
(768,-32,cs)
);
},
{
closed = 1;
nodes = (
(1196,644,l),
(1180,315,o),
(1026,80,o),
(768,80,cs),
(507,80,o),
(354,315,o),
(338,644,c)
);
},
{
closed = 1;
nodes = (
(355,1085,o),
(508,1319,o),
(768,1319,cs),
(1025,1319,o),
(1179,1085,o),
(1196,758,c),
(338,758,l)
);
}
);
width = 1534;
},
{
anchors = (
{
name = bottom;
pos = (693,-25);
},
{
name = center;
pos = (693,701);
},
{
name = ogonek;
pos = (693,-25);
},
{
name = top;
pos = (693,1427);
},
{
name = topleft;
pos = (-77,1401);
},
{
name = topright;
pos = (1266,1417);
}
);
hints = (
{
horizontal = 1;
place = (-26, 154);
place = (-26, 154);
type = Stem;
},
{
horizontal = 1;
place = (1413, -154);
place = (1413, -154);
type = Stem;
},
{
place = (80, 153);
place = (80, 153);
type = Stem;
},
{
place = (1198, 154);
place = (1198, 154);
type = Stem;
},
{
horizontal = 1;
origin = (0,11);
target = (1,3);
type = Stem;
},
{
horizontal = 1;
origin = (0,5);
target = (2,2);
type = Stem;
},
{
origin = (0,8);
target = (1,6);
type = Stem;
},
{
origin = (1,0);
target = (0,2);
type = Stem;
}
);
layerId = "19911AB5-6E30-4B50-A0ED-4C0BC5D1DB49";
shapes = (
{
closed = 1;
nodes = (
(1099,-28,o),
(1363,254,o),
(1363,701,cs),
(1363,1149,o),
(1099,1430,o),
(693,1430,cs),
(285,1430,o),
(21,1149,o),
(21,701,cs),
(21,254,o),
(285,-28,o),
(693,-28,cs)
);
},
{
closed = 1;
nodes = (
(1173,659,l),
(1161,301,o),
(987,28,o),
(693,28,cs),
(397,28,o),
(223,301,o),
(211,659,c)
);
},
{
closed = 1;
nodes = (
(223,1100,o),
(397,1376,o),
(693,1376,cs),
(987,1376,o),
(1161,1100,o),
(1173,743,c),
(211,743,l)
);
}
);
width = 1384;
}
);
metricLeft = O;
metricRight = O;
unicode = 920;
},
{
glyphname = Xi;
kernLeft = Xi;
kernRight = Xi;
lastChange = "2023-09-26 11:23:27 +0000";
layers = (
{
layerId = m002;
shapes = (
{
closed = 1;
nodes = (
(1068,1216,l),
(1068,1400,l),
(99,1400,l),
(99,1216,l)
);
},
{
closed = 1;
nodes = (
(1068,0,l),
(1068,184,l),
(99,184,l),
(99,0,l)
);
},
{
closed = 1;
nodes = (
(937,664,l),
(937,748,l),
(229,748,l),
(229,664,l)
);
}
);
width = 1168;
},
{
layerId = "EA527B28-A18D-4603-BC3C-580F40CB1381";
shapes = (
{
closed = 1;
nodes = (
(1081,1160,l),
(1081,1400,l),
(62,1400,l),
(62,1160,l)
);
},
{
closed = 1;
nodes = (
(1081,0,l),
(1081,240,l),
(62,240,l),
(62,0,l)
);
},
{
closed = 1;
nodes = (
(952,637,l),
(952,779,l),
(190,779,l),
(190,637,l)
);
}
);
width = 1142;
},
{
layerId = "19911AB5-6E30-4B50-A0ED-4C0BC5D1DB49";
shapes = (
{
closed = 1;
nodes = (
(1043,1216,l),
(1043,1400,l),
(54,1400,l),
(54,1216,l)
);
},
{
closed = 1;
nodes = (
(1043,0,l),
(1043,184,l),
(54,184,l),
(54,0,l)
);
},
{
closed = 1;
nodes = (
(911,664,l),
(911,748,l),
(187,748,l),
(187,664,l)
);
}
);
width = 1091;
}
);
unicode = 926;
},
{
glyphname = Pi;
kernLeft = H;
kernRight = H;
lastChange = "2023-09-28 14:13:15 +0000";
layers = (
{
layerId = m002;
shapes = (
{
closed = 1;
nodes = (
(380,0,l),
(380,1316,l),
(1065,1316,l),
(1065,0,l),
(1245,0,l),
(1245,1400,l),
(200,1400,l),
(200,0,l)
);
}
);
width = 1454;
},
{
layerId = "EA527B28-A18D-4603-BC3C-580F40CB1381";
shapes = (
{
closed = 1;
nodes = (
(334,0,l),
(334,1288,l),
(937,1288,l),
(937,0,l),
(1181,0,l),
(1181,1400,l),
(90,1400,l),
(90,0,l)
);
}
);
width = 1335;
},
{
layerId = "19911AB5-6E30-4B50-A0ED-4C0BC5D1DB49";
shapes = (
{
closed = 1;
nodes = (
(283,2,l),
(283,1345,l),
(981,1345,l),
(981,2,l),
(1163,2,l),
(1163,1400,l),
(100,1400,l),
(100,2,l)
);
}
);
width = 1296;
}
);
metricLeft = I;
metricRight = I;
unicode = 928;
},
{
glyphname = Sigma;
kernLeft = Sigma;
kernRight = Sigma;
lastChange = "2023-09-28 13:37:52 +0000";
layers = (
{
layerId = m002;
shapes = (
{
closed = 1;
nodes = (
(1094,0,l),
(1094,84,l),
(234,84,l),
(749,763,l),
(406,1316,l),
(1068,1316,l),
(1068,1400,l),
(139,1400,l),
(580,688,l),
(61,0,l)
);
}
);
width = 1185;
},
{
layerId = "EA527B28-A18D-4603-BC3C-580F40CB1381";
shapes = (
{
closed = 1;
nodes = (
(1114,0,l),
(1114,112,l),
(283,112,l),
(777,762,l),
(449,1288,l),
(1088,1288,l),
(1088,1400,l),
(102,1400,l),
(542,689,l),
(24,0,l)
);
}
);
width = 1171;
},
{
layerId = "19911AB5-6E30-4B50-A0ED-4C0BC5D1DB49";
shapes = (
{
closed = 1;
nodes = (
(1071,0,l),
(1071,56,l),
(173,56,l),
(712,765,l),
(353,1344,l),
(1043,1344,l),
(1043,1400,l),
(108,1400,l),
(551,686,l),
(32,0,l)
);
}
);
width = 1126;
}
);
unicode = 931;
},
{
glyphname = Phi;
kernLeft = Phi;
kernRight = Phi;
lastChange = "2023-09-28 13:38:36 +0000";
layers = (
{
anchors = (
{
name = bottom;
pos = (80,772);
},
{
name = center;
pos = (806,772);
},
{
name = ogonek;
pos = (80,772);
},
{
name = top;
pos = (1532,772);
},
{
name = topleft;
pos = (1506,1542);
},
{
name = topright;
pos = (1522,199);
}
);
hints = (
{
horizontal = 1;
origin = (0,10);
target = (1,2);
type = Stem;
},
{
horizontal = 1;
origin = (0,4);
target = (2,3);
type = Stem;
},
{
origin = (0,7);
place = (776, 0);
type = Stem;
},
{
place = (776, 0);
place = (776, 0);
type = Stem;
}
);
layerId = m002;
shapes = (
{
closed = 1;
nodes = (
(822,0,l),
(822,260,l),
(1204,277,o),
(1442,506,o),
(1442,843,cs),
(1442,1196,o),
(1185,1431,o),
(776,1431,cs),
(367,1431,o),
(110,1196,o),
(110,843,cs),
(110,520,o),
(329,296,o),
(738,263,c),
(738,0,l)
);
},
{
closed = 1;
nodes = (
(461,351,o),
(290,590,o),
(290,843,cs),
(290,1105,o),
(434,1329,o),
(738,1346,c),
(738,346,l)
);
},
{
closed = 1;
nodes = (
(822,1345,l),
(1121,1325,o),
(1262,1103,o),
(1262,843,cs),
(1262,586,o),
(1121,365,o),
(822,345,c)
);
}
);
width = 1552;
},
{
anchors = (
{
name = bottom;
pos = (65,772);
},
{
name = center;
pos = (791,772);
},
{
name = ogonek;
pos = (65,772);
},
{
name = top;
pos = (1517,772);
},
{
name = topleft;
pos = (1491,1542);
},
{
name = topright;
pos = (1507,199);
}
);
hints = (
{
horizontal = 1;
origin = (0,10);
target = (1,2);
type = Stem;
},
{
horizontal = 1;
origin = (0,4);
target = (2,3);
type = Stem;
},
{
origin = (0,7);
place = (761, 0);
type = Stem;
},
{
place = (776, 0);
place = (776, 0);
type = Stem;
}
);
layerId = "EA527B28-A18D-4603-BC3C-580F40CB1381";
shapes = (
{
closed = 1;
nodes = (
(841,0,l),
(841,244,l),
(1215,273,o),
(1453,501,o),
(1453,833,cs),
(1453,1191,o),
(1182,1428,o),
(761,1428,cs),
(340,1428,o),
(69,1191,o),
(69,833,cs),
(69,519,o),
(281,294,o),
(689,249,c),
(689,0,l)
);
},
{
closed = 1;
nodes = (
(433,396,o),
(316,592,o),
(316,833,cs),
(316,1081,o),
(437,1280,o),
(689,1312,c),
(689,360,l)
);
},
{
closed = 1;
nodes = (
(841,1310,l),
(1088,1276,o),
(1206,1078,o),
(1206,833,cs),
(1206,590,o),
(1088,393,o),
(841,360,c)
);
}
);
width = 1522;
},
{
anchors = (
{
name = bottom;
pos = (25,772);
},
{
name = center;
pos = (751,772);
},
{
name = ogonek;
pos = (25,772);
},
{
name = top;
pos = (1477,772);
},
{
name = topleft;
pos = (1451,1542);
},
{
name = topright;
pos = (1467,199);
}
);
hints = (
{
horizontal = 1;
origin = (0,12);
target = (1,2);
type = Stem;
},
{
horizontal = 1;
origin = (0,6);
target = (2,3);
type = Stem;
},
{
origin = (0,9);
place = (721, 0);
type = Stem;
},
{
place = (776, 0);
place = (776, 0);
type = Stem;
}
);
layerId = "19911AB5-6E30-4B50-A0ED-4C0BC5D1DB49";
shapes = (
{
closed = 1;
nodes = (
(683,0,o),
(683,0,o),
(767,0,c),
(767,278,l),
(1157,295,o),
(1394,522,o),
(1394,852,cs),
(1394,1197,o),
(1138,1431,o),
(721,1431,cs),
(303,1431,o),
(48,1197,o),
(48,852,cs),
(48,533,o),
(267,311,o),
(683,280,c),
(683,0,l)
);
},
{
closed = 1;
nodes = (
(370,363,o),
(230,588,o),
(230,852,cs),
(230,1125,o),
(377,1358,o),
(683,1375,c),
(683,334,l)
);
},
{
closed = 1;
nodes = (
(767,1374,l),
(1066,1354,o),
(1212,1124,o),
(1212,852,cs),
(1212,583,o),
(1066,354,o),
(767,333,c)
);
}
);
width = 1442;
}
);
unicode = 934;
},
{
glyphname = Psi;
kernLeft = Psi;
kernRight = Psi;
lastChange = "2023-09-28 13:39:11 +0000";
layers = (
{
anchors = (
{
name = bottom;
pos = (110,772);
},
{
name = center;
pos = (836,772);
},
{
name = ogonek;
pos = (110,772);
},
{
name = top;
pos = (1562,772);
},
{
name = topleft;
pos = (1536,1542);
},
{
name = topright;
pos = (1552,199);
}
);
layerId = m002;
shapes = (
{
closed = 1;
nodes = (
(852,0,l),
(852,260,l),
(1234,277,o),
(1472,506,o),
(1472,843,cs),
(1472,1400,l),
(1292,1400,l),
(1292,843,ls),
(1292,586,o),
(1151,365,o),
(852,345,c),
(852,1400,l),
(768,1400,l),
(768,346,l),
(457,372,o),
(320,590,o),
(320,843,cs),
(320,1400,l),
(140,1400,l),
(140,843,ls),
(140,520,o),
(359,296,o),
(768,263,c),
(768,0,l)
);
}
);
width = 1612;
},
{
anchors = (
{
name = bottom;
pos = (75,772);
},
{
name = center;
pos = (801,772);
},
{
name = ogonek;
pos = (75,772);
},
{
name = top;
pos = (1527,772);
},
{
name = topleft;
pos = (1501,1542);
},
{
name = topright;
pos = (1517,199);
}
);
layerId = "EA527B28-A18D-4603-BC3C-580F40CB1381";
shapes = (
{
closed = 1;
nodes = (
(803,0,l),
(803,254,l),
(1157,271,o),
(1389,503,o),
(1389,840,cs),
(1389,1400,l),
(1149,1400,l),
(1149,840,ls),
(1149,597,o),
(1098,387,o),
(803,367,c),
(803,1400,l),
(686,1400,l),
(686,368,l),
(373,393,o),
(325,600,o),
(325,840,cs),
(325,1400,l),
(85,1400,l),
(85,840,ls),
(85,514,o),
(300,293,o),
(686,258,c),
(686,0,l)
);
}
);
width = 1474;
},
{
anchors = (
{
name = bottom;
pos = (41,772);
},
{
name = center;
pos = (767,772);
},
{
name = ogonek;
pos = (41,772);
},
{
name = top;
pos = (1493,772);
},
{
name = topleft;
pos = (1467,1542);
},
{
name = topright;
pos = (1483,199);
}
);
layerId = "19911AB5-6E30-4B50-A0ED-4C0BC5D1DB49";
shapes = (
{
closed = 1;
nodes = (
(783,0,l),
(783,297,l),
(1157,314,o),
(1389,503,o),
(1389,840,cs),
(1389,1400,l),
(1213,1400,l),
(1213,840,ls),
(1213,597,o),
(1078,387,o),
(783,367,c),
(783,1400,l),
(699,1400,l),
(699,368,l),
(392,393,o),
(261,600,o),
(261,840,cs),
(261,1400,l),
(85,1400,l),
(85,840,ls),
(85,514,o),
(314,336,o),
(699,301,c),
(699,0,l)
);
}
);
width = 1474;
}
);
unicode = 936;
},
{
glyphname = Omega;
kernLeft = Omega;
kernRight = Omega;
lastChange = "2023-09-28 13:40:06 +0000";
layers = (
{
anchors = (
{
name = bottom;
pos = (762,-25);
},
{
name = center;
pos = (762,701);
},
{
name = ogonek;
pos = (762,-25);
},
{
name = top;
pos = (762,1416);
},
{
name = topleft;
pos = (762,1416);
},
{
name = topright;
pos = (762,1400);
}
);
hints = (
{
horizontal = 1;
place = (865, 0);
place = (865, 0);
type = Stem;
},
{
horizontal = 1;
place = (865, 0);
place = (865, 0);
type = Stem;
},
{
place = (694, 0);
place = (694, 0);
type = Stem;
},
{
place = (694, 0);
place = (694, 0);
type = Stem;
},
{
horizontal = 1;
place = (1, 154);
place = (1, 154);
type = Stem;
},
{
horizontal = 1;
place = (1416, 154);
place = (1416, 154);
type = Stem;
},
{
place = (22, 154);
place = (22, 154);
type = Stem;
},
{
place = (1147, 154);
place = (1147, 154);
type = Stem;
},
{
horizontal = 1;
place = (700, 647);
place = (700, 647);
type = Stem;
},
{
horizontal = 1;
place = (53, 1295);
place = (53, 1295);
type = Stem;
},
{
place = (272, 0);
place = (272, 0);
type = Stem;
},
{
place = (1406, 0);
place = (1406, 0);
type = Stem;
}
);
layerId = m002;
shapes = (
{
closed = 1;
nodes = (
(1411,-2,l),
(1411,68,l),
(1178,68,l),
(1123,66,o),
(1128,127,o),
(1178,157,c),
(1347,287,o),
(1441,431,o),
(1441,700,cs),
(1441,1152,o),
(1174,1437,o),
(765,1437,cs),
(353,1437,o),
(86,1152,o),
(86,700,cs),
(86,435,o),
(175,296,o),
(340,165,c),
(380,135,o),
(391,76,o),
(340,76,c),
(128,68,l),
(128,-2,l)
);
},
{
closed = 1;
nodes = (
(461,57,o),
(290,348,o),
(290,718,cs),
(290,1090,o),
(461,1381,o),
(765,1381,cs),
(1065,1381,o),
(1237,1090,o),
(1237,718,cs),
(1237,348,o),
(1065,57,o),
(765,57,cs)
);
}
);
width = 1527;
},
{
anchors = (
{
name = bottom;
pos = (736,-25);
},
{
name = center;
pos = (736,701);
},
{
name = ogonek;
pos = (736,-25);
},
{
name = top;
pos = (736,1416);
},
{
name = topleft;
pos = (736,1416);
},
{
name = topright;
pos = (736,1400);
}
);
hints = (
{
horizontal = 1;
place = (865, 0);
place = (865, 0);
type = Stem;
},
{
horizontal = 1;
place = (865, 0);
place = (865, 0);
type = Stem;
},
{
place = (694, 0);
place = (694, 0);
type = Stem;
},
{
place = (694, 0);
place = (694, 0);
type = Stem;
},
{
horizontal = 1;
place = (1, 154);
place = (1, 154);
type = Stem;
},
{
horizontal = 1;
place = (1416, 154);
place = (1416, 154);
type = Stem;
},
{
place = (22, 154);
place = (22, 154);
type = Stem;
},
{
place = (1147, 154);
place = (1147, 154);
type = Stem;
},
{
horizontal = 1;
origin = (1,10);
target = (1,11);
type = Stem;
},
{
horizontal = 1;
origin = (1,9);
target = (1,5);
type = Stem;
},
{
origin = (1,0);
target = (1,2);
type = Stem;
},
{
origin = (0,8);
target = (0,6);
type = Stem;
}
);
layerId = "EA527B28-A18D-4603-BC3C-580F40CB1381";
shapes = (
{
closed = 1;
nodes = (
(1396,0,l),
(1396,82,l),
(1124,82,l),
(1077,82,o),
(1088,118,o),
(1124,137,c),
(1300,273,o),
(1423,426,o),
(1423,692,cs),
(1423,1146,o),
(1147,1431,o),
(737,1431,cs),
(325,1431,o),
(49,1146,o),
(49,692,cs),
(49,480,o),
(204,265,o),
(326,137,c),
(326,137,o),
(377,82,o),
(326,82,c),
(88,82,l),
(88,0,l)
);
},
{
closed = 1;
nodes = (
(459,67,o),
(302,332,o),
(302,692,cs),
(302,1052,o),
(459,1318,o),
(737,1318,cs),
(1012,1318,o),
(1170,1052,o),
(1170,692,cs),
(1170,332,o),
(1012,67,o),
(737,67,cs)
);
}
);
width = 1472;
},
{
anchors = (
{
name = bottom;
pos = (748,-25);
},
{
name = center;
pos = (748,701);
},
{
name = ogonek;
pos = (748,-25);
},
{
name = top;
pos = (748,1416);
},
{
name = topleft;
pos = (748,1416);
},
{
name = topright;
pos = (748,1400);
}
);
hints = (
{
horizontal = 1;
place = (865, 0);
place = (865, 0);
type = Stem;
},
{
horizontal = 1;
place = (865, 0);
place = (865, 0);
type = Stem;
},
{
place = (694, 0);
place = (694, 0);
type = Stem;
},
{
place = (694, 0);
place = (694, 0);
type = Stem;
},
{
horizontal = 1;
place = (1, 154);
place = (1, 154);
type = Stem;
},
{
horizontal = 1;
place = (1416, 154);
place = (1416, 154);
type = Stem;
},
{
place = (22, 154);
place = (22, 154);
type = Stem;
},
{
place = (1147, 154);
place = (1147, 154);
type = Stem;
},
{
horizontal = 1;
origin = (1,1);
target = (1,11);
type = Stem;
},
{
horizontal = 1;
origin = (1,11);
target = (1,5);
type = Stem;
},
{
origin = (1,2);
target = (1,2);
type = Stem;
},
{
origin = (0,6);
target = (0,6);
type = Stem;
}
);
layerId = "19911AB5-6E30-4B50-A0ED-4C0BC5D1DB49";
shapes = (
{
closed = 1;
nodes = (
(1395,-2,l),
(1395,68,l),
(1162,68,l),
(1107,66,o),
(1112,127,o),
(1162,157,c),
(1331,287,o),
(1425,431,o),
(1425,700,cs),
(1425,1152,o),
(1158,1437,o),
(749,1437,cs),
(337,1437,o),
(70,1152,o),
(70,700,cs),
(70,435,o),
(159,296,o),
(324,165,c),
(364,135,o),
(375,76,o),
(324,76,c),
(112,68,l),
(112,-2,l)
);
},
{
closed = 1;
nodes = (
(445,57,o),
(274,348,o),
(274,718,cs),
(274,1090,o),
(445,1381,o),
(749,1381,cs),
(1049,1381,o),
(1221,1090,o),
(1221,718,cs),
(1221,348,o),
(1049,57,o),
(749,57,cs)
);
}
);
width = 1497;
}
);
unicode = 937;
},
{
glyphname = beta;
kernRight = beta;
lastChange = "2023-10-02 12:00:37 +0000";
layers = (
{
layerId = m002;
shapes = (
{
closed = 1;
nodes = (
(248,-400,l),
(248,72,ls),
(248,290,o),
(289,-30,o),
(645,-30,cs),
(896,-30,o),
(1119,128,o),
(1097,383,cs),
(1082,552,o),
(905,711,o),
(763,755,c),
(931,794,o),
(1056,966,o),
(1017,1130,cs),
(974,1309,o),
(832,1428,o),
(588,1428,cs),
(346,1428,o),
(164,1256,o),
(164,1030,cs),
(164,-400,l)
);
},
{
closed = 1;
nodes = (
(435,126,o),
(344,240,o),
(344,512,cs),
(344,1030,ls),
(344,1168,o),
(398,1344,o),
(588,1344,cs),
(830,1344,o),
(844,1132,o),
(832,1027,cs),
(819,917,o),
(767,792,o),
(555,792,c),
(585,708,l),
(861,708,o),
(912,554,o),
(912,383,cs),
(912,250,o),
(787,41,o),
(583,90,cs)
);
}
);
width = 1184;
},
{
layerId = "EA527B28-A18D-4603-BC3C-580F40CB1381";
shapes = (
{
closed = 1;
nodes = (
(293,-400,l),
(293,80,ls),
(293,105,o),
(234,164,o),
(280,117,cs),
(328,70,o),
(433,-36,o),
(649,-36,cs),
(915,-36,o),
(1152,127,o),
(1129,388,cs),
(1116,538,o),
(967,688,o),
(818,752,c),
(982,810,o),
(1087,969,o),
(1050,1125,cs),
(1007,1303,o),
(853,1430,o),
(594,1430,cs),
(337,1430,o),
(141,1253,o),
(141,1023,cs),
(141,-400,l)
);
},
{
closed = 1;
nodes = (
(470,143,o),
(387,246,o),
(387,514,cs),
(387,1023,ls),
(387,1160,o),
(436,1318,o),
(594,1318,cs),
(798,1318,o),
(811,1124,o),
(799,1022,cs),
(786,903,o),
(737,789,o),
(520,806,c),
(562,690,l),
(830,702,o),
(878,561,o),
(878,387,cs),
(878,254,o),
(769,71,o),
(597,112,cs)
);
}
);
width = 1183;
},
{
layerId = "19911AB5-6E30-4B50-A0ED-4C0BC5D1DB49";
shapes = (
{
closed = 1;
nodes = (
(236,-400,l),
(236,65,ls),
(236,173,o),
(238,170,o),
(283,125,cs),
(327,81,o),
(432,-24,o),
(641,-24,cs),
(899,-24,o),
(1121,133,o),
(1100,380,cs),
(1085,542,o),
(910,699,o),
(761,746,c),
(761,776,l),
(937,816,o),
(1056,981,o),
(1019,1139,cs),
(977,1310,o),
(835,1430,o),
(582,1430,cs),
(331,1430,o),
(151,1259,o),
(151,1040,cs),
(151,-400,l)
);
},
{
closed = 1;
nodes = (
(432,104,o),
(334,227,o),
(334,512,cs),
(334,1040,ls),
(334,1186,o),
(391,1375,o),
(582,1375,cs),
(829,1375,o),
(843,1143,o),
(831,1035,cs),
(816,917,o),
(765,786,o),
(556,783,c),
(575,727,l),
(860,728,o),
(912,562,o),
(912,381,cs),
(912,237,o),
(786,18,o),
(577,68,cs)
);
}
);
width = 1143;
}
);
metricRight = b;
unicode = 946;
},
{
glyphname = gamma;
kernLeft = gamma;
kernRight = gamma;
lastChange = "2023-09-28 13:41:26 +0000";
layers = (
{
anchors = (
{
name = bottom;
pos = (519,-400);
},
{
name = top;
pos = (552,1000);
}
);
hints = (
{
horizontal = 1;
place = (0, 21);
target = up;
type = BottomGhost;
},
{
horizontal = 1;
place = (1002, -20);
target = down;
type = TopGhost;
},
{
horizontal = 1;
place = (0, 164);
place = (0, 164);
type = Stem;
},
{
horizontal = 1;
origin = (0,1);
target = up;
type = BottomGhost;
},
{
horizontal = 1;
origin = (0,2);
target = down;
type = TopGhost;
},
{
horizontal = 1;
origin = (0,1);
target = (0,4);
type = Stem;
}
);
layerId = m002;
shapes = (
{
closed = 1;
nodes = (
(633,-400,l),
(633,0,l),
(1026,1000,l),
(896,1000,l),
(585,154,l),
(239,1000,l),
(39,1000,l),
(453,-1,l),
(453,-400,l)
);
}
);
width = 1066;
},
{
anchors = (
{
name = bottom;
pos = (503,-400);
},
{
name = top;
pos = (536,1000);
}
);
hints = (
{
horizontal = 1;
place = (0, 21);
target = up;
type = BottomGhost;
},
{
horizontal = 1;
place = (1002, -20);
target = down;
type = TopGhost;
},
{
horizontal = 1;
place = (0, 164);
place = (0, 164);
type = Stem;
},
{
horizontal = 1;
place = (-1, 21);
target = up;
type = BottomGhost;
},
{
horizontal = 1;
place = (985, -20);
target = down;
type = TopGhost;
},
{
horizontal = 1;
place = (-1, 66);
place = (-1, 66);
type = Stem;
}
);
layerId = "EA527B28-A18D-4603-BC3C-580F40CB1381";
shapes = (
{
closed = 1;
nodes = (
(649,-400,l),
(649,2,l),
(1014,1000,l),
(873,1000,l),
(569,162,l),
(247,1000,l),
(7,1000,l),
(409,2,l),
(409,-400,l)
);
}
);
width = 1034;
},
{
anchors = (
{
name = bottom;
pos = (505,-400);
},
{
name = top;
pos = (538,1000);
}
);
hints = (
{
horizontal = 1;
place = (0, 21);
target = up;
type = BottomGhost;
},
{
horizontal = 1;
place = (1002, -20);
target = down;
type = TopGhost;
},
{
horizontal = 1;
place = (0, 164);
place = (0, 164);
type = Stem;
},
{
horizontal = 1;
origin = (0,1);
target = up;
type = BottomGhost;
},
{
horizontal = 1;
origin = (0,2);
target = down;
type = TopGhost;
},
{
horizontal = 1;
origin = (0,1);
target = (0,4);
type = Stem;
}
);
layerId = "19911AB5-6E30-4B50-A0ED-4C0BC5D1DB49";
shapes = (
{
closed = 1;
nodes = (
(617,-400,l),
(617,2,l),
(1010,1000,l),
(878,1000,l),
(569,162,l),
(227,1000,l),
(26,1000,l),
(440,2,l),
(440,-400,l)
);
}
);
width = 1038;
}
);
unicode = 947;
},
{
glyphname = delta;
kernLeft = delta;
kernRight = delta;
lastChange = "2023-09-28 14:26:43 +0000";
layers = (
{
guides = (
{
pos = (98,-133);
}
);
layerId = m002;
shapes = (
{
closed = 1;
nodes = (
(829,-31,o),
(1052,171,o),
(1052,452,cs),
(1052,752,o),
(900,875,o),
(613,917,c),
(528,923,o),
(351,959,o),
(283,1080,cs),
(226,1181,o),
(380,1370,o),
(562,1346,cs),
(920,1298,l),
(920,1400,l),
(562,1430,ls),
(314,1451,o),
(62,1219,o),
(209,1003,cs),
(243,953,o),
(300,907,o),
(329,883,c),
(216,803,o),
(87,719,o),
(87,452,cs),
(87,165,o),
(315,-31,o),
(574,-31,cs)
);
},
{
closed = 1;
nodes = (
(401,53,o),
(272,253,o),
(272,452,cs),
(272,664,o),
(364,839,o),
(558,839,cs),
(637,840,o),
(867,798,o),
(867,452,cs),
(867,259,o),
(741,53,o),
(570,53,cs)
);
}
);
width = 1140;
},
{
guides = (
{
pos = (81,-133);
}
);
layerId = "EA527B28-A18D-4603-BC3C-580F40CB1381";
shapes = (
{
closed = 1;
nodes = (
(813,-31,o),
(1035,170,o),
(1035,451,cs),
(1035,751,o),
(884,875,o),
(597,917,c),
(512,923,o),
(393,976,o),
(353,1079,cs),
(311,1188,o),
(374,1309,o),
(555,1281,c),
(897,1218,l),
(897,1400,l),
(546,1429,ls),
(298,1449,o),
(46,1218,o),
(193,1002,cs),
(227,952,o),
(284,906,o),
(313,882,c),
(200,802,o),
(70,718,o),
(70,451,cs),
(70,164,o),
(299,-31,o),
(558,-31,cs)
);
},
{
closed = 1;
nodes = (
(385,113,o),
(310,252,o),
(310,451,cs),
(310,663,o),
(421,769,o),
(542,769,cs),
(621,769,o),
(792,698,o),
(795,451,cs),
(797,258,o),
(725,113,o),
(554,113,cs)
);
}
);
width = 1105;
},
{
guides = (
{
pos = (55,-133);
}
);
layerId = "19911AB5-6E30-4B50-A0ED-4C0BC5D1DB49";
shapes = (
{
closed = 1;
nodes = (
(786,-31,o),
(1009,171,o),
(1009,452,cs),
(1009,752,o),
(857,875,o),
(570,917,c),
(485,923,o),
(308,959,o),
(240,1080,cs),
(183,1181,o),
(320,1376,o),
(519,1346,cs),
(877,1293,l),
(877,1400,l),
(519,1430,ls),
(271,1451,o),
(19,1219,o),
(166,1003,cs),
(200,953,o),
(257,907,o),
(286,883,c),
(173,803,o),
(44,719,o),
(44,452,cs),
(44,165,o),
(272,-31,o),
(531,-31,cs)
);
},
{
closed = 1;
nodes = (
(358,53,o),
(229,253,o),
(229,452,cs),
(229,664,o),
(321,839,o),
(515,839,cs),
(594,840,o),
(824,798,o),
(824,452,cs),
(824,259,o),
(698,53,o),
(527,53,cs)
);
}
);
width = 1053;
}
);
unicode = 948;
},
{
glyphname = epsilon;
kernLeft = epsilon;
kernRight = epsilon;
lastChange = "2023-10-02 12:37:42 +0000";
layers = (
{
anchors = (
{
name = top;
pos = (499,1030);
}
);
layerId = m002;
shapes = (
{
closed = 1;
nodes = (
(657,-34,o),
(814,89,o),
(814,177,c),
(752,177,l),
(682,-14,o),
(254,-34,o),
(254,248,cs),
(254,371,o),
(347,482,o),
(498,486,c),
(525,578,l),
(341,606,o),
(269,659,o),
(269,800,cs),
(269,938,o),
(446,1081,o),
(714,886,c),
(748,932,l),
(395,1138,o),
(122,971,o),
(122,800,cs),
(122,635,o),
(289,578,o),
(366,540,c),
(246,540,o),
(69,419,o),
(69,248,cs),
(69,89,o),
(220,-34,o),
(487,-34,cs)
);
}
);
width = 911;
},
{
anchors = (
{
name = top;
pos = (586,1086);
}
);
layerId = "EA527B28-A18D-4603-BC3C-580F40CB1381";
shapes = (
{
closed = 1;
nodes = (
(671,-23,o),
(759,111,o),
(808,252,c),
(718,252,l),
(631,-20,o),
(315,87,o),
(291,259,cs),
(273,389,o),
(353,468,o),
(495,463,c),
(516,555,l),
(371,572,o),
(286,674,o),
(317,770,cs),
(364,916,o),
(515,978,o),
(701,844,c),
(758,950,l),
(392,1144,o),
(87,971,o),
(87,770,cs),
(87,654,o),
(147,565,o),
(251,533,c),
(127,499,o),
(27,379,o),
(49,241,cs),
(70,111,o),
(209,-31,o),
(433,-27,cs)
);
}
);
width = 856;
},
{
anchors = (
{
name = top;
pos = (519,1030);
}
);
layerId = "19911AB5-6E30-4B50-A0ED-4C0BC5D1DB49";
shapes = (
{
closed = 1;
nodes = (
(643,-33,o),
(774,90,o),
(774,178,c),
(721,178,l),
(627,-51,o),
(229,34,o),
(225,254,cs),
(223,356,o),
(286,486,o),
(460,490,c),
(482,579,l),
(298,607,o),
(238,702,o),
(238,801,cs),
(238,939,o),
(428,1091,o),
(688,892,c),
(721,947,l),
(368,1153,o),
(82,972,o),
(82,801,cs),
(82,609,o),
(316,567,o),
(326,541,c),
(255,541,o),
(40,420,o),
(40,249,cs),
(40,90,o),
(206,-33,o),
(473,-33,cs)
);
}
);
width = 863;
}
);
metricLeft = e;
unicode = 949;
},
{
glyphname = zeta;
kernLeft = zeta;
kernRight = zeta;
lastChange = "2023-09-28 13:54:53 +0000";
layers = (
{
layerId = m002;
shapes = (
{
closed = 1;
nodes = (
(646,-266,o),
(824,-87,o),
(789,0,cs),
(692,239,o),
(275,87,o),
(273,574,cs),
(271,1057,o),
(794,1316,o),
(794,1316,c),
(794,1400,l),
(94,1399,l),
(94,1315,l),
(664,1315,l),
(398,1175,o),
(94,832,o),
(93,472,cs),
(92,141,o),
(354,20,o),
(506,0,cs),
(798,-38,o),
(581,-228,o),
(459,-363,c),
(524,-400,l)
);
}
);
width = 814;
},
{
layerId = "EA527B28-A18D-4603-BC3C-580F40CB1381";
shapes = (
{
closed = 1;
nodes = (
(627,-266,o),
(805,-87,o),
(770,0,cs),
(673,239,o),
(322,87,o),
(320,574,cs),
(318,1057,o),
(775,1240,o),
(775,1240,c),
(775,1400,l),
(75,1399,l),
(75,1291,l),
(645,1291,l),
(379,1151,o),
(45,832,o),
(44,472,cs),
(43,141,o),
(335,20,o),
(487,0,cs),
(696,-27,o),
(497,-188,o),
(373,-325,c),
(505,-400,l)
);
}
);
width = 791;
},
{
layerId = "19911AB5-6E30-4B50-A0ED-4C0BC5D1DB49";
shapes = (
{
closed = 1;
nodes = (
(600,-266,o),
(778,-87,o),
(743,0,cs),
(646,239,o),
(229,87,o),
(227,574,cs),
(225,1057,o),
(748,1316,o),
(748,1316,c),
(748,1400,l),
(48,1399,l),
(48,1315,l),
(618,1315,l),
(352,1175,o),
(48,832,o),
(47,472,cs),
(46,141,o),
(308,20,o),
(460,0,cs),
(752,-38,o),
(535,-228,o),
(413,-363,c),
(478,-400,l)
);
}
);
width = 758;
}
);
unicode = 950;
},
{
glyphname = eta;
kernLeft = eta;
kernRight = eta;
lastChange = "2023-10-02 11:58:00 +0000";
layers = (
{
anchors = (
{
name = bottom;
pos = (614,0);
},
{
name = top;
pos = (641,1028);
}
);
hints = (
{
horizontal = 1;
place = (0, 21);
target = up;
type = BottomGhost;
},
{
horizontal = 1;
origin = (0,8);
place = (1000, 115);
type = Stem;
},
{
horizontal = 1;
place = (1000, -20);
target = down;
type = TopGhost;
},
{
place = (100, 140);
place = (100, 140);
type = Stem;
},
{
place = (857, 140);
place = (857, 140);
type = Stem;
}
);
layerId = m002;
shapes = (
{
closed = 1;
nodes = (
(1050,-400,l),
(1050,605,ls),
(1050,845,o),
(867,1027,o),
(634,1028,cs),
(418,1029,o),
(357,829,o),
(335,931,cs),
(320,1000,l),
(160,1000,l),
(160,0,l),
(340,0,l),
(340,592,ls),
(340,756,o),
(447,940,o),
(634,944,cs),
(814,948,o),
(866,772,o),
(866,605,c),
(866,-400,l)
);
}
);
width = 1186;
},
{
anchors = (
{
name = bottom;
pos = (589,0);
},
{
name = top;
pos = (616,1028);
}
);
hints = (
{
horizontal = 1;
place = (0, 21);
target = up;
type = BottomGhost;
},
{
horizontal = 1;
origin = (0,6);
place = (819, 115);
type = Stem;
},
{
horizontal = 1;
place = (1000, -20);
target = down;
type = TopGhost;
},
{
place = (100, 140);
place = (100, 140);
type = Stem;
},
{
place = (857, 140);
place = (857, 140);
type = Stem;
}
);
layerId = "EA527B28-A18D-4603-BC3C-580F40CB1381";
shapes = (
{
closed = 1;
nodes = (
(1051,-400,l),
(1051,602,ls),
(1051,843,o),
(858,1030,o),
(609,1031,cs),
(420,1032,o),
(371,819,o),
(332,1004,c),
(109,1004,l),
(109,-7,l),
(354,-7,l),
(354,589,ls),
(354,751,o),
(450,916,o),
(610,919,cs),
(764,923,o),
(811,766,o),
(811,602,c),
(811,-400,l)
);
}
);
width = 1141;
},
{
anchors = (
{
name = bottom;
pos = (534,0);
},
{
name = top;
pos = (561,1028);
}
);
hints = (
{
horizontal = 1;
place = (0, 21);
target = up;
type = BottomGhost;
},
{
horizontal = 1;
origin = (0,8);
place = (896, 115);
type = Stem;
},
{
horizontal = 1;
place = (1000, -20);
target = down;
type = TopGhost;
},
{
place = (100, 140);
place = (100, 140);
type = Stem;
},
{
place = (857, 140);
place = (857, 140);
type = Stem;
}
);
layerId = "19911AB5-6E30-4B50-A0ED-4C0BC5D1DB49";
shapes = (
{
closed = 1;
nodes = (
(979,-400,l),
(979,611,ls),
(979,844,o),
(797,1026,o),
(554,1027,cs),
(429,1028,o),
(359,968,o),
(314,931,cs),
(273,896,o),
(262,877,o),
(249,940,cs),
(237,1000,l),
(71,1000,l),
(71,0,l),
(254,0,l),
(254,596,ls),
(254,773,o),
(366,967,o),
(554,971,cs),
(736,975,o),
(796,789,o),
(795,609,c),
(795,-400,l)
);
}
);
width = 1038;
}
);
unicode = 951;
},
{
glyphname = theta;
kernLeft = theta;
kernRight = theta;
lastChange = "2023-09-26 11:37:38 +0000";
layers = (
{
layerId = m002;
shapes = (
{
closed = 1;
nodes = (
(866,-29,o),
(1155,197,o),
(1153,695,cs),
(1151,1198,o),
(866,1432,o),
(619,1432,cs),
(358,1432,o),
(83,1198,o),
(85,695,cs),
(87,197,o),
(358,-29,o),
(619,-29,cs)
);
},
{
closed = 1;
nodes = (
(323,645,o),
(905,645,o),
(971,646,c),
(971,345,o),
(829,55,o),
(619,55,cs),
(393,55,o),
(270,332,o),
(270,646,c)
);
},
{
closed = 1;
nodes = (
(270,1015,o),
(393,1348,o),
(619,1348,cs),
(829,1348,o),
(967,1028,o),
(971,730,c),
(270,730,l)
);
}
);
width = 1238;
},
{
layerId = "EA527B28-A18D-4603-BC3C-580F40CB1381";
shapes = (
{
closed = 1;
nodes = (
(871,-29,o),
(1168,198,o),
(1166,695,cs),
(1164,1196,o),
(871,1431,o),
(609,1431,cs),
(332,1431,o),
(50,1194,o),
(52,695,cs),
(54,199,o),
(333,-29,o),
(609,-29,cs)
);
},
{
closed = 1;
nodes = (
(423,631,o),
(795,631,o),
(920,632,c),
(915,342,o),
(785,83,o),
(609,83,cs),
(418,83,o),
(305,330,o),
(301,632,c)
);
},
{
closed = 1;
nodes = (
(305,1019,o),
(420,1319,o),
(609,1319,cs),
(784,1319,o),
(911,1031,o),
(920,743,c),
(301,743,l)
);
}
);
width = 1218;
},
{
layerId = "19911AB5-6E30-4B50-A0ED-4C0BC5D1DB49";
shapes = (
{
closed = 1;
nodes = (
(845,-31,o),
(1134,196,o),
(1132,694,cs),
(1130,1196,o),
(845,1431,o),
(587,1431,cs),
(315,1431,o),
(40,1196,o),
(42,694,cs),
(44,196,o),
(315,-31,o),
(587,-31,cs)
);
},
{
closed = 1;
nodes = (
(286,658,o),
(878,658,o),
(947,659,c),
(952,340,o),
(800,25,o),
(587,25,cs),
(356,25,o),
(226,324,o),
(230,659,c)
);
},
{
closed = 1;
nodes = (
(226,1013,o),
(356,1376,o),
(587,1376,cs),
(797,1376,o),
(942,1041,o),
(947,714,c),
(230,714,l)
);
}
);
width = 1174;
}
);
metricLeft = o;
metricRight = o;
unicode = 952;
},
